<svg width="609" height="89" viewBox="0 0 609 89" fill="none" xmlns="http://www.w3.org/2000/svg">
<path d="M23.0273 87.001H0.762205L29.6817 1.28891H57.2619L86.1813 87.001H63.9163L43.7856 22.8843H43.116L23.0273 87.001ZM20.0558 53.2686H66.5948V69.0048H20.0558V53.2686ZM100.759 18.1133V1.28891H173.204V18.1133H147.214V87.001H126.79V18.1133H100.759ZM202.178 87.001V1.28891H222.895V37.5324H224.025L252.358 1.28891H276.758L246.373 39.5413L277.302 87.001H252.525L231.181 53.3104L222.895 63.7733V87.001H202.178ZM349.195 26.9858C348.916 23.9167 347.674 21.5311 345.47 19.8292C343.294 18.0993 340.183 17.2344 336.137 17.2344C333.459 17.2344 331.226 17.5831 329.441 18.2807C327.655 18.9782 326.316 19.9408 325.423 21.1684C324.53 22.3682 324.07 23.7493 324.042 25.3117C323.986 26.5952 324.237 27.7252 324.795 28.7017C325.381 29.6782 326.218 30.5432 327.306 31.2965C328.422 32.0219 329.762 32.6637 331.324 33.2217C332.887 33.7797 334.644 34.268 336.597 34.6865L343.963 36.3605C348.204 37.2813 351.943 38.5089 355.179 40.0435C358.444 41.578 361.178 43.4056 363.382 45.526C365.614 47.6465 367.302 50.0879 368.446 52.8501C369.59 55.6123 370.176 58.7093 370.204 62.1411C370.176 67.5539 368.809 72.1995 366.103 76.0777C363.396 79.956 359.504 82.9274 354.426 84.9921C349.376 87.0568 343.28 88.0891 336.137 88.0891C328.966 88.0891 322.717 87.0149 317.387 84.8665C312.058 82.7182 307.915 79.4537 304.958 75.0733C302 70.6928 300.479 65.1544 300.396 58.4582H320.233C320.401 61.2204 321.14 63.5222 322.452 65.3637C323.763 67.2052 325.563 68.6002 327.85 69.5489C330.166 70.4975 332.845 70.9718 335.886 70.9718C338.676 70.9718 341.048 70.5952 343.001 69.8418C344.982 69.0885 346.502 68.0422 347.562 66.703C348.623 65.3637 349.167 63.8291 349.195 62.0993C349.167 60.481 348.665 59.0999 347.688 57.956C346.712 56.7841 345.205 55.7797 343.168 54.9427C341.159 54.0777 338.592 53.2825 335.467 52.5571L326.511 50.4645C319.089 48.7626 313.244 46.0143 308.975 42.2198C304.706 38.3973 302.586 33.2356 302.614 26.7347C302.586 21.4335 304.009 16.788 306.883 12.7981C309.757 8.80825 313.732 5.69728 318.81 3.4652C323.888 1.23311 329.678 0.117065 336.179 0.117065C342.819 0.117065 348.581 1.24706 353.464 3.50704C358.374 5.73913 362.183 8.878 364.889 12.9237C367.595 16.9693 368.977 21.6567 369.032 26.9858H349.195ZM399.524 1.28891H425.179L446.942 54.3567H447.946L469.709 1.28891H495.364V87.001H475.191V34.3517H474.48L453.889 86.4569H440.999L420.408 34.0587H419.696V87.001H399.524V1.28891ZM546.603 1.28891L565.771 64.0663H566.483L585.651 1.28891H608.837L579.917 87.001H552.337L523.417 1.28891H546.603Z" fill="#FFB133"/>
</svg>
