<svg width="633" height="476" viewBox="0 0 633 476" fill="none" xmlns="http://www.w3.org/2000/svg">
<ellipse cx="325.598" cy="131.449" rx="116.266" ry="118.435" fill="white" fill-opacity="0.8"/>
<path d="M418.653 203.263C370.948 261.22 303.14 250.025 277.043 237.183C255.072 224.453 240.845 209.265 236.478 203.263C219.726 184.207 213.237 153.815 212.155 139.577C206.963 57.4989 268.389 22.496 301.788 15.6561C356.633 4.26573 400.092 37.4319 414.966 55.4388C395.819 28.9729 373.724 15.0978 365.07 11.4685C267.713 -27.3929 203.549 41.8267 190.233 80.5648C172.385 132.492 187.664 177.579 197.535 193.631C219.278 232.493 252.298 249.467 266.091 253.096C347.546 279.562 402.968 230.902 418.653 203.263Z" fill="url(#paint0_linear_211_756)"/>
<path d="M301.305 57.0469H343.603V148.801L334.276 137.739L301.305 161.382V57.0469Z" fill="#011033" stroke="white" stroke-width="2.16914"/>
<path d="M357.268 5.20508H398.264L399.132 137.306L359.654 166.155L357.268 163.118V5.20508Z" fill="#011033" stroke="white" stroke-width="2.16914"/>
<path d="M245.774 98.9111V197.39L287.639 167.239V98.9111H245.774Z" fill="#011033" stroke="white" stroke-width="2.16914"/>
<path d="M288.291 233.832V200.427L301.522 190.015V237.519C323.561 245.62 338.759 240.894 343.604 237.519V186.761L357.269 194.57V236.001C378.787 230.968 394.434 216.406 399.567 209.754V165.07L446.421 127.761L456.616 138.823L469.414 98.9111L423.645 103.9C425.38 109.323 429.024 120.646 429.719 122.555C430.413 124.464 383.299 158.201 359.655 174.831L332.975 145.981L249.246 206.284C258.79 221.034 279.253 230.795 288.291 233.832Z" fill="url(#paint1_linear_211_756)" stroke="white" stroke-width="2.16914"/>
<path d="M25.0273 413.001H2.76221L31.6817 327.289H59.2619L88.1813 413.001H65.9163L45.7856 348.884H45.116L25.0273 413.001ZM22.0558 379.269H68.5948V395.005H22.0558V379.269ZM102.759 344.113V327.289H175.204V344.113H149.214V413.001H128.79V344.113H102.759ZM204.178 413.001V327.289H224.895V363.532H226.025L254.358 327.289H278.758L248.373 365.541L279.302 413.001H254.525L233.181 379.31L224.895 389.773V413.001H204.178ZM351.195 352.986C350.916 349.917 349.674 347.531 347.47 345.829C345.294 344.099 342.183 343.234 338.137 343.234C335.459 343.234 333.226 343.583 331.441 344.281C329.655 344.978 328.316 345.941 327.423 347.168C326.53 348.368 326.07 349.749 326.042 351.312C325.986 352.595 326.237 353.725 326.795 354.702C327.381 355.678 328.218 356.543 329.306 357.297C330.422 358.022 331.762 358.664 333.324 359.222C334.887 359.78 336.644 360.268 338.597 360.686L345.963 362.361C350.204 363.281 353.943 364.509 357.179 366.043C360.444 367.578 363.178 369.406 365.382 371.526C367.614 373.647 369.302 376.088 370.446 378.85C371.59 381.612 372.176 384.709 372.204 388.141C372.176 393.554 370.809 398.199 368.103 402.078C365.396 405.956 361.504 408.927 356.426 410.992C351.376 413.057 345.28 414.089 338.137 414.089C330.966 414.089 324.717 413.015 319.387 410.867C314.058 408.718 309.915 405.454 306.958 401.073C304 396.693 302.479 391.154 302.396 384.458H322.233C322.401 387.22 323.14 389.522 324.452 391.364C325.763 393.205 327.563 394.6 329.85 395.549C332.166 396.497 334.845 396.972 337.886 396.972C340.676 396.972 343.048 396.595 345.001 395.842C346.982 395.088 348.502 394.042 349.562 392.703C350.623 391.364 351.167 389.829 351.195 388.099C351.167 386.481 350.665 385.1 349.688 383.956C348.712 382.784 347.205 381.78 345.168 380.943C343.159 380.078 340.592 379.283 337.467 378.557L328.511 376.465C321.089 374.763 315.244 372.014 310.975 368.22C306.706 364.397 304.586 359.236 304.614 352.735C304.586 347.433 306.009 342.788 308.883 338.798C311.757 334.808 315.732 331.697 320.81 329.465C325.888 327.233 331.678 326.117 338.179 326.117C344.819 326.117 350.581 327.247 355.464 329.507C360.374 331.739 364.183 334.878 366.889 338.924C369.595 342.969 370.977 347.657 371.032 352.986H351.195ZM401.524 327.289H427.179L448.942 380.357H449.946L471.709 327.289H497.364V413.001H477.191V360.352H476.48L455.889 412.457H442.999L422.408 360.059H421.696V413.001H401.524V327.289ZM548.603 327.289L567.771 390.066H568.483L587.651 327.289H610.837L581.917 413.001H554.337L525.417 327.289H548.603Z" fill="url(#paint2_linear_211_756)"/>
<path d="M49.0753 448.636V469H44.7699V448.636H49.0753ZM61.5338 460.17V469H57.298V453.727H61.3349V456.422H61.5139C61.852 455.534 62.4187 454.831 63.2142 454.314C64.0096 453.79 64.9741 453.528 66.1077 453.528C67.1683 453.528 68.093 453.76 68.8818 454.224C69.6706 454.688 70.2838 455.351 70.7213 456.213C71.1588 457.068 71.3775 458.089 71.3775 459.276V469H67.1417V460.031C67.1484 459.097 66.9097 458.367 66.4258 457.844C65.9419 457.313 65.2757 457.048 64.4273 457.048C63.8572 457.048 63.3534 457.171 62.9159 457.416C62.485 457.661 62.147 458.019 61.9017 458.49C61.6631 458.954 61.5404 459.514 61.5338 460.17ZM93.1677 453.727L87.8282 469H83.0555L77.716 453.727H82.1905L85.3623 464.655H85.5214L88.6834 453.727H93.1677ZM106.563 469.298C104.992 469.298 103.64 468.98 102.507 468.344C101.38 467.701 100.511 466.793 99.9014 465.619C99.2916 464.439 98.9867 463.044 98.9867 461.433C98.9867 459.862 99.2916 458.483 99.9014 457.297C100.511 456.11 101.37 455.186 102.477 454.523C103.59 453.86 104.896 453.528 106.394 453.528C107.402 453.528 108.34 453.691 109.208 454.016C110.083 454.334 110.846 454.814 111.495 455.457C112.151 456.1 112.662 456.909 113.026 457.884C113.391 458.851 113.573 459.985 113.573 461.284V462.447H100.677V459.822H109.586C109.586 459.213 109.454 458.672 109.188 458.202C108.923 457.731 108.555 457.363 108.085 457.098C107.621 456.826 107.08 456.69 106.464 456.69C105.821 456.69 105.251 456.839 104.754 457.138C104.263 457.429 103.879 457.824 103.6 458.321C103.322 458.812 103.179 459.358 103.173 459.962V462.457C103.173 463.213 103.312 463.866 103.59 464.416C103.875 464.966 104.276 465.391 104.793 465.689C105.311 465.987 105.924 466.136 106.633 466.136C107.104 466.136 107.534 466.07 107.926 465.938C108.317 465.805 108.651 465.606 108.93 465.341C109.208 465.076 109.42 464.751 109.566 464.366L113.484 464.625C113.285 465.566 112.877 466.388 112.261 467.091C111.651 467.787 110.862 468.33 109.894 468.722C108.933 469.106 107.823 469.298 106.563 469.298ZM133.805 458.082L129.927 458.321C129.861 457.99 129.718 457.691 129.5 457.426C129.281 457.154 128.992 456.939 128.634 456.78C128.283 456.614 127.862 456.531 127.372 456.531C126.715 456.531 126.162 456.67 125.711 456.949C125.26 457.221 125.035 457.585 125.035 458.043C125.035 458.407 125.181 458.715 125.473 458.967C125.764 459.219 126.265 459.421 126.974 459.574L129.738 460.131C131.223 460.436 132.33 460.926 133.059 461.602C133.788 462.278 134.153 463.167 134.153 464.267C134.153 465.268 133.858 466.146 133.268 466.902C132.685 467.658 131.883 468.248 130.862 468.672C129.848 469.089 128.678 469.298 127.352 469.298C125.33 469.298 123.719 468.877 122.519 468.036C121.326 467.187 120.627 466.034 120.421 464.575L124.588 464.357C124.714 464.973 125.018 465.444 125.502 465.768C125.986 466.087 126.606 466.246 127.362 466.246C128.104 466.246 128.701 466.103 129.152 465.818C129.609 465.527 129.841 465.152 129.848 464.695C129.841 464.31 129.678 463.995 129.36 463.75C129.042 463.498 128.552 463.306 127.889 463.173L125.244 462.646C123.752 462.348 122.642 461.831 121.913 461.095C121.19 460.359 120.829 459.421 120.829 458.281C120.829 457.3 121.094 456.455 121.625 455.746C122.161 455.036 122.914 454.49 123.882 454.105C124.856 453.721 125.996 453.528 127.302 453.528C129.231 453.528 130.749 453.936 131.856 454.751C132.97 455.567 133.619 456.677 133.805 458.082ZM149.704 453.727V456.909H140.506V453.727H149.704ZM142.594 450.068H146.83V464.307C146.83 464.698 146.89 465.003 147.009 465.222C147.128 465.434 147.294 465.583 147.506 465.669C147.725 465.755 147.977 465.798 148.262 465.798C148.461 465.798 148.66 465.782 148.859 465.749C149.057 465.709 149.21 465.679 149.316 465.659L149.982 468.811C149.77 468.877 149.472 468.954 149.087 469.04C148.703 469.133 148.235 469.189 147.685 469.209C146.664 469.249 145.77 469.113 145.001 468.801C144.238 468.49 143.645 468.006 143.221 467.349C142.797 466.693 142.588 465.865 142.594 464.864V450.068ZM157.223 469V453.727H161.26V456.422H161.439C161.757 455.527 162.287 454.821 163.03 454.304C163.772 453.787 164.66 453.528 165.695 453.528C166.742 453.528 167.634 453.79 168.369 454.314C169.105 454.831 169.596 455.534 169.841 456.422H170C170.312 455.547 170.875 454.848 171.69 454.324C172.512 453.794 173.483 453.528 174.604 453.528C176.029 453.528 177.186 453.982 178.074 454.891C178.969 455.792 179.416 457.071 179.416 458.729V469H175.19V459.564C175.19 458.715 174.965 458.079 174.514 457.655C174.063 457.231 173.5 457.018 172.824 457.018C172.055 457.018 171.455 457.264 171.024 457.754C170.593 458.238 170.378 458.878 170.378 459.673V469H166.271V459.474C166.271 458.725 166.056 458.129 165.625 457.685C165.201 457.241 164.641 457.018 163.945 457.018C163.474 457.018 163.05 457.138 162.672 457.376C162.301 457.608 162.006 457.937 161.787 458.361C161.568 458.778 161.459 459.269 161.459 459.832V469H157.223ZM194.482 469.298C192.911 469.298 191.559 468.98 190.425 468.344C189.299 467.701 188.43 466.793 187.82 465.619C187.211 464.439 186.906 463.044 186.906 461.433C186.906 459.862 187.211 458.483 187.82 457.297C188.43 456.11 189.289 455.186 190.396 454.523C191.509 453.86 192.815 453.528 194.313 453.528C195.321 453.528 196.259 453.691 197.127 454.016C198.002 454.334 198.764 454.814 199.414 455.457C200.07 456.1 200.581 456.909 200.945 457.884C201.31 458.851 201.492 459.985 201.492 461.284V462.447H188.596V459.822H197.505C197.505 459.213 197.372 458.672 197.107 458.202C196.842 457.731 196.474 457.363 196.004 457.098C195.54 456.826 194.999 456.69 194.383 456.69C193.74 456.69 193.17 456.839 192.673 457.138C192.182 457.429 191.798 457.824 191.519 458.321C191.241 458.812 191.098 459.358 191.092 459.962V462.457C191.092 463.213 191.231 463.866 191.509 464.416C191.794 464.966 192.195 465.391 192.712 465.689C193.229 465.987 193.843 466.136 194.552 466.136C195.023 466.136 195.453 466.07 195.845 465.938C196.236 465.805 196.57 465.606 196.849 465.341C197.127 465.076 197.339 464.751 197.485 464.366L201.403 464.625C201.204 465.566 200.796 466.388 200.18 467.091C199.57 467.787 198.781 468.33 197.813 468.722C196.852 469.106 195.742 469.298 194.482 469.298ZM213.252 460.17V469H209.016V453.727H213.053V456.422H213.232C213.57 455.534 214.137 454.831 214.933 454.314C215.728 453.79 216.693 453.528 217.826 453.528C218.887 453.528 219.811 453.76 220.6 454.224C221.389 454.688 222.002 455.351 222.44 456.213C222.877 457.068 223.096 458.089 223.096 459.276V469H218.86V460.031C218.867 459.097 218.628 458.367 218.144 457.844C217.66 457.313 216.994 457.048 216.146 457.048C215.576 457.048 215.072 457.171 214.634 457.416C214.203 457.661 213.865 458.019 213.62 458.49C213.381 458.954 213.259 459.514 213.252 460.17ZM239.318 453.727V456.909H230.121V453.727H239.318ZM232.209 450.068H236.444V464.307C236.444 464.698 236.504 465.003 236.623 465.222C236.743 465.434 236.908 465.583 237.121 465.669C237.339 465.755 237.591 465.798 237.876 465.798C238.075 465.798 238.274 465.782 238.473 465.749C238.672 465.709 238.824 465.679 238.93 465.659L239.596 468.811C239.384 468.877 239.086 468.954 238.702 469.04C238.317 469.133 237.85 469.189 237.3 469.209C236.279 469.249 235.384 469.113 234.615 468.801C233.853 468.49 233.259 468.006 232.835 467.349C232.411 466.693 232.202 465.865 232.209 464.864V450.068ZM262.433 469.288C261.458 469.288 260.59 469.119 259.828 468.781C259.065 468.437 258.462 467.929 258.018 467.26C257.581 466.584 257.362 465.742 257.362 464.734C257.362 463.886 257.518 463.173 257.829 462.597C258.141 462.02 258.565 461.556 259.102 461.205C259.639 460.853 260.249 460.588 260.931 460.409C261.621 460.23 262.343 460.104 263.099 460.031C263.987 459.938 264.703 459.852 265.247 459.773C265.79 459.687 266.185 459.561 266.43 459.395C266.675 459.229 266.798 458.984 266.798 458.659V458.599C266.798 457.97 266.599 457.482 266.201 457.138C265.81 456.793 265.253 456.621 264.531 456.621C263.768 456.621 263.162 456.79 262.711 457.128C262.26 457.459 261.962 457.877 261.816 458.381L257.899 458.062C258.098 457.134 258.489 456.332 259.072 455.656C259.655 454.973 260.408 454.45 261.329 454.085C262.257 453.714 263.331 453.528 264.551 453.528C265.399 453.528 266.211 453.628 266.987 453.827C267.769 454.026 268.462 454.334 269.065 454.751C269.675 455.169 270.155 455.706 270.507 456.362C270.858 457.012 271.034 457.791 271.034 458.699V469H267.017V466.882H266.897C266.652 467.359 266.324 467.78 265.913 468.145C265.502 468.503 265.008 468.785 264.431 468.99C263.855 469.189 263.188 469.288 262.433 469.288ZM263.646 466.365C264.269 466.365 264.819 466.242 265.296 465.997C265.774 465.745 266.148 465.407 266.42 464.983C266.692 464.559 266.828 464.078 266.828 463.541V461.92C266.695 462.007 266.513 462.086 266.281 462.159C266.055 462.225 265.8 462.288 265.515 462.348C265.23 462.401 264.945 462.451 264.66 462.497C264.375 462.537 264.117 462.573 263.885 462.607C263.387 462.679 262.953 462.795 262.582 462.955C262.211 463.114 261.922 463.329 261.717 463.601C261.511 463.866 261.409 464.197 261.409 464.595C261.409 465.172 261.617 465.613 262.035 465.918C262.459 466.216 262.996 466.365 263.646 466.365ZM285.961 475.045C284.588 475.045 283.412 474.857 282.431 474.479C281.456 474.107 280.681 473.6 280.104 472.957C279.527 472.314 279.153 471.592 278.98 470.79L282.898 470.263C283.017 470.568 283.206 470.853 283.465 471.118C283.723 471.383 284.065 471.595 284.489 471.754C284.92 471.92 285.444 472.003 286.06 472.003C286.981 472.003 287.74 471.777 288.337 471.327C288.94 470.883 289.242 470.137 289.242 469.089V466.295H289.063C288.877 466.72 288.599 467.121 288.228 467.499C287.856 467.876 287.379 468.185 286.796 468.423C286.212 468.662 285.516 468.781 284.708 468.781C283.561 468.781 282.517 468.516 281.576 467.986C280.641 467.449 279.895 466.63 279.338 465.53C278.788 464.423 278.513 463.024 278.513 461.334C278.513 459.604 278.795 458.159 279.358 456.999C279.922 455.839 280.671 454.97 281.605 454.393C282.547 453.817 283.578 453.528 284.698 453.528C285.553 453.528 286.269 453.674 286.845 453.966C287.422 454.251 287.886 454.609 288.238 455.04C288.595 455.464 288.871 455.882 289.063 456.293H289.222V453.727H293.428V469.149C293.428 470.448 293.11 471.536 292.473 472.411C291.837 473.286 290.955 473.942 289.828 474.379C288.708 474.823 287.419 475.045 285.961 475.045ZM286.05 465.599C286.733 465.599 287.31 465.43 287.78 465.092C288.257 464.748 288.622 464.257 288.874 463.621C289.132 462.978 289.262 462.209 289.262 461.314C289.262 460.419 289.136 459.643 288.884 458.987C288.632 458.324 288.267 457.811 287.79 457.446C287.313 457.081 286.733 456.899 286.05 456.899C285.354 456.899 284.767 457.088 284.29 457.466C283.813 457.837 283.452 458.354 283.206 459.017C282.961 459.68 282.838 460.446 282.838 461.314C282.838 462.196 282.961 462.958 283.206 463.601C283.458 464.237 283.819 464.731 284.29 465.082C284.767 465.427 285.354 465.599 286.05 465.599ZM308.519 469.298C306.948 469.298 305.596 468.98 304.462 468.344C303.335 467.701 302.467 466.793 301.857 465.619C301.247 464.439 300.942 463.044 300.942 461.433C300.942 459.862 301.247 458.483 301.857 457.297C302.467 456.11 303.325 455.186 304.432 454.523C305.546 453.86 306.852 453.528 308.35 453.528C309.357 453.528 310.295 453.691 311.164 454.016C312.039 454.334 312.801 454.814 313.451 455.457C314.107 456.1 314.617 456.909 314.982 457.884C315.347 458.851 315.529 459.985 315.529 461.284V462.447H302.632V459.822H311.542C311.542 459.213 311.409 458.672 311.144 458.202C310.879 457.731 310.511 457.363 310.04 457.098C309.576 456.826 309.036 456.69 308.419 456.69C307.776 456.69 307.206 456.839 306.709 457.138C306.219 457.429 305.834 457.824 305.556 458.321C305.277 458.812 305.135 459.358 305.128 459.962V462.457C305.128 463.213 305.267 463.866 305.546 464.416C305.831 464.966 306.232 465.391 306.749 465.689C307.266 465.987 307.879 466.136 308.588 466.136C309.059 466.136 309.49 466.07 309.881 465.938C310.272 465.805 310.607 465.606 310.885 465.341C311.164 465.076 311.376 464.751 311.522 464.366L315.439 464.625C315.24 465.566 314.833 466.388 314.216 467.091C313.606 467.787 312.818 468.33 311.85 468.722C310.889 469.106 309.778 469.298 308.519 469.298ZM327.289 460.17V469H323.053V453.727H327.09V456.422H327.269C327.607 455.534 328.174 454.831 328.969 454.314C329.765 453.79 330.729 453.528 331.863 453.528C332.923 453.528 333.848 453.76 334.637 454.224C335.426 454.688 336.039 455.351 336.476 456.213C336.914 457.068 337.133 458.089 337.133 459.276V469H332.897V460.031C332.903 459.097 332.665 458.367 332.181 457.844C331.697 457.313 331.031 457.048 330.182 457.048C329.612 457.048 329.108 457.171 328.671 457.416C328.24 457.661 327.902 458.019 327.657 458.49C327.418 458.954 327.295 459.514 327.289 460.17ZM353.355 453.727V456.909H344.157V453.727H353.355ZM346.245 450.068H350.481V464.307C350.481 464.698 350.541 465.003 350.66 465.222C350.779 465.434 350.945 465.583 351.157 465.669C351.376 465.755 351.628 465.798 351.913 465.798C352.112 465.798 352.311 465.782 352.509 465.749C352.708 465.709 352.861 465.679 352.967 465.659L353.633 468.811C353.421 468.877 353.123 468.954 352.738 469.04C352.354 469.133 351.886 469.189 351.336 469.209C350.315 469.249 349.42 469.113 348.651 468.801C347.889 468.49 347.296 468.006 346.872 467.349C346.447 466.693 346.239 465.865 346.245 464.864V450.068ZM374.729 474.727C374.192 474.727 373.689 474.684 373.218 474.598C372.754 474.518 372.369 474.416 372.065 474.29L373.019 471.128C373.516 471.28 373.964 471.363 374.361 471.376C374.766 471.39 375.114 471.297 375.405 471.098C375.704 470.899 375.946 470.561 376.131 470.084L376.38 469.438L370.901 453.727H375.356L378.518 464.943H378.677L381.869 453.727H386.353L380.417 470.651C380.132 471.473 379.744 472.188 379.253 472.798C378.77 473.415 378.156 473.889 377.414 474.22C376.672 474.558 375.777 474.727 374.729 474.727ZM399.689 469.298C398.144 469.298 396.809 468.97 395.682 468.314C394.562 467.651 393.696 466.73 393.087 465.55C392.477 464.363 392.172 462.988 392.172 461.423C392.172 459.846 392.477 458.467 393.087 457.287C393.696 456.1 394.562 455.179 395.682 454.523C396.809 453.86 398.144 453.528 399.689 453.528C401.233 453.528 402.566 453.86 403.686 454.523C404.813 455.179 405.681 456.1 406.291 457.287C406.901 458.467 407.206 459.846 407.206 461.423C407.206 462.988 406.901 464.363 406.291 465.55C405.681 466.73 404.813 467.651 403.686 468.314C402.566 468.97 401.233 469.298 399.689 469.298ZM399.709 466.017C400.411 466.017 400.998 465.818 401.469 465.42C401.939 465.016 402.294 464.466 402.533 463.77C402.778 463.074 402.901 462.282 402.901 461.393C402.901 460.505 402.778 459.713 402.533 459.017C402.294 458.321 401.939 457.771 401.469 457.366C400.998 456.962 400.411 456.76 399.709 456.76C398.999 456.76 398.403 456.962 397.919 457.366C397.442 457.771 397.08 458.321 396.835 459.017C396.597 459.713 396.477 460.505 396.477 461.393C396.477 462.282 396.597 463.074 396.835 463.77C397.08 464.466 397.442 465.016 397.919 465.42C398.403 465.818 398.999 466.017 399.709 466.017ZM424.514 462.497V453.727H428.75V469H424.683V466.226H424.524C424.179 467.121 423.606 467.84 422.804 468.384C422.009 468.927 421.037 469.199 419.891 469.199C418.87 469.199 417.972 468.967 417.196 468.503C416.42 468.039 415.814 467.379 415.376 466.524C414.946 465.669 414.727 464.645 414.72 463.452V453.727H418.956V462.696C418.963 463.598 419.205 464.31 419.682 464.834C420.159 465.357 420.799 465.619 421.601 465.619C422.111 465.619 422.589 465.503 423.033 465.271C423.477 465.033 423.835 464.681 424.107 464.217C424.385 463.753 424.521 463.18 424.514 462.497ZM455.039 469.298C453.475 469.298 452.129 468.967 451.002 468.304C449.882 467.634 449.02 466.706 448.417 465.52C447.82 464.333 447.522 462.968 447.522 461.423C447.522 459.859 447.824 458.487 448.427 457.307C449.037 456.12 449.902 455.196 451.022 454.533C452.142 453.863 453.475 453.528 455.019 453.528C456.352 453.528 457.518 453.77 458.519 454.254C459.52 454.738 460.312 455.418 460.896 456.293C461.479 457.168 461.801 458.195 461.86 459.375H457.863C457.75 458.613 457.452 458 456.968 457.536C456.491 457.065 455.864 456.83 455.089 456.83C454.433 456.83 453.859 457.009 453.369 457.366C452.885 457.718 452.507 458.232 452.235 458.908C451.963 459.584 451.828 460.402 451.828 461.364C451.828 462.338 451.96 463.167 452.225 463.849C452.497 464.532 452.878 465.053 453.369 465.411C453.859 465.768 454.433 465.947 455.089 465.947C455.573 465.947 456.007 465.848 456.391 465.649C456.783 465.45 457.104 465.162 457.356 464.784C457.614 464.4 457.784 463.939 457.863 463.402H461.86C461.794 464.569 461.476 465.596 460.906 466.484C460.342 467.366 459.563 468.055 458.569 468.553C457.575 469.05 456.398 469.298 455.039 469.298ZM473.687 469.288C472.713 469.288 471.845 469.119 471.082 468.781C470.32 468.437 469.717 467.929 469.273 467.26C468.835 466.584 468.616 465.742 468.616 464.734C468.616 463.886 468.772 463.173 469.084 462.597C469.395 462.02 469.819 461.556 470.356 461.205C470.893 460.853 471.503 460.588 472.186 460.409C472.875 460.23 473.598 460.104 474.354 460.031C475.242 459.938 475.958 459.852 476.501 459.773C477.045 459.687 477.439 459.561 477.684 459.395C477.93 459.229 478.052 458.984 478.052 458.659V458.599C478.052 457.97 477.854 457.482 477.456 457.138C477.065 456.793 476.508 456.621 475.785 456.621C475.023 456.621 474.416 456.79 473.966 457.128C473.515 457.459 473.217 457.877 473.071 458.381L469.153 458.062C469.352 457.134 469.743 456.332 470.327 455.656C470.91 454.973 471.662 454.45 472.584 454.085C473.512 453.714 474.586 453.528 475.805 453.528C476.654 453.528 477.466 453.628 478.241 453.827C479.024 454.026 479.716 454.334 480.319 454.751C480.929 455.169 481.41 455.706 481.761 456.362C482.113 457.012 482.288 457.791 482.288 458.699V469H478.271V466.882H478.152C477.907 467.359 477.578 467.78 477.167 468.145C476.756 468.503 476.263 468.785 475.686 468.99C475.109 469.189 474.443 469.288 473.687 469.288ZM474.9 466.365C475.524 466.365 476.074 466.242 476.551 465.997C477.028 465.745 477.403 465.407 477.675 464.983C477.946 464.559 478.082 464.078 478.082 463.541V461.92C477.95 462.007 477.767 462.086 477.535 462.159C477.31 462.225 477.055 462.288 476.77 462.348C476.485 462.401 476.2 462.451 475.915 462.497C475.63 462.537 475.371 462.573 475.139 462.607C474.642 462.679 474.208 462.795 473.836 462.955C473.465 463.114 473.177 463.329 472.971 463.601C472.766 463.866 472.663 464.197 472.663 464.595C472.663 465.172 472.872 465.613 473.29 465.918C473.714 466.216 474.251 466.365 474.9 466.365ZM494.57 460.17V469H490.334V453.727H494.371V456.422H494.55C494.888 455.534 495.455 454.831 496.251 454.314C497.046 453.79 498.011 453.528 499.144 453.528C500.205 453.528 501.129 453.76 501.918 454.224C502.707 454.688 503.32 455.351 503.758 456.213C504.195 457.068 504.414 458.089 504.414 459.276V469H500.178V460.031C500.185 459.097 499.946 458.367 499.462 457.844C498.978 457.313 498.312 457.048 497.464 457.048C496.894 457.048 496.39 457.171 495.952 457.416C495.521 457.661 495.183 458.019 494.938 458.49C494.699 458.954 494.577 459.514 494.57 460.17ZM531.876 453.727V456.909H522.679V453.727H531.876ZM524.767 450.068H529.003V464.307C529.003 464.698 529.063 465.003 529.182 465.222C529.301 465.434 529.467 465.583 529.679 465.669C529.898 465.755 530.15 465.798 530.435 465.798C530.634 465.798 530.832 465.782 531.031 465.749C531.23 465.709 531.383 465.679 531.489 465.659L532.155 468.811C531.943 468.877 531.644 468.954 531.26 469.04C530.875 469.133 530.408 469.189 529.858 469.209C528.837 469.249 527.942 469.113 527.173 468.801C526.411 468.49 525.818 468.006 525.393 467.349C524.969 466.693 524.76 465.865 524.767 464.864V450.068ZM539.396 469V453.727H543.502V456.392H543.661C543.94 455.444 544.407 454.728 545.063 454.244C545.72 453.754 546.475 453.509 547.33 453.509C547.542 453.509 547.771 453.522 548.016 453.548C548.262 453.575 548.477 453.611 548.663 453.658V457.416C548.464 457.357 548.189 457.304 547.837 457.257C547.486 457.211 547.165 457.188 546.873 457.188C546.25 457.188 545.693 457.323 545.202 457.595C544.719 457.86 544.334 458.232 544.049 458.709C543.771 459.186 543.631 459.736 543.631 460.359V469H539.396ZM565.407 462.497V453.727H569.643V469H565.576V466.226H565.417C565.072 467.121 564.499 467.84 563.697 468.384C562.901 468.927 561.93 469.199 560.783 469.199C559.762 469.199 558.864 468.967 558.089 468.503C557.313 468.039 556.706 467.379 556.269 466.524C555.838 465.669 555.619 464.645 555.613 463.452V453.727H559.848V462.696C559.855 463.598 560.097 464.31 560.574 464.834C561.052 465.357 561.691 465.619 562.493 465.619C563.004 465.619 563.481 465.503 563.925 465.271C564.369 465.033 564.727 464.681 564.999 464.217C565.277 463.753 565.413 463.18 565.407 462.497ZM590.498 458.082L586.62 458.321C586.554 457.99 586.411 457.691 586.193 457.426C585.974 457.154 585.686 456.939 585.328 456.78C584.976 456.614 584.555 456.531 584.065 456.531C583.409 456.531 582.855 456.67 582.404 456.949C581.954 457.221 581.728 457.585 581.728 458.043C581.728 458.407 581.874 458.715 582.166 458.967C582.457 459.219 582.958 459.421 583.667 459.574L586.431 460.131C587.916 460.436 589.023 460.926 589.752 461.602C590.481 462.278 590.846 463.167 590.846 464.267C590.846 465.268 590.551 466.146 589.961 466.902C589.378 467.658 588.576 468.248 587.555 468.672C586.541 469.089 585.371 469.298 584.045 469.298C582.023 469.298 580.412 468.877 579.213 468.036C578.019 467.187 577.32 466.034 577.115 464.575L581.281 464.357C581.407 464.973 581.712 465.444 582.196 465.768C582.679 466.087 583.299 466.246 584.055 466.246C584.797 466.246 585.394 466.103 585.845 465.818C586.302 465.527 586.534 465.152 586.541 464.695C586.534 464.31 586.372 463.995 586.053 463.75C585.735 463.498 585.245 463.306 584.582 463.173L581.937 462.646C580.446 462.348 579.335 461.831 578.606 461.095C577.883 460.359 577.522 459.421 577.522 458.281C577.522 457.3 577.787 456.455 578.318 455.746C578.855 455.036 579.607 454.49 580.575 454.105C581.549 453.721 582.689 453.528 583.995 453.528C585.924 453.528 587.442 453.936 588.549 454.751C589.663 455.567 590.312 456.677 590.498 458.082ZM606.397 453.727V456.909H597.199V453.727H606.397ZM599.287 450.068H603.523V464.307C603.523 464.698 603.583 465.003 603.702 465.222C603.822 465.434 603.987 465.583 604.199 465.669C604.418 465.755 604.67 465.798 604.955 465.798C605.154 465.798 605.353 465.782 605.552 465.749C605.751 465.709 605.903 465.679 606.009 465.659L606.675 468.811C606.463 468.877 606.165 468.954 605.78 469.04C605.396 469.133 604.929 469.189 604.378 469.209C603.358 469.249 602.463 469.113 601.694 468.801C600.931 468.49 600.338 468.006 599.914 467.349C599.49 466.693 599.281 465.865 599.287 464.864V450.068Z" fill="#011033"/>
<defs>
<linearGradient id="paint0_linear_211_756" x1="300.327" y1="0" x2="300.327" y2="260.731" gradientUnits="userSpaceOnUse">
<stop offset="0.0717274" stop-color="#004FFF"/>
<stop offset="1"/>
</linearGradient>
<linearGradient id="paint1_linear_211_756" x1="344.5" y1="162" x2="359.33" y2="241.992" gradientUnits="userSpaceOnUse">
<stop offset="0.185001" stop-color="#004FFF"/>
<stop offset="1"/>
</linearGradient>
<linearGradient id="paint2_linear_211_756" x1="317" y1="328.5" x2="316.5" y2="442.001" gradientUnits="userSpaceOnUse">
<stop offset="0.400199" stop-color="#0029FF"/>
<stop offset="0.910416" stop-color="#01030A"/>
</linearGradient>
</defs>
</svg>
