<svg width="398" height="369" viewBox="0 0 398 369" fill="none" xmlns="http://www.w3.org/2000/svg">
<path d="M109.304 322.583C86.2737 319.803 14.6738 301.971 11.8638 262.62C9.05275 223.269 47.4668 200.783 50.2778 186.729C53.0888 172.675 15.3458 142.393 36.0548 98.84C58.5748 51.479 129.917 38.694 169.267 55.559C208.618 72.424 283.287 37.411 320.764 81.446C358.241 125.481 323.86 174.549 336.04 197.035C348.22 219.521 381.185 267.286 339.073 310.312C298.973 351.286 163.646 329.142 109.304 322.583Z" fill="#96E9FF"/>
<path d="M169.268 72.561C230.78 84.693 335.108 35.865 338.51 140.84C339.921 121.928 337.562 101.182 320.765 81.446C283.288 37.41 208.619 72.423 169.268 55.559C129.917 38.694 58.5764 51.479 36.0564 98.84C29.9444 111.693 28.9264 123.389 30.4514 133.855C44.0544 53.252 114.031 61.667 169.268 72.561Z" fill="#82DCF2"/>
<path d="M384.82 188.906C391.741 179.878 391.009 167.697 383.184 161.698C375.36 155.7 363.406 158.156 356.485 167.184C349.564 176.212 350.296 188.393 358.12 194.391C365.945 200.39 377.898 197.934 384.82 188.906Z" fill="#96E9FF"/>
<path d="M22.9363 185.994C24.2992 180.342 20.822 174.655 15.1698 173.292C9.51756 171.929 3.83067 175.406 2.46776 181.058C1.10486 186.71 4.58204 192.397 10.2343 193.76C15.8865 195.123 21.5734 191.646 22.9363 185.994Z" fill="#96E9FF"/>
<path d="M11.3386 135.459C15.3836 135.459 18.6626 132.18 18.6626 128.135C18.6626 124.09 15.3836 120.811 11.3386 120.811C7.29371 120.811 4.01465 124.09 4.01465 128.135C4.01465 132.18 7.29371 135.459 11.3386 135.459Z" fill="#96E9FF"/>
<path d="M104.323 156.889H104.32C103.792 156.813 103.257 156.756 102.719 156.714C102.611 156.705 102.504 156.697 102.395 156.689C101.846 156.653 101.295 156.628 100.737 156.627C100.735 156.627 100.733 156.627 100.731 156.627C97.728 156.627 94.8491 157.16 92.1841 158.135C90.2801 158.832 88.4861 159.755 86.8331 160.872C86.5021 161.095 86.177 161.326 85.858 161.565C85.539 161.804 85.2261 162.05 84.9191 162.303C84.6121 162.556 84.3111 162.817 84.0171 163.084C83.1341 163.887 82.3091 164.752 81.5491 165.672C81.0421 166.286 80.5651 166.924 80.1181 167.586C78.7781 169.57 77.7171 171.757 76.9901 174.092C76.2641 176.427 75.873 178.91 75.873 181.484C75.873 181.911 75.884 182.335 75.905 182.757C75.916 182.983 75.9391 183.207 75.9561 183.431C75.9711 183.625 75.981 183.821 76 184.014C76.031 184.325 76.0741 184.633 76.1171 184.941C76.1311 185.043 76.1411 185.147 76.1561 185.249C76.2121 185.614 76.278 185.976 76.349 186.336C76.357 186.378 76.3631 186.421 76.3721 186.463C78.6781 197.806 88.7071 206.342 100.73 206.342C114.459 206.342 125.588 195.213 125.588 181.484C125.589 168.977 116.349 158.631 104.323 156.889Z" fill="#82DCF2"/>
<path d="M144.766 66.1861H144.764C144.337 66.1241 143.905 66.0791 143.47 66.0441C143.383 66.0371 143.296 66.0301 143.209 66.0241C142.765 65.9951 142.32 65.9741 141.869 65.9741C141.867 65.9741 141.866 65.9741 141.864 65.9741C139.437 65.9741 137.111 66.4041 134.957 67.1931C133.419 67.7561 131.968 68.5021 130.632 69.4051C130.365 69.5861 130.102 69.7721 129.844 69.9651C129.586 70.1581 129.333 70.3571 129.085 70.5611C128.837 70.7661 128.594 70.9761 128.356 71.1931C127.642 71.8411 126.976 72.5411 126.362 73.2851C125.953 73.7811 125.566 74.2971 125.205 74.8321C124.122 76.4351 123.264 78.2031 122.677 80.0901C122.09 81.9771 121.774 83.9841 121.774 86.0641C121.774 86.4091 121.783 86.7521 121.8 87.0931C121.809 87.2761 121.827 87.4561 121.841 87.6381C121.853 87.7951 121.861 87.9531 121.877 88.1091C121.902 88.3601 121.937 88.6091 121.972 88.8581C121.984 88.9411 121.991 89.0241 122.004 89.1071C122.049 89.4021 122.102 89.6951 122.16 89.9861C122.167 90.0201 122.171 90.0551 122.178 90.0891C124.042 99.2561 132.147 106.154 141.863 106.154C152.958 106.154 161.952 97.1601 161.952 86.0651C161.952 75.9551 154.485 67.5931 144.766 66.1861Z" fill="#82DCF2"/>
<path d="M125.275 171.07C127.436 157.513 118.197 144.771 104.64 142.61C91.0831 140.449 78.3411 149.687 76.1802 163.244C74.0193 176.802 83.2578 189.544 96.8149 191.704C110.372 193.865 123.114 184.627 125.275 171.07Z" fill="#FFC200"/>
<path d="M100.731 150.099C111.601 150.099 120.523 158.421 121.484 169.041C121.541 168.415 121.574 167.782 121.574 167.141C121.574 155.63 112.242 146.298 100.731 146.298C89.2197 146.298 79.8877 155.63 79.8877 167.141C79.8877 167.782 79.9207 168.415 79.9777 169.041C80.9387 158.422 89.8607 150.099 100.731 150.099Z" fill="#FFA100"/>
<path d="M100.731 146.718C111.993 146.718 121.155 155.88 121.155 167.142C121.155 178.404 111.993 187.565 100.731 187.565C89.469 187.565 80.308 178.403 80.308 167.142C80.308 155.88 89.47 146.718 100.731 146.718ZM100.731 142.284C87.002 142.284 75.873 153.413 75.873 167.142C75.873 180.871 87.002 192 100.731 192C114.46 192 125.589 180.871 125.589 167.142C125.589 153.413 114.46 142.284 100.731 142.284Z" fill="#FFE450"/>
<path d="M100.731 146.718V142.284C87.002 142.284 75.873 153.413 75.873 167.142H80.3071C80.3081 155.88 89.47 146.718 100.731 146.718Z" fill="#FAF582"/>
<g opacity="0.25">
<path d="M105.364 181.336L95.9658 168.6H98.9528C102.157 168.6 104.84 166.34 105.499 163.33H106.865L108.202 160.511H105.512C105.319 159.593 104.934 158.747 104.406 158.009H106.865L108.202 155.19H94.5968L93.2598 158.009H98.9518C100.607 158.009 102.02 159.051 102.579 160.511H94.5968L93.2598 163.33H102.56C101.988 164.764 100.588 165.781 98.9518 165.781H93.2598V169.681L101.859 181.336H105.364Z" fill="black"/>
</g>
<path d="M105.364 179.726L95.9658 166.99H98.9528C102.157 166.99 104.84 164.729 105.499 161.72H106.865L108.202 158.901H105.512C105.319 157.983 104.934 157.137 104.406 156.399H106.865L108.202 153.58H94.5968L93.2598 156.399H98.9518C100.607 156.399 102.02 157.441 102.579 158.901H94.5968L93.2598 161.72H102.56C101.988 163.154 100.588 164.171 98.9518 164.171H93.2598V168.071L101.859 179.726H105.364Z" fill="#FFE450"/>
<path opacity="0.2" d="M100.731 142.284C87.002 142.284 75.873 153.413 75.873 167.142C75.873 170.551 76.561 173.799 77.802 176.756C79.558 177.169 81.3871 177.395 83.2691 177.395C96.4051 177.395 107.053 166.746 107.053 153.611C107.053 149.615 106.063 145.852 104.322 142.546C103.15 142.376 101.952 142.284 100.731 142.284Z" fill="white"/>
<path d="M160.659 82.1304C162.275 72.1126 155.465 62.6812 145.447 61.0646C135.429 59.4481 125.998 66.2587 124.381 76.2765C122.765 86.2943 129.575 95.7257 139.593 97.3423C149.611 98.9588 159.042 92.1482 160.659 82.1304Z" fill="#FFC200"/>
<path d="M142.519 66.5951C150.554 66.5951 157.149 72.7471 157.859 80.5971C157.901 80.1341 157.926 79.6661 157.926 79.1921C157.926 70.6831 151.028 63.7861 142.519 63.7861C134.01 63.7861 127.112 70.6841 127.112 79.1921C127.112 79.6661 127.137 80.1341 127.179 80.5971C127.889 72.7471 134.484 66.5951 142.519 66.5951Z" fill="#FFA100"/>
<path d="M142.519 64.0961C150.843 64.0961 157.616 70.8681 157.616 79.1931C157.616 87.5181 150.844 94.2901 142.519 94.2901C134.194 94.2901 127.422 87.5181 127.422 79.1931C127.422 70.8681 134.195 64.0961 142.519 64.0961ZM142.519 60.8181C132.371 60.8181 124.145 69.0441 124.145 79.1921C124.145 89.3401 132.372 97.5661 142.519 97.5661C152.667 97.5661 160.893 89.3391 160.893 79.1921C160.893 69.0451 152.667 60.8181 142.519 60.8181Z" fill="#FFE450"/>
<path d="M142.519 64.0961V60.8181C132.371 60.8181 124.145 69.0441 124.145 79.1921H127.423C127.422 70.8681 134.195 64.0961 142.519 64.0961Z" fill="#FAF582"/>
<g opacity="0.25">
<path d="M145.943 89.6852L138.996 80.2711H141.204C143.573 80.2711 145.556 78.6002 146.043 76.3762H147.053L148.041 74.2922H146.052C145.909 73.6142 145.624 72.9882 145.234 72.4422H147.052L148.04 70.3582H137.983L136.995 72.4422H141.203C142.426 72.4422 143.471 73.2122 143.884 74.2922H137.984L136.996 76.3762H143.871C143.448 77.4362 142.413 78.1882 141.204 78.1882H136.996V81.0712L143.353 89.6862H145.943V89.6852Z" fill="black"/>
</g>
<path d="M145.943 88.494L138.996 79.08H141.204C143.573 79.08 145.556 77.409 146.043 75.185H147.053L148.041 73.101H146.052C145.909 72.423 145.624 71.797 145.234 71.251H147.052L148.04 69.167H137.983L136.995 71.251H141.203C142.426 71.251 143.471 72.021 143.884 73.101H137.984L136.996 75.185H143.871C143.448 76.245 142.413 76.997 141.204 76.997H136.996V79.88L143.353 88.495L145.943 88.494Z" fill="#FFE450"/>
<path opacity="0.2" d="M142.519 60.8181C132.371 60.8181 124.145 69.0441 124.145 79.1921C124.145 81.7121 124.653 84.1131 125.571 86.2991C126.869 86.6051 128.221 86.7711 129.612 86.7711C139.322 86.7711 147.193 78.9001 147.193 69.1901C147.193 66.2361 146.461 63.4551 145.174 61.0111C144.307 60.8861 143.421 60.8181 142.519 60.8181Z" fill="white"/>
<path d="M44.3877 272.304V325.86L190.647 254.84V201.284L44.3877 272.304Z" fill="#00CCFF"/>
<path d="M288.41 112.907H244.204V212.37H288.41V112.907Z" fill="#00BFEA"/>
<path d="M315.056 78.2981L244.247 112.681V166.238L315.056 131.855V78.2981Z" fill="#00CCFF"/>
<path d="M249.517 176.07C238.533 184.061 246.636 189.9 253.522 199.364C260.408 208.829 263.47 218.335 274.453 210.344C285.437 202.353 292.567 185.431 285.681 175.966C278.795 166.502 260.5 168.079 249.517 176.07Z" fill="#32AE95"/>
<path d="M257.507 180.749C250.921 185.541 255.78 189.042 259.909 194.717C264.038 200.392 265.874 206.093 272.46 201.301C279.046 196.509 283.321 186.363 279.192 180.688C275.063 175.012 264.093 175.957 257.507 180.749Z" fill="#169584"/>
<path d="M255.642 349.72C256.47 339.126 218.543 327.521 170.93 323.801C123.317 320.081 84.0484 325.653 83.2206 336.248C82.3927 346.843 120.319 358.447 167.932 362.167C215.545 365.888 254.814 360.315 255.642 349.72Z" fill="#BFE5EB"/>
<path d="M237.793 314.395C237.793 331.269 229.649 350.954 219.602 350.954C209.555 350.954 201.411 331.27 201.411 314.395C201.411 297.521 209.555 283.841 219.602 283.841C229.649 283.841 237.793 297.521 237.793 314.395Z" fill="#32AE95"/>
<path d="M216.264 320.879C216.264 337.753 208.12 357.438 198.073 357.438C188.026 357.438 179.882 337.754 179.882 320.879C179.882 304.005 188.026 290.325 198.073 290.325C208.12 290.325 216.264 304.005 216.264 320.879Z" fill="#4DC7A4"/>
<path d="M131.695 305.433C131.695 322.307 123.551 341.992 113.504 341.992C103.457 341.992 95.3135 322.308 95.3135 305.433C95.3135 288.559 103.457 274.879 113.504 274.879C123.551 274.879 131.695 288.559 131.695 305.433Z" fill="#4DC7A4"/>
<path d="M156.194 306.079C156.194 322.953 148.05 342.638 138.003 342.638C127.956 342.638 119.812 322.954 119.812 306.079C119.812 289.205 127.956 275.525 138.003 275.525C148.05 275.525 156.194 289.205 156.194 306.079Z" fill="#32AE95"/>
<path d="M184.427 348.732C245.219 348.732 294.501 305.703 294.501 252.623C294.501 199.544 245.219 156.514 184.427 156.514C123.636 156.514 74.3545 199.544 74.3545 252.623C74.3545 305.703 123.636 348.732 184.427 348.732Z" fill="#4DC7A4"/>
<path d="M232.185 173.299C215.702 164.705 189.876 157.742 169.283 157.742L161.199 161.971C181.681 161.971 207.408 168.882 223.832 177.389C227.03 175.606 228.926 174.967 232.185 173.299Z" fill="#169584"/>
<path d="M229.612 233.369H229.536C227.816 233.369 226.401 232.144 225.988 230.475C224.688 225.219 219.933 221.311 214.281 221.311C208.629 221.311 203.873 225.219 202.573 230.475C202.16 232.145 200.745 233.369 199.025 233.369H198.949C196.607 233.369 194.877 231.177 195.417 228.898C197.441 220.358 205.131 213.986 214.281 213.986C223.43 213.986 231.12 220.358 233.144 228.898C233.684 231.177 231.955 233.369 229.612 233.369Z" fill="#169584"/>
<path d="M189.334 176.07C200.318 184.061 192.215 189.9 185.328 199.364C178.442 208.829 175.38 218.335 164.397 210.344C153.414 202.353 146.283 185.431 153.169 175.966C160.056 166.502 178.351 168.079 189.334 176.07Z" fill="#32AE95"/>
<path d="M188.889 183.939C196.248 189.293 190.819 193.205 186.205 199.546C181.591 205.887 179.54 212.257 172.181 206.903C164.822 201.549 160.046 190.211 164.66 183.87C169.273 177.529 181.53 178.585 188.889 183.939Z" fill="#169584"/>
<path d="M209.771 279.181C209.771 279.181 209.95 273.149 216.522 275.339C223.094 277.53 224.018 304.51 260.701 303.818" stroke="#169584" stroke-width="3.365" stroke-miterlimit="10" stroke-linecap="round"/>
<path d="M322.55 264.132C325.134 236.497 308.056 212.303 284.405 210.091C260.754 207.88 239.486 228.489 236.902 256.123C234.318 283.757 251.397 307.952 275.048 310.163C298.699 312.375 319.966 291.766 322.55 264.132Z" fill="#32AE95"/>
<path d="M314.062 263.337C316.134 241.18 306.494 222.16 292.531 220.855C278.568 219.549 265.57 236.452 263.498 258.609C261.427 280.766 271.066 299.787 285.029 301.092C298.992 302.398 311.99 285.494 314.062 263.337Z" fill="#169584"/>
<path d="M283.731 255.96C282.986 263.926 280.256 270.185 277.632 269.94C275.008 269.695 273.485 263.038 274.229 255.072C274.974 247.106 277.704 240.847 280.328 241.092C282.952 241.337 284.475 247.994 283.731 255.96Z" fill="#295D5E"/>
<path d="M301.354 252.785C300.609 260.751 297.879 267.01 295.255 266.765C292.631 266.52 291.108 259.863 291.852 251.897C292.597 243.931 295.327 237.672 297.951 237.917C300.575 238.162 302.098 244.818 301.354 252.785Z" fill="#295D5E"/>
<mask id="mask0_207_761" style="mask-type:luminance" maskUnits="userSpaceOnUse" x="161" y="76" width="98" height="102">
<path d="M258.313 111.398C241.83 102.804 189.876 76.418 169.282 76.418L161.198 161.971C181.68 161.971 207.407 168.882 223.831 177.389C227.03 175.606 255.055 113.066 258.313 111.398Z" fill="white"/>
</mask>
<g mask="url(#mask0_207_761)">
<path d="M227.521 160.618C241.801 146.338 241.801 123.185 227.521 108.905C213.241 94.625 190.088 94.625 175.808 108.905C161.528 123.185 161.528 146.338 175.808 160.618C190.088 174.898 213.241 174.898 227.521 160.618Z" fill="#FFC200"/>
<path d="M201.668 109.692C217.658 109.692 230.783 121.935 232.196 137.557C232.279 136.636 232.329 135.704 232.329 134.761C232.329 117.828 218.602 104.1 201.668 104.1C184.735 104.1 171.008 117.827 171.008 134.761C171.008 135.704 171.057 136.635 171.14 137.557C172.553 121.935 185.678 109.692 201.668 109.692Z" fill="#FFA100"/>
<path d="M201.668 104.717C218.234 104.717 231.712 118.195 231.712 134.761C231.712 151.327 218.234 164.805 201.668 164.805C185.102 164.805 171.624 151.327 171.624 134.761C171.624 118.195 185.102 104.717 201.668 104.717ZM201.668 98.1948C181.473 98.1948 165.101 114.566 165.101 134.762C165.101 154.958 181.472 171.329 201.668 171.329C221.863 171.329 238.235 154.957 238.235 134.762C238.235 114.567 221.864 98.1948 201.668 98.1948Z" fill="#FFE450"/>
<path d="M201.668 104.717V98.1938C181.473 98.1938 165.101 114.566 165.101 134.761H171.624C171.624 118.195 185.102 104.717 201.668 104.717Z" fill="#FAF582"/>
<g opacity="0.25">
<path d="M208.483 155.642L194.658 136.907H199.052C203.766 136.907 207.712 133.582 208.682 129.155H210.692L212.659 125.009H208.702C208.418 123.659 207.851 122.414 207.075 121.328H210.692L212.659 117.182H192.646L190.679 121.328H199.053C201.487 121.328 203.566 122.86 204.388 125.009H192.646L190.679 129.155H204.36C203.518 131.264 201.459 132.76 199.052 132.76H190.678V138.498L203.328 155.642H208.483Z" fill="black"/>
</g>
<path d="M208.483 153.273L194.658 134.538H199.052C203.766 134.538 207.712 131.213 208.682 126.786H210.692L212.659 122.64H208.702C208.418 121.29 207.851 120.045 207.075 118.959H210.692L212.659 114.813H192.646L190.679 118.959H199.053C201.487 118.959 203.566 120.491 204.388 122.64H192.646L190.679 126.786H204.36C203.518 128.895 201.459 130.391 199.052 130.391H190.678V136.129L203.328 153.273H208.483Z" fill="#FFE450"/>
<path opacity="0.2" d="M201.668 98.1948C181.473 98.1948 165.101 114.567 165.101 134.762C165.101 139.776 166.112 144.554 167.939 148.905C170.523 149.513 173.213 149.845 175.982 149.845C195.305 149.845 210.97 134.18 210.97 114.857C210.97 108.979 209.514 103.443 206.952 98.5798C205.227 98.3298 203.464 98.1948 201.668 98.1948Z" fill="white"/>
</g>
<path d="M374.462 86.6479L295.11 67.0959L317.853 145.593L374.462 86.6479Z" fill="#00CCFF"/>
<path d="M134.392 300.5L112.858 262.725L119.755 264.642C127.154 266.698 133.378 262.786 134.94 255.709L138.095 256.586L141.219 250.418L135.007 248.691C134.572 246.279 133.694 243.923 132.486 241.744L138.164 243.322L141.289 237.155L109.874 228.424L106.75 234.592L119.894 238.245C123.715 239.307 126.964 242.81 128.236 246.81L109.805 241.687L106.681 247.854L128.156 253.823C126.816 257.029 123.57 258.666 119.793 257.616L106.649 253.963L106.598 263.684L126.302 298.251L134.392 300.5Z" fill="#169584"/>
<path d="M191.485 68.894C195.322 87.27 211.609 101.076 231.125 101.076C250.641 101.076 266.929 87.271 270.766 68.894H191.485Z" fill="#82DCF2"/>
<path d="M260.006 72.3369C271.775 55.9261 268.013 33.0811 251.602 21.3113C235.192 9.54138 212.347 13.3036 200.577 29.7144C188.807 46.1251 192.569 68.9701 208.98 80.74C225.391 92.5098 248.236 88.7476 260.006 72.3369Z" fill="#FFC200"/>
<path d="M230.301 25.9631C246.291 25.9631 259.416 38.2061 260.829 53.8281C260.912 52.9071 260.961 51.9751 260.961 51.0321C260.961 34.0991 247.234 20.3721 230.301 20.3721C213.368 20.3721 199.641 34.0991 199.641 51.0321C199.641 51.9751 199.69 52.9061 199.773 53.8281C201.186 38.2061 214.31 25.9631 230.301 25.9631Z" fill="#FFA100"/>
<path d="M230.3 20.9891C246.866 20.9891 260.344 34.4671 260.344 51.0331C260.344 67.5991 246.866 81.0771 230.3 81.0771C213.734 81.0771 200.256 67.5991 200.256 51.0331C200.256 34.4671 213.733 20.9891 230.3 20.9891ZM230.3 14.4661C210.105 14.4661 193.733 30.8371 193.733 51.0331C193.733 71.2281 210.105 87.6001 230.3 87.6001C250.495 87.6001 266.867 71.2291 266.867 51.0331C266.866 30.8371 250.495 14.4661 230.3 14.4661Z" fill="#FFE450"/>
<path d="M230.3 20.9891V14.4661C210.105 14.4661 193.733 30.8371 193.733 51.0331H200.256C200.256 34.4661 213.733 20.9891 230.3 20.9891Z" fill="#FAF582"/>
<g opacity="0.25">
<path d="M237.115 71.9131L223.29 53.1781H227.684C232.398 53.1781 236.344 49.8531 237.314 45.4261H239.324L241.291 41.2801H237.334C237.05 39.9301 236.483 38.6851 235.707 37.5991H239.325L241.292 33.4531H221.279L219.312 37.5991H227.685C230.12 37.5991 232.198 39.1311 233.02 41.2801H221.278L219.311 45.4261H232.992C232.15 47.5351 230.091 49.0311 227.684 49.0311H219.311V54.7691L231.961 71.9131H237.115Z" fill="black"/>
</g>
<path d="M237.115 69.545L223.29 50.81H227.684C232.398 50.81 236.344 47.485 237.314 43.058H239.324L241.291 38.912H237.334C237.05 37.562 236.483 36.317 235.707 35.231H239.325L241.292 31.085H221.279L219.312 35.231H227.685C230.12 35.231 232.198 36.763 233.02 38.912H221.278L219.311 43.058H232.992C232.15 45.167 230.091 46.663 227.684 46.663H219.311V52.401L231.961 69.545H237.115Z" fill="#FFE450"/>
<path opacity="0.2" d="M230.3 14.4661C210.105 14.4661 193.733 30.8371 193.733 51.0331C193.733 56.0481 194.744 60.8251 196.571 65.1761C199.154 65.7841 201.845 66.1161 204.614 66.1161C223.937 66.1161 239.602 50.4521 239.602 31.1281C239.602 25.2501 238.146 19.7141 235.584 14.8511C233.858 14.6011 232.095 14.4661 230.3 14.4661Z" fill="white"/>
</svg>
