<svg width="71" height="70" viewBox="0 0 71 70" fill="none" xmlns="http://www.w3.org/2000/svg">
<ellipse cx="35.3607" cy="34.9242" rx="35.3607" ry="34.9242" fill="#F4F6FB"/>
<path d="M28.5214 34.2524H42.491C42.7998 34.2524 43.0959 34.105 43.3142 33.8426C43.5325 33.5802 43.6552 33.2243 43.6552 32.8532V24.4579C43.6552 24.0868 43.5325 23.731 43.3142 23.4686C43.0959 23.2062 42.7998 23.0587 42.491 23.0587H28.5214C28.2126 23.0587 27.9165 23.2062 27.6982 23.4686C27.4799 23.731 27.3572 24.0868 27.3572 24.4579V32.8532C27.3572 33.2243 27.4799 33.5802 27.6982 33.8426C27.9165 34.105 28.2126 34.2524 28.5214 34.2524ZM29.6855 25.8571H41.3269V31.454H29.6855V25.8571ZM45.9835 17.4619H25.029C24.4115 17.4619 23.8193 17.7567 23.3826 18.2815C22.946 18.8064 22.7007 19.5181 22.7007 20.2603V51.0428C22.7007 51.785 22.946 52.4968 23.3826 53.0216C23.8193 53.5464 24.4115 53.8413 25.029 53.8413H45.9835C46.601 53.8413 47.1932 53.5464 47.6298 53.0216C48.0664 52.4968 48.3117 51.785 48.3117 51.0428V20.2603C48.3117 19.5181 48.0664 18.8064 47.6298 18.2815C47.1932 17.7567 46.601 17.4619 45.9835 17.4619ZM45.9835 51.0428H25.029V20.2603H45.9835V51.0428ZM31.4317 39.1496C31.4317 39.5647 31.3293 39.9705 31.1374 40.3156C30.9456 40.6608 30.6728 40.9298 30.3538 41.0886C30.0347 41.2475 29.6836 41.2891 29.3448 41.2081C29.0061 41.1271 28.695 40.9272 28.4508 40.6337C28.2065 40.3402 28.0402 39.9662 27.9729 39.5591C27.9055 39.1519 27.9401 38.7299 28.0722 38.3464C28.2044 37.9629 28.4282 37.6351 28.7154 37.4045C29.0025 37.1739 29.3401 37.0508 29.6855 37.0508C30.1486 37.0508 30.5928 37.2719 30.9203 37.6655C31.2478 38.0591 31.4317 38.593 31.4317 39.1496ZM37.2524 39.1496C37.2524 39.5647 37.15 39.9705 36.9581 40.3156C36.7663 40.6608 36.4935 40.9298 36.1745 41.0886C35.8554 41.2475 35.5043 41.2891 35.1655 41.2081C34.8268 41.1271 34.5157 40.9272 34.2715 40.6337C34.0272 40.3402 33.8609 39.9662 33.7936 39.5591C33.7262 39.1519 33.7608 38.7299 33.8929 38.3464C34.0251 37.9629 34.2489 37.6351 34.5361 37.4045C34.8232 37.1739 35.1608 37.0508 35.5062 37.0508C35.9693 37.0508 36.4135 37.2719 36.741 37.6655C37.0684 38.0591 37.2524 38.593 37.2524 39.1496ZM43.0731 39.1496C43.0731 39.5647 42.9707 39.9705 42.7788 40.3156C42.5869 40.6608 42.3142 40.9298 41.9952 41.0886C41.6761 41.2475 41.325 41.2891 40.9862 41.2081C40.6475 41.1271 40.3364 40.9272 40.0922 40.6337C39.8479 40.3402 39.6816 39.9662 39.6143 39.5591C39.5469 39.1519 39.5815 38.7299 39.7136 38.3464C39.8458 37.9629 40.0696 37.6351 40.3568 37.4045C40.6439 37.1739 40.9815 37.0508 41.3269 37.0508C41.79 37.0508 42.2342 37.2719 42.5617 37.6655C42.8891 38.0591 43.0731 38.593 43.0731 39.1496ZM31.4317 46.1456C31.4317 46.5607 31.3293 46.9665 31.1374 47.3117C30.9456 47.6568 30.6728 47.9258 30.3538 48.0847C30.0347 48.2435 29.6836 48.2851 29.3448 48.2041C29.0061 48.1231 28.695 47.9232 28.4508 47.6297C28.2065 47.3362 28.0402 46.9622 27.9729 46.5551C27.9055 46.148 27.9401 45.726 28.0722 45.3424C28.2044 44.9589 28.4282 44.6312 28.7154 44.4005C29.0025 44.1699 29.3401 44.0468 29.6855 44.0468C30.1486 44.0468 30.5928 44.2679 30.9203 44.6615C31.2478 45.0551 31.4317 45.589 31.4317 46.1456ZM37.2524 46.1456C37.2524 46.5607 37.15 46.9665 36.9581 47.3117C36.7663 47.6568 36.4935 47.9258 36.1745 48.0847C35.8554 48.2435 35.5043 48.2851 35.1655 48.2041C34.8268 48.1231 34.5157 47.9232 34.2715 47.6297C34.0272 47.3362 33.8609 46.9622 33.7936 46.5551C33.7262 46.148 33.7608 45.726 33.8929 45.3424C34.0251 44.9589 34.2489 44.6312 34.5361 44.4005C34.8232 44.1699 35.1608 44.0468 35.5062 44.0468C35.9693 44.0468 36.4135 44.2679 36.741 44.6615C37.0684 45.0551 37.2524 45.589 37.2524 46.1456ZM43.0731 46.1456C43.0731 46.5607 42.9707 46.9665 42.7788 47.3117C42.5869 47.6568 42.3142 47.9258 41.9952 48.0847C41.6761 48.2435 41.325 48.2851 40.9862 48.2041C40.6475 48.1231 40.3364 47.9232 40.0922 47.6297C39.8479 47.3362 39.6816 46.9622 39.6143 46.5551C39.5469 46.148 39.5815 45.726 39.7136 45.3424C39.8458 44.9589 40.0696 44.6312 40.3568 44.4005C40.6439 44.1699 40.9815 44.0468 41.3269 44.0468C41.79 44.0468 42.2342 44.2679 42.5617 44.6615C42.8891 45.0551 43.0731 45.589 43.0731 46.1456Z" fill="#3777FA"/>
</svg>
