<svg width="500" height="372" viewBox="0 0 500 372" fill="none" xmlns="http://www.w3.org/2000/svg">
<path d="M449.82 346.559H416.704V346.811H449.82V346.559Z" fill="#EBEBEB"/>
<path d="M331.161 349.296H322.47V349.548H331.161V349.296Z" fill="#EBEBEB"/>
<path d="M415.703 337.191H396.515V337.443H415.703V337.191Z" fill="#EBEBEB"/>
<path d="M95.6344 338.886H52.4492V339.138H95.6344V338.886Z" fill="#EBEBEB"/>
<path d="M110.869 338.886H104.537V339.138H110.869V338.886Z" fill="#EBEBEB"/>
<path d="M225.106 343.146H131.447V343.398H225.106V343.146Z" fill="#EBEBEB"/>
<path d="M236.971 285.332H43.9072C40.7607 285.332 38.2002 282.748 38.2002 279.574V5.75812C38.2002 2.58349 40.7607 0 43.9072 0H236.971C240.117 0 242.677 2.58349 242.677 5.75812V279.574C242.677 282.748 240.117 285.332 236.971 285.332ZM43.9072 0.253203C40.8977 0.253203 38.4502 2.7227 38.4502 5.75913V279.575C38.4502 282.611 40.8977 285.08 43.9072 285.08H236.971C239.98 285.08 242.427 282.611 242.427 279.575V5.75812C242.427 2.7227 239.98 0.252195 236.971 0.252195L43.9072 0.253203Z" fill="#EBEBEB"/>
<path d="M453.228 285.332H260.165C257.019 285.332 254.459 282.748 254.459 279.574V5.75812C254.459 2.58349 257.02 0 260.165 0H453.228C456.376 0 458.935 2.58349 458.935 5.75812V279.574C458.936 282.748 456.376 285.332 453.228 285.332ZM260.165 0.253203C257.156 0.253203 254.709 2.7227 254.709 5.75913V279.575C254.709 282.611 257.156 285.08 260.165 285.08H453.228C456.238 285.08 458.685 282.611 458.685 279.575V5.75812C458.685 2.7227 456.238 0.252195 453.228 0.252195L260.165 0.253203Z" fill="#EBEBEB"/>
<path d="M499.91 330.321H0V330.573H499.91V330.321Z" fill="#EBEBEB"/>
<path d="M374.003 227.146V330.942H380.731H419.83H426.557V227.146H374.003Z" fill="#EBEBEB"/>
<path d="M384.095 214.333V237.33H388.239H412.321H416.465V214.333H384.095Z" fill="#EBEBEB"/>
<path d="M384.096 230.541H377.367V237.33H384.096V230.541Z" fill="#FAFAFA"/>
<path d="M397.129 230.541H390.4V237.33H397.129V230.541Z" fill="#FAFAFA"/>
<path d="M410.161 230.541H403.433V237.33H410.161V230.541Z" fill="#FAFAFA"/>
<path d="M423.194 230.541H416.465V237.33H423.194V230.541Z" fill="#F0F0F0"/>
<path d="M384.096 242.876H377.367V249.665H384.096V242.876Z" fill="#F0F0F0"/>
<path d="M397.129 242.876H390.4V249.665H397.129V242.876Z" fill="#F0F0F0"/>
<path d="M410.161 242.876H403.433V249.665H410.161V242.876Z" fill="#FAFAFA"/>
<path d="M423.194 242.876H416.465V249.665H423.194V242.876Z" fill="#FAFAFA"/>
<path d="M384.096 255.211H377.367V262H384.096V255.211Z" fill="#F0F0F0"/>
<path d="M397.129 255.211H390.4V262H397.129V255.211Z" fill="#FAFAFA"/>
<path d="M410.161 255.211H403.433V262H410.161V255.211Z" fill="#FAFAFA"/>
<path d="M397.129 219.879H390.4V226.668H397.129V219.879Z" fill="#FAFAFA"/>
<path d="M410.161 219.879H403.433V226.668H410.161V219.879Z" fill="#F0F0F0"/>
<path d="M423.194 255.211H416.465V262H423.194V255.211Z" fill="#F0F0F0"/>
<path d="M384.096 267.546H377.367V274.335H384.096V267.546Z" fill="#FAFAFA"/>
<path d="M397.129 267.546H390.4V274.335H397.129V267.546Z" fill="#F0F0F0"/>
<path d="M410.161 267.546H403.433V274.335H410.161V267.546Z" fill="#F0F0F0"/>
<path d="M423.194 267.546H416.465V274.335H423.194V267.546Z" fill="#FAFAFA"/>
<path d="M384.096 279.881H377.367V286.67H384.096V279.881Z" fill="#F0F0F0"/>
<path d="M397.129 279.881H390.4V286.67H397.129V279.881Z" fill="#FAFAFA"/>
<path d="M410.161 279.881H403.433V286.67H410.161V279.881Z" fill="#FAFAFA"/>
<path d="M423.194 279.881H416.465V286.67H423.194V279.881Z" fill="#F0F0F0"/>
<path d="M384.096 292.216H377.367V299.005H384.096V292.216Z" fill="#F0F0F0"/>
<path d="M397.129 292.216H390.4V299.005H397.129V292.216Z" fill="#FAFAFA"/>
<path d="M410.161 292.216H403.433V299.005H410.161V292.216Z" fill="#F0F0F0"/>
<path d="M423.194 292.216H416.465V299.005H423.194V292.216Z" fill="#FAFAFA"/>
<path d="M384.096 304.551H377.367V311.34H384.096V304.551Z" fill="#FAFAFA"/>
<path d="M397.129 304.551H390.4V311.34H397.129V304.551Z" fill="#FAFAFA"/>
<path d="M410.161 304.551H403.433V311.34H410.161V304.551Z" fill="#F0F0F0"/>
<path d="M423.194 304.551H416.465V311.34H423.194V304.551Z" fill="#F0F0F0"/>
<path d="M384.096 316.886H377.367V323.675H384.096V316.886Z" fill="#F0F0F0"/>
<path d="M423.194 316.886H416.465V323.675H423.194V316.886Z" fill="#FAFAFA"/>
<path d="M410.161 316.886H390.4V318.832H391.2V330.942H393.129V318.832H407.432V330.942H409.362V318.832H410.161V316.886Z" fill="#F5F5F5"/>
<path d="M400.281 318.832H393.129V330.942H400.281V318.832Z" fill="#E6E6E6"/>
<path d="M407.432 318.832H400.28V330.942H407.432V318.832Z" fill="#EBEBEB"/>
<path d="M66.9336 227.146V330.942H73.6614H112.76H119.489V227.146H66.9336Z" fill="#F5F5F5"/>
<path d="M70.2979 230.541V242.876V246.27V249.664H77.0256V246.27V242.876V230.541H70.2979Z" fill="#E6E6E6"/>
<path d="M83.3311 230.541V242.876V246.27V249.664H90.0598V246.27V242.876V230.541H83.3311Z" fill="#F0F0F0"/>
<path d="M96.3633 230.541V242.876V246.27V249.664H103.092V246.27V242.876V230.541H96.3633Z" fill="#E6E6E6"/>
<path d="M109.396 230.541V242.876V248.122V249.664H116.124V248.122V242.876V230.541H109.396Z" fill="#F0F0F0"/>
<path d="M70.2979 255.211V267.546V270.94V274.335H77.0256V270.94V267.546V255.211H70.2979Z" fill="#F0F0F0"/>
<path d="M83.3311 255.211V267.546V272.333V274.335H90.0598V272.333V267.546V255.211H83.3311Z" fill="#F0F0F0"/>
<path d="M96.3633 255.211V267.546V270.94V274.335H103.092V270.94V267.546V255.211H96.3633Z" fill="#E6E6E6"/>
<path d="M109.396 255.211V267.546V270.94V274.335H116.124V270.94V267.546V255.211H109.396Z" fill="#F0F0F0"/>
<path d="M70.2979 279.881V292.216V295.61V299.005H77.0256V295.61V292.216V279.881H70.2979Z" fill="#E6E6E6"/>
<path d="M83.3311 279.881V292.216V295.61V299.005H90.0598V295.61V292.216V279.881H83.3311Z" fill="#F0F0F0"/>
<path d="M96.3633 279.881V292.216V295.61V299.005H103.092V295.61V292.216V279.881H96.3633Z" fill="#F0F0F0"/>
<path d="M109.396 279.881V292.216V296.905V299.005H116.124V296.905V292.216V279.881H109.396Z" fill="#E6E6E6"/>
<path d="M112.76 304.551H109.396H103.092H96.3632H90.0593H83.3305H70.2979V311.34H83.3305H90.0593H96.3632H103.092H109.396H112.76H116.125V304.551H112.76Z" fill="#F0F0F0"/>
<path d="M103.092 316.886H83.3311V318.832H84.1309V330.942H86.0596V318.832H100.363V330.942H102.293V318.832H103.092V316.886Z" fill="#EBEBEB"/>
<path d="M93.2103 318.832H86.0586V330.942H93.2103V318.832Z" fill="#FAFAFA"/>
<path d="M100.363 318.832H93.2109V330.942H100.363V318.832Z" fill="#F5F5F5"/>
<path d="M119.49 274.335V330.942H126.218H165.317H172.045V274.335H119.49Z" fill="#E6E6E6"/>
<path d="M129.582 279.881H122.854V286.67H129.582V279.881Z" fill="#F0F0F0"/>
<path d="M142.616 279.881H135.888V286.67H142.616V279.881Z" fill="#F0F0F0"/>
<path d="M155.649 279.881H148.92V286.67H155.649V279.881Z" fill="#F0F0F0"/>
<path d="M168.681 279.881H161.952V286.67H168.681V279.881Z" fill="#F0F0F0"/>
<path d="M129.582 292.216H122.854V299.005H129.582V292.216Z" fill="#F0F0F0"/>
<path d="M142.616 292.216H135.888V299.005H142.616V292.216Z" fill="#F0F0F0"/>
<path d="M155.649 292.216H148.92V299.005H155.649V292.216Z" fill="#F0F0F0"/>
<path d="M168.681 292.216H161.952V299.005H168.681V292.216Z" fill="#F0F0F0"/>
<path d="M129.582 304.551H122.854V311.34H129.582V304.551Z" fill="#F0F0F0"/>
<path d="M142.616 304.551H135.888V311.34H142.616V304.551Z" fill="#F0F0F0"/>
<path d="M155.649 304.551H148.92V311.34H155.649V304.551Z" fill="#F0F0F0"/>
<path d="M168.681 304.551H161.952V311.34H168.681V304.551Z" fill="#F0F0F0"/>
<path d="M129.582 316.886H122.854V323.675H129.582V316.886Z" fill="#F0F0F0"/>
<path d="M168.681 316.886H161.952V323.675H168.681V316.886Z" fill="#F0F0F0"/>
<path d="M155.648 316.886H135.888V318.832H136.688V330.942H138.616V318.832H152.92V330.942H154.848V318.832H155.648V316.886Z" fill="#F5F5F5"/>
<path d="M145.767 318.832H138.615V330.942H145.767V318.832Z" fill="#E6E6E6"/>
<path d="M152.919 318.832H145.768V330.942H152.919V318.832Z" fill="#EBEBEB"/>
<path d="M312.187 227.146V330.942H318.915H358.013H364.742V227.146H312.187Z" fill="#FAFAFA"/>
<path d="M331.313 304.551H328.583H315.551V307.946V311.34V323.675H322.28V311.34H328.583H331.313H335.312V304.551H331.313Z" fill="#F0F0F0"/>
<path d="M356.785 304.551H354.649H341.616V311.34H354.649V323.675H361.378V311.34V306.429V304.551H356.785Z" fill="#F0F0F0"/>
<path d="M348.345 316.886H328.584V318.832H329.384V330.942H331.314V318.832H345.616V330.942H347.546V318.832H348.345V316.886Z" fill="#F5F5F5"/>
<path d="M338.464 318.832H331.312V330.942H338.464V318.832Z" fill="#EBEBEB"/>
<path d="M345.617 318.832H338.465V330.942H345.617V318.832Z" fill="#E0E0E0"/>
<path d="M335.312 230.541H315.551V249.664H335.312V230.541Z" fill="#F0F0F0"/>
<path d="M361.378 230.541H341.616V249.664H361.378V230.541Z" fill="#F0F0F0"/>
<path d="M335.312 255.211H315.551V274.335H335.312V255.211Z" fill="#F0F0F0"/>
<path d="M361.378 255.211H341.616V274.335H361.378V255.211Z" fill="#F0F0F0"/>
<path d="M335.312 279.881H315.551V299.006H335.312V279.881Z" fill="#F0F0F0"/>
<path d="M361.378 279.881H341.616V299.006H361.378V279.881Z" fill="#F0F0F0"/>
<path d="M125.746 202.5C124.038 204.039 124.9 206.879 127.178 207.127C143.488 208.905 176.444 211.358 185.365 203.435C196.836 193.247 164.173 202.881 161.649 200.566C159.125 198.251 168.081 193.12 161.044 193.249C156.108 193.34 148.429 202.157 140.549 200.99C134.125 200.04 142.69 195.333 136.724 195.333C131.565 195.332 129.199 199.389 125.746 202.5Z" fill="#F0F0F0"/>
<path d="M157.129 199.871C155.906 200.972 156.524 203.005 158.154 203.184C169.83 204.457 193.422 206.212 199.809 200.541C208.022 193.247 184.639 200.144 182.832 198.487C181.026 196.829 187.437 193.156 182.399 193.249C178.865 193.314 173.369 199.626 167.727 198.79C163.128 198.109 169.26 194.74 164.99 194.74C161.294 194.74 159.601 197.643 157.129 199.871Z" fill="#F5F5F5"/>
<path d="M274.226 119.786C297.418 119.786 316.218 100.816 316.218 77.4168C316.218 54.0172 297.418 35.048 274.226 35.048C251.034 35.048 232.233 54.0172 232.233 77.4168C232.233 100.816 251.034 119.786 274.226 119.786Z" fill="#F0F0F0"/>
<path d="M267.138 90.2062C265.185 91.456 265.826 94.4693 268.123 94.7396C293.62 97.7407 356.739 103.468 373.044 88.9875C392.72 71.5134 336.697 88.0373 332.367 84.0667C328.038 80.0962 343.398 71.2956 331.331 71.5175C322.863 71.6728 309.693 86.7955 296.176 84.7951C285.157 83.1649 299.849 75.0916 289.617 75.0916C279.074 75.0906 275.33 84.9625 267.138 90.2062Z" fill="#FAFAFA"/>
<path d="M331.879 26.2666C330.351 27.5558 331.101 30.0667 333.082 30.2866C348.796 32.0318 381.909 34.6223 390.777 26.7468C402.014 16.7669 370.018 26.2041 367.547 23.9363C365.074 21.6686 373.847 16.6428 366.955 16.7689C362.12 16.8577 354.598 25.4939 346.879 24.3509C340.586 23.4198 348.976 18.8097 343.133 18.8097C337.833 18.8107 335.542 23.1787 331.879 26.2666Z" fill="#F5F5F5"/>
<path d="M245.133 372C352.196 372 438.987 366.886 438.987 360.578C438.987 354.269 352.196 349.155 245.133 349.155C138.071 349.155 51.2793 354.269 51.2793 360.578C51.2793 366.886 138.071 372 245.133 372Z" fill="#F5F5F5"/>
<path d="M140.087 339.425H107.368V355.93H140.087V339.425Z" fill="#407BFF"/>
<path opacity="0.3" d="M140.087 339.425H107.368V355.93H140.087V339.425Z" fill="white"/>
<path opacity="0.2" d="M140.087 355.93V339.424H131.907V355.93H140.087Z" fill="black"/>
<path d="M205.525 306.412H172.806V355.931H205.525V306.412Z" fill="#407BFF"/>
<path opacity="0.4" d="M205.525 306.412H172.806V355.931H205.525V306.412Z" fill="white"/>
<path opacity="0.2" d="M205.525 355.932V306.413H197.346V355.932H205.525Z" fill="black"/>
<path d="M270.963 273.4H238.244V355.931H270.963V273.4Z" fill="#407BFF"/>
<path opacity="0.3" d="M270.963 273.4H238.244V355.931H270.963V273.4Z" fill="white"/>
<path opacity="0.2" d="M270.963 355.931V273.4H262.783V355.931H270.963Z" fill="black"/>
<path d="M336.402 223.882H303.683V355.931H336.402V223.882Z" fill="#407BFF"/>
<path opacity="0.2" d="M336.402 223.882H303.683V355.931H336.402V223.882Z" fill="white"/>
<path opacity="0.2" d="M336.401 355.93V223.881H328.222V355.93H336.401Z" fill="black"/>
<path d="M401.84 157.857H369.121V355.931H401.84V157.857Z" fill="#407BFF"/>
<path opacity="0.2" d="M401.84 355.93L401.84 157.856H393.66L393.66 355.93H401.84Z" fill="black"/>
<path d="M150.562 314.901H107.868L92.4707 308.299H133.736V275.286H199.175V242.274H264.612V192.756H330.05V126.731H385.247V69.1953H402.074V133.334H346.878V199.358H281.44V248.876H216.001V281.889H150.562V314.901Z" fill="#407BFF"/>
<g opacity="0.4">
<path d="M150.562 314.901H107.868L92.4707 308.299H133.736V275.286H199.175V242.274H264.612V192.756H330.05V126.731H385.247V69.1953H402.074V133.334H346.878V199.358H281.44V248.876H216.001V281.889H150.562V314.901Z" fill="white"/>
</g>
<path d="M385.248 126.731V69.1953H402.075V133.334L385.248 126.731Z" fill="#407BFF"/>
<path d="M330.051 192.756V126.731L346.879 133.334V199.358L330.051 192.756Z" fill="#407BFF"/>
<path d="M264.613 242.274V192.756L281.441 199.358V248.876L264.613 242.274Z" fill="#407BFF"/>
<path d="M199.176 275.286V242.274L216.003 248.876V281.889L199.176 275.286Z" fill="#407BFF"/>
<path d="M133.737 308.299V275.286L150.563 281.889V314.901L133.737 308.299Z" fill="#407BFF"/>
<path d="M374.003 73.8972L393.66 50.0557L413.318 88.3349L374.003 73.8972Z" fill="#407BFF"/>
<path d="M194.746 108.58C193.632 110.834 192.132 114.265 191.058 118.234C191.036 118.318 191.013 118.401 190.991 118.484C190.858 118.989 190.588 120.14 190.575 120.198C190.46 120.719 190.353 121.245 190.257 121.778C190.252 121.804 190.06 122.969 189.987 123.532C189.979 123.598 189.971 123.662 189.963 123.728C189.82 124.873 189.714 127.301 189.713 127.351C189.707 127.937 189.719 128.524 189.751 129.112C189.753 129.144 189.845 130.401 189.923 130.996V130.998L189.942 131.167C189.934 131.111 189.93 131.055 189.923 130.999C191.445 140.611 192.87 141.867 194.032 145.434C197.452 155.935 200.108 189.223 200.108 189.223C180.331 194.601 156.519 216.491 156.519 216.491L160.795 226.46C160.795 226.46 212.102 201.98 215.741 197.006C220.063 191.099 217.583 159.834 218.939 147.509C219.441 142.947 220.016 138.99 220.588 135.454L227.019 125.454L194.746 108.58Z" fill="#263238"/>
<path opacity="0.2" d="M204.306 134.889L200.473 130.77C200.473 130.77 193.358 136.735 218.483 158.701C218.517 154.315 218.623 150.392 218.94 147.51C218.982 147.135 219.026 146.787 219.068 146.42L204.306 134.889Z" fill="black"/>
<path d="M157.239 218.261L146.839 223.599L150.045 228.895L159.733 224.566L157.239 218.261Z" fill="#FFC3BD"/>
<path d="M150.493 230.232C150.466 230.166 150.48 230.091 150.529 230.04C150.579 229.99 150.655 229.977 150.719 230.007C150.833 230.061 153.407 231.304 153.813 232.475C153.892 232.692 153.884 232.93 153.791 233.141C153.704 233.398 153.465 233.57 153.197 233.572C152.718 233.548 152.066 232.883 151.563 232.151C151.152 231.543 150.793 230.902 150.493 230.232ZM150.988 230.555C151.606 231.745 152.635 233.225 153.202 233.232C153.276 233.239 153.384 233.217 153.485 232.993C153.549 232.865 153.551 232.715 153.491 232.584C153.456 232.481 153.406 232.383 153.342 232.294C152.674 231.57 151.875 230.979 150.988 230.555Z" fill="#407BFF"/>
<path d="M150.449 230.152C150.447 230.091 150.479 230.033 150.531 230.002C150.61 229.959 152.293 229.016 153.419 229.339C153.747 229.429 154.025 229.65 154.188 229.951C154.414 230.362 154.303 230.616 154.155 230.741C153.584 231.326 151.346 230.794 150.553 230.306C150.532 230.294 150.516 230.274 150.508 230.251C150.477 230.228 150.456 230.193 150.449 230.152ZM153.862 230.042C153.743 229.865 153.563 229.736 153.357 229.681C152.552 229.593 151.74 229.757 151.03 230.149C151.959 230.581 153.587 230.817 153.958 230.504C153.986 230.469 154.075 230.382 153.924 230.117L153.862 230.042Z" fill="#407BFF"/>
<path d="M150.897 229.06L146.485 222.629C146.319 222.387 146.008 222.293 145.737 222.403L139.754 224.862C139.222 225.076 138.963 225.685 139.175 226.222C139.202 226.291 139.237 226.357 139.278 226.419C140.908 228.71 142.448 230.683 144.425 233.572C146.76 236.98 145.763 236.397 148.454 240.441C150.078 242.876 153.099 241.419 152.531 240.303C149.903 235.212 150.97 233.748 151.392 230.781C151.441 230.165 151.265 229.553 150.897 229.06Z" fill="#263238"/>
<path opacity="0.2" d="M155.597 219.103L151.701 221.103L154.522 226.894L157.738 225.457L155.597 219.103Z" fill="black"/>
<path d="M156.49 213.18L152.088 215.767L157.602 228.526L162.719 227.092L156.49 213.18Z" fill="#407BFF"/>
<path d="M249.351 181.91C249.351 181.91 204.281 143.561 200.445 136.753C196.608 129.946 206.87 120.617 206.87 120.617L218.303 122.232C218.303 122.232 266.46 166.321 264.488 175.145L249.351 181.91Z" fill="#263238"/>
<path d="M264.488 175.146C263.225 184.101 244.194 227.173 244.194 227.173C244.194 227.173 240.262 226.939 233.063 222.401C233.063 222.401 240.586 188.361 248.223 175.146H264.488Z" fill="#263238"/>
<path d="M236.302 224.447L232.899 235.708L238.904 237.051L242.532 227.007L236.302 224.447Z" fill="#FFC3BD"/>
<path d="M240.17 237.654C240.104 237.627 240.06 237.565 240.058 237.494C240.057 237.423 240.1 237.358 240.167 237.333C240.285 237.288 242.957 236.28 244.076 236.796C244.285 236.889 244.45 237.06 244.536 237.274C244.658 237.515 244.616 237.808 244.431 238.005C244.081 238.336 243.154 238.349 242.283 238.205C241.564 238.084 240.857 237.9 240.17 237.654ZM240.744 237.516C242.023 237.893 243.793 238.172 244.192 237.765C244.248 237.715 244.308 237.621 244.218 237.393C244.17 237.258 244.064 237.152 243.93 237.106C243.831 237.059 243.727 237.028 243.619 237.012C242.638 236.996 241.662 237.167 240.744 237.516Z" fill="#407BFF"/>
<path d="M240.084 237.629C240.039 237.588 240.02 237.526 240.034 237.466C240.058 237.378 240.552 235.502 241.564 234.908C241.856 234.731 242.206 234.683 242.535 234.773C242.985 234.894 243.09 235.151 243.077 235.346C243.098 236.166 241.166 237.423 240.268 237.661C240.245 237.668 240.22 237.666 240.198 237.656C240.157 237.662 240.117 237.652 240.084 237.629ZM242.372 235.072C242.162 235.036 241.946 235.077 241.764 235.188C241.143 235.712 240.696 236.416 240.484 237.204C241.436 236.827 242.734 235.809 242.769 235.322C242.764 235.277 242.763 235.153 242.469 235.078L242.372 235.072Z" fill="#407BFF"/>
<path d="M239.613 236.546L231.962 235.292C231.674 235.245 231.391 235.405 231.282 235.679L228.887 241.734C228.671 242.27 228.926 242.88 229.456 243.099C229.524 243.127 229.595 243.147 229.667 243.161C232.434 243.564 234.91 243.814 238.345 244.381C242.397 245.046 241.29 245.367 246.043 246.216C248.908 246.725 249.964 243.519 248.773 243.157C243.316 241.536 243.01 239.744 241.185 237.379C240.78 236.917 240.22 236.62 239.613 236.546Z" fill="#263238"/>
<path opacity="0.2" d="M235.765 226.222L234.49 230.442L240.581 232.409L241.786 229.073L235.765 226.222Z" fill="black"/>
<path d="M232.154 221.467L230.948 226.461L243.882 231.302L246.406 226.588L232.154 221.467Z" fill="#407BFF"/>
<path d="M180.475 93.0943L181.228 85.7968L187.543 87.1253L185.399 94.5267C185.399 94.5267 187.523 97.9556 187.36 100.994C187.197 104.032 185.472 103.617 185.472 103.617C185.472 103.617 185.65 106.834 182.941 105.887C180.232 104.94 176.729 103.538 177.321 100.874C177.913 98.2108 179.476 95.2056 180.475 93.0943Z" fill="#FFC3BD"/>
<path d="M226.501 62.3759C224.333 54.1322 199.358 61.9946 199.358 61.9946C199.358 61.9946 187.164 65.9641 183.97 68.9491C180.755 71.9533 178.969 89.4849 178.969 89.4849L187.72 91.4116L193.143 76.3183C217.531 72.0794 228.606 70.3786 226.501 62.3759Z" fill="#407BFF"/>
<path d="M187.926 88.5923C187.649 88.9089 187.169 88.9401 186.854 88.6609C186.539 88.3816 186.509 87.8977 186.786 87.5802C187.063 87.2626 187.543 87.2324 187.858 87.5116C188.173 87.7919 188.203 88.2748 187.926 88.5923Z" fill="white"/>
<path opacity="0.1" d="M220.196 67.3613L220.252 59.5735C220.252 59.5735 215.001 58.6706 207.018 73.8508C210.604 73.1678 213.703 72.5081 216.311 71.809L220.196 67.3613Z" fill="black"/>
<path d="M252.354 47.3996L253.376 52.2912C253.376 52.2912 251.719 52.7663 250.146 51.4206L252.354 47.3996Z" fill="#BA4D3C"/>
<path d="M253.428 45.4627C253.386 45.9731 253.089 46.3665 252.757 46.3393C252.425 46.3121 252.17 45.8531 252.225 45.3578C252.28 44.8624 252.564 44.4539 252.896 44.4862C253.229 44.5184 253.465 44.9522 253.428 45.4627Z" fill="#263238"/>
<path d="M230.148 61.0353C230.148 61.0353 234.488 61.355 235.809 53.4301C235.809 53.4301 240.065 52.3184 242.204 55.1127C244.344 57.907 238.534 62.502 241.298 65.366C244.063 68.2289 230.148 61.0353 230.148 61.0353Z" fill="#FFC3BD"/>
<path opacity="0.2" d="M239.29 57.895C239.29 57.895 239.936 59.5695 241.121 61.1311C241.525 60.1455 242.043 59.1418 242.372 58.1865L239.29 57.895Z" fill="black"/>
<path d="M234.022 41.7826C233.165 48.5415 232.656 51.3883 235.35 55.4617C239.799 59.9377 247.831 61.1805 250.672 54.81C253.232 49.0802 254.203 39.0145 248.225 35.0682C243.963 32.2567 238.25 33.4642 235.463 37.7637C234.68 38.9722 234.187 40.3482 234.022 41.7826Z" fill="#FFC3BD"/>
<path d="M251.283 42.7376C251.35 42.7971 251.442 42.8203 251.529 42.7991C252.174 42.6096 252.871 42.7437 253.401 43.161C253.509 43.2598 253.675 43.2528 253.774 43.1459C253.871 43.035 253.863 42.8667 253.756 42.7658C253.097 42.2225 252.214 42.04 251.396 42.2769C251.253 42.3132 251.167 42.4594 251.203 42.6035C251.218 42.6549 251.245 42.7023 251.283 42.7376Z" fill="#263238"/>
<path d="M247.214 48.0714L249.592 47.9342C249.592 47.9342 248.426 45.2256 250.724 42.2427C253.023 39.2597 258.687 37.6699 254.096 32.4979C249.505 27.3258 243.762 28.1187 243.762 28.1187L247.574 30.8737C247.574 30.8737 239.712 25.0531 235.078 31.3791C235.078 31.3791 237.022 30.7274 238.584 31.4467C238.584 31.4467 217.712 38.5647 235.349 55.4607C235.349 55.4607 236.018 54.0898 238.834 56.3232C238.834 56.3232 242.053 54.1927 243.738 50.9717C245.425 47.7506 246.623 44.7313 247.214 48.0714Z" fill="#263238"/>
<path d="M247.121 45.7976C247.967 46.8972 248.343 48.2923 248.167 49.6724C247.92 51.5023 246.114 51.701 244.776 50.5944C243.563 49.5927 242.248 47.4389 243.175 45.8864C244.103 44.3329 246.072 44.464 247.121 45.7976Z" fill="#FFC3BD"/>
<path d="M256.331 34.352C256.331 34.352 256.94 38.0229 251.222 40.1999C251.222 40.1999 259.18 41.018 256.331 34.352Z" fill="#263238"/>
<path d="M229.541 62.0612L231.808 59.1317C231.808 59.1317 242.687 60.1334 243.346 66.3666L229.541 62.0612Z" fill="#407BFF"/>
<path opacity="0.5" d="M229.541 62.0612L231.808 59.1317C231.808 59.1317 242.687 60.1334 243.346 66.3666L229.541 62.0612Z" fill="white"/>
<path d="M205.577 87.3524C208.579 79.8248 213.406 59.8318 221.094 58.9209C228.782 58.0099 250.884 66.9215 253.491 74.8485C256.099 82.7755 225.829 127.885 225.829 127.885L193.709 110.039C193.709 110.039 203.204 93.3011 205.577 87.3524Z" fill="#407BFF"/>
<path opacity="0.1" d="M243.324 72.2357C243.324 72.2357 237.497 83.4524 244.524 97.5803C247.406 92.4194 249.972 87.4169 251.645 83.3313L249.175 77.438L243.324 72.2357Z" fill="black"/>
<path d="M211.152 88.1089C215.356 88.7384 219.965 87.4855 223.703 85.6465C227.981 83.5432 231.154 80.3796 234.294 76.8469C237.096 73.6934 240.855 70.0951 245.229 69.508C255.146 68.1754 257.265 84.1363 256.228 91.0979C254.994 99.374 250.386 106.953 245.336 113.421C242.332 117.269 239.028 120.998 235.371 124.234C234.19 125.28 236.038 126.906 237.209 125.869C246.682 117.484 255.885 105.605 258.396 92.9349C259.912 85.2884 257.999 74.3834 251.249 69.4313C245.137 64.9473 238.388 69.0894 233.922 73.6279C227.967 79.6806 221.08 87.0961 211.623 85.6808C210.069 85.4488 209.586 87.8739 211.152 88.1089Z" fill="#407BFF"/>
<g opacity="0.3">
<path d="M211.152 88.1089C215.356 88.7384 219.965 87.4855 223.703 85.6465C227.981 83.5432 231.154 80.3796 234.294 76.8469C237.096 73.6934 240.855 70.0951 245.229 69.508C255.146 68.1754 257.265 84.1363 256.228 91.0979C254.994 99.374 250.386 106.953 245.336 113.421C242.332 117.269 239.028 120.998 235.371 124.234C234.19 125.28 236.038 126.906 237.209 125.869C246.682 117.484 255.885 105.605 258.396 92.9349C259.912 85.2884 257.999 74.3834 251.249 69.4313C245.137 64.9473 238.388 69.0894 233.922 73.6279C227.967 79.6806 221.08 87.0961 211.623 85.6808C210.069 85.4488 209.586 87.8739 211.152 88.1089Z" fill="black"/>
</g>
<path d="M282.52 101.562L275.773 103.876L274.853 98.7425L281.767 96.5534C281.767 96.5534 283.139 92.9481 285.886 91.8495C288.633 90.7509 289.757 92.7634 289.757 92.7634C289.757 92.7634 292.521 91.2856 292.796 94.1061C293.071 96.9267 292.979 101.438 290.387 101.998C287.795 102.558 284.794 101.595 282.52 101.562Z" fill="#FFC3BD"/>
<path d="M278.921 96.0389L264.686 98.3016C255.333 76.1992 251.269 66.4302 244.163 70.2605C236.708 74.2795 249.936 95.7242 249.936 95.7242C249.936 95.7242 256.217 107.357 259.546 110.23C259.702 110.365 260.03 110.634 260.227 110.687C264.456 111.844 280.406 104.095 280.406 104.095L278.921 96.0389Z" fill="#407BFF"/>
<path d="M278.918 103.89C278.641 104.208 278.161 104.238 277.846 103.959C277.531 103.68 277.501 103.196 277.778 102.878C278.055 102.561 278.535 102.53 278.85 102.81C279.165 103.089 279.195 103.573 278.918 103.89Z" fill="white"/>
<path d="M210.889 137.819L189.468 106.615C187.712 104.057 188.343 100.546 190.878 98.7746L208.719 86.3071C210.191 85.2781 212.211 85.6483 213.229 87.1333L237.318 122.225C238.338 123.71 237.971 125.747 236.499 126.775L218.658 139.243C216.124 141.015 212.645 140.378 210.889 137.819Z" fill="#407BFF"/>
<path opacity="0.3" d="M210.889 137.819L189.468 106.615C187.712 104.057 188.343 100.546 190.878 98.7746L208.719 86.3071C210.191 85.2781 212.211 85.6483 213.229 87.1333L237.318 122.225C238.338 123.71 237.971 125.747 236.499 126.775L218.658 139.243C216.124 141.015 212.645 140.378 210.889 137.819Z" fill="white"/>
<path opacity="0.1" d="M235.455 124.431L210.488 88.0595C209.711 86.9286 208.172 86.6462 207.052 87.43L206.307 87.9505C203.148 90.1577 202.361 94.5308 204.549 97.7165L224.407 126.644C226.595 129.831 230.928 130.625 234.087 128.418L234.832 127.897C235.953 127.114 236.232 125.562 235.455 124.431Z" fill="black"/>
<path d="M237.758 122.866L212.791 86.4939C212.014 85.3631 210.475 85.0806 209.354 85.8645L208.609 86.385C205.451 88.5922 204.664 92.9653 206.852 96.151L226.71 125.079C228.898 128.266 233.231 129.059 236.389 126.852L237.134 126.332C238.256 125.55 238.535 123.997 237.758 122.866Z" fill="#407BFF"/>
<path d="M237.758 122.866L212.791 86.4939C212.014 85.3631 210.475 85.0806 209.354 85.8645L208.609 86.385C205.451 88.5922 204.664 92.9653 206.852 96.151L226.71 125.079C228.898 128.266 233.231 129.059 236.389 126.852L237.134 126.332C238.256 125.55 238.535 123.997 237.758 122.866Z" fill="#407BFF"/>
<path opacity="0.5" d="M237.758 122.866L212.791 86.4939C212.014 85.3631 210.475 85.0806 209.354 85.8645L208.609 86.385C205.451 88.5922 204.664 92.9653 206.852 96.151L226.71 125.079C228.898 128.266 233.231 129.059 236.389 126.852L237.134 126.332C238.256 125.55 238.535 123.997 237.758 122.866Z" fill="white"/>
<path d="M205.657 104.407L205.219 103.769C204.606 102.877 204.827 101.652 205.712 101.033L210.571 97.6379C211.456 97.0196 212.67 97.2425 213.282 98.1353L213.72 98.7728C214.333 99.6656 214.112 100.89 213.227 101.509L208.368 104.904C207.483 105.522 206.27 105.3 205.657 104.407Z" fill="#407BFF"/>
<path d="M219.103 123.994L218.665 123.357C218.052 122.464 218.273 121.239 219.158 120.621L224.017 117.225C224.902 116.607 226.116 116.83 226.729 117.723L227.167 118.36C227.78 119.253 227.56 120.478 226.674 121.096L221.815 124.492C220.93 125.11 219.716 124.887 219.103 123.994Z" fill="#407BFF"/>
<path opacity="0.3" d="M205.657 104.407L205.219 103.769C204.606 102.877 204.827 101.652 205.712 101.033L210.571 97.6379C211.456 97.0196 212.67 97.2425 213.282 98.1353L213.72 98.7728C214.333 99.6656 214.112 100.89 213.227 101.509L208.368 104.904C207.483 105.522 206.27 105.3 205.657 104.407Z" fill="black"/>
<path opacity="0.3" d="M219.103 123.994L218.665 123.357C218.052 122.464 218.273 121.239 219.158 120.621L224.017 117.225C224.902 116.607 226.116 116.83 226.729 117.723L227.167 118.36C227.78 119.253 227.56 120.478 226.674 121.096L221.815 124.492C220.93 125.11 219.716 124.887 219.103 123.994Z" fill="black"/>
<path opacity="0.2" d="M190.627 108.303C190.627 108.303 198.96 122.156 206.117 118.069L200.18 122.218L190.627 108.303Z" fill="black"/>
<path d="M221.884 100.761C223.829 100.482 224.895 99.377 226.547 98.5982C227.674 98.0666 226.333 97.5935 227.331 98.5276C227.688 98.8615 227.931 99.4002 228.187 99.8088C228.858 100.88 229.429 102.016 230.124 103.071C230.721 103.977 232.282 104.942 232.67 105.87C233.303 107.382 230.049 109.502 229.116 110.275C227.986 111.209 229.278 113.114 230.416 112.17C232.043 110.824 235.273 108.664 235.159 106.16C235.088 104.608 233.737 103.89 232.81 102.857C231.061 100.908 230.357 97.4371 228.037 96.038C227.248 95.5628 226.584 95.5689 225.786 96.0107C224.88 96.5121 224.457 97.5087 223.417 97.9687C222.881 98.2058 222.289 98.3783 221.709 98.4621C220.256 98.6699 220.426 100.971 221.884 100.761Z" fill="#407BFF"/>
<g opacity="0.3">
<path d="M221.884 100.761C223.829 100.482 224.895 99.377 226.547 98.5982C227.674 98.0666 226.333 97.5935 227.331 98.5276C227.688 98.8615 227.931 99.4002 228.187 99.8088C228.858 100.88 229.429 102.016 230.124 103.071C230.721 103.977 232.282 104.942 232.67 105.87C233.303 107.382 230.049 109.502 229.116 110.275C227.986 111.209 229.278 113.114 230.416 112.17C232.043 110.824 235.273 108.664 235.159 106.16C235.088 104.608 233.737 103.89 232.81 102.857C231.061 100.908 230.357 97.4371 228.037 96.038C227.248 95.5628 226.584 95.5689 225.786 96.0107C224.88 96.5121 224.457 97.5087 223.417 97.9687C222.881 98.2058 222.289 98.3783 221.709 98.4621C220.256 98.6699 220.426 100.971 221.884 100.761Z" fill="black"/>
</g>
</svg>
