<svg width="433" height="311" viewBox="0 0 433 311" fill="none" xmlns="http://www.w3.org/2000/svg">
<path d="M400.388 310.418C425.763 310.418 441.125 284.433 426.211 265.93C425.897 265.54 425.573 265.156 425.238 264.777C416.118 254.439 402.278 250.736 390.021 244.966C386.634 243.372 383.227 241.51 380.862 238.512C377.569 234.338 376.779 228.501 377.46 223.134C380.308 200.674 404.8 186.83 408.753 164.554C411.743 147.703 401.427 130.592 387.454 121.673C373.48 112.754 356.591 110.512 340.241 109.814C323.891 109.117 307.312 109.735 291.398 105.747C287.201 104.696 282.855 103.183 280.002 99.7911C276.768 95.9461 276.089 90.3871 276.603 85.2911C277.989 71.5541 309.291 24.3251 293.614 8.74005C287.442 2.60405 279.068 -0.71495 270.643 0.13005C262.218 0.97505 254.349 4.84405 246.971 9.19005C231.381 18.3731 177.007 79.2491 157.442 88.4501C138.214 97.4921 116.13 94.8331 95.0583 94.3991C73.9853 93.9651 50.5643 97.105 36.7913 113.816C31.9133 119.735 28.5453 127.707 30.1833 135.335C31.2053 140.095 34.0553 144.212 37.2923 147.72C44.6853 155.732 54.3263 161.257 61.3193 169.655C68.3123 178.052 72.0033 191.383 65.4263 200.142C62.8743 203.54 59.1643 205.726 55.5293 207.776C35.2023 219.238 12.3953 231.001 3.51532 253.321C-1.01868 264.719 -0.932686 277.286 2.43331 289.116C6.00031 301.651 18.5343 310.418 32.8913 310.418H400.388Z" fill="#CAE2FF"/>
<path opacity="0.41" d="M425.238 264.777C416.118 254.439 402.278 250.736 390.021 244.966C386.634 243.372 383.227 241.51 380.862 238.512C377.569 234.338 376.779 228.501 377.46 223.134C380.308 200.674 404.8 186.83 408.753 164.555C411.743 147.704 401.427 130.593 387.454 121.674C373.48 112.755 356.591 110.513 340.241 109.815C323.891 109.118 307.312 109.736 291.398 105.749C287.201 104.698 282.855 103.185 280.002 99.7931C276.768 95.9481 276.089 90.3891 276.603 85.2931C277.989 71.5561 309.291 24.3271 293.614 8.74206C288.256 3.41506 281.238 0.216052 273.968 0.0160522C283.874 2.70905 291.117 8.37105 285.843 19.9721C273.666 46.7621 160.659 135.901 240.056 144.669C319.453 153.437 187.937 224.065 247.849 228.936C293.552 232.652 199.797 286.192 152.914 310.419H400.388C425.763 310.419 441.125 284.434 426.211 265.931C425.897 265.54 425.573 265.156 425.238 264.777Z" fill="#A6CEF4"/>
<path d="M65.0719 74.1401C65.0719 74.1401 147.362 102.467 183.953 36.2511C220.544 -29.9649 -3.9941 49.5381 65.0719 74.1401Z" fill="#CAE2FF"/>
<path opacity="0.41" d="M166.178 10.5101C172.009 14.3811 173.165 21.3631 167.07 32.3921C141.182 79.2391 92.4272 78.7621 66.1152 74.4761C75.7182 77.4631 149.771 98.1081 183.954 36.2511C194.064 17.9561 184.235 10.7891 166.178 10.5101Z" fill="#A6CEF4"/>
<path d="M37.9894 279.912C37.9894 279.912 34.9854 277.107 37.0014 266.465C39.0174 255.823 44.1314 245.603 41.6224 234.058C39.1134 222.513 19.4404 193.402 19.3744 191.466C19.3084 189.53 13.3054 225.332 23.4784 239.436C33.6524 253.539 34.8764 258.432 34.4244 265.849C33.9724 273.266 34.5294 279.239 35.6454 280.963L37.9894 279.912Z" fill="#4286E8"/>
<path d="M36.128 258.508C34.945 263.255 34.231 275.159 36.121 278.008C36.297 278.274 36.552 278.123 36.867 277.631C36.291 275.663 35.913 272.215 37.002 266.464C39.018 255.822 44.132 245.602 41.623 234.057C39.114 222.512 19.441 193.401 19.375 191.465C19.375 191.465 22.34 215.719 32.323 232.413C39.471 244.365 37.31 253.761 36.128 258.508Z" fill="#1D54B5"/>
<path d="M41.5771 279.173C41.5771 279.173 35.7981 264.744 45.5921 252.25C55.3871 239.756 71.0521 223.714 71.3641 217.359C71.3641 217.359 75.3901 247.532 62.6401 256.074C49.8911 264.616 40.9501 265.978 43.1611 279.119L41.5771 279.173Z" fill="#4286E8"/>
<path d="M55.3375 250.007C41.1215 260.354 39.9595 272.273 42.1655 277.801C42.3375 278.231 42.6615 278.493 43.0905 278.634C41.1845 265.949 50.0525 264.506 62.6405 256.073C75.3895 247.532 71.3645 217.358 71.3645 217.358C71.3645 217.358 69.5545 239.66 55.3375 250.007Z" fill="#1D54B5"/>
<path d="M32.0723 279.497C32.0723 279.497 33.9263 271.856 32.9403 263.607C31.9533 255.358 23.3363 250.718 15.2853 242.005C11.1423 237.522 9.91734 213.816 12.4853 211.614C12.4853 211.614 -1.72965 228.84 0.463346 241.454C2.65635 254.068 25.8453 262.263 27.9913 268.358C30.1373 274.453 29.9603 279.569 29.9603 279.569L32.0723 279.497Z" fill="#4286E8"/>
<path d="M7.68152 218.394C2.98252 231.117 7.79952 246.525 23.4065 256.096C34.8965 263.142 31.2375 277.793 31.2375 277.793L33.1145 272.013C33.2805 269.514 33.2995 266.603 32.9415 263.607C31.9545 255.358 23.3375 250.718 15.2865 242.005C11.2915 237.681 10.0105 215.482 12.2295 211.935C11.5755 212.755 9.73652 215.138 7.68152 218.394Z" fill="#1D54B5"/>
<path d="M12.2275 211.935C12.3885 211.732 12.4855 211.614 12.4855 211.614C12.3945 211.692 12.3095 211.805 12.2275 211.935Z" fill="#49B4D6"/>
<path d="M44.5518 278.543C44.5518 278.543 47.8838 266.181 56.1238 264.517C64.3638 262.853 73.8258 250.677 74.3368 248.289C74.3368 248.289 72.9478 271.252 44.5518 278.543Z" fill="#4286E8"/>
<path d="M55.6528 268.604C50.6038 271.129 48.5048 274.524 47.7588 277.606C73.0398 269.476 74.3368 248.289 74.3368 248.289C74.2358 248.761 73.7738 249.624 73.0528 250.704C70.5738 255.048 64.5708 264.145 55.6528 268.604Z" fill="#1D54B5"/>
<path d="M62.3821 273.991H19.2861L24.4041 306.18C24.7921 308.621 26.8971 310.418 29.3691 310.418H52.2991C54.7711 310.418 56.8761 308.621 57.2641 306.18L62.3821 273.991Z" fill="#F95858"/>
<path d="M61.5351 279.317L62.3821 273.991H19.2861L20.1321 279.317H61.5351Z" fill="#E53838"/>
<path d="M51.9414 273.991L46.8234 306.18C46.4354 308.621 44.3304 310.418 41.8584 310.418H52.2994C54.7714 310.418 56.8764 308.621 57.2644 306.18L62.3824 273.991H51.9414Z" fill="#E53838"/>
<path d="M232.052 237.118H223.082V310.483H232.052V237.118Z" fill="white"/>
<path d="M232.052 237.118H228.528V310.483H232.052V237.118Z" fill="#E8F2FC"/>
<path d="M253.334 304.475H204.301C202.642 304.475 201.297 305.82 201.297 307.479C201.297 309.138 202.642 310.483 204.301 310.483H253.334C254.993 310.483 256.338 309.138 256.338 307.479C256.338 305.82 254.993 304.475 253.334 304.475Z" fill="white"/>
<path d="M253.334 304.475H204.3C203.208 304.475 202.26 305.064 201.735 305.936H244.201C245.86 305.936 247.205 307.281 247.205 308.94C247.205 309.507 247.039 310.03 246.766 310.483H253.334C254.993 310.483 256.338 309.138 256.338 307.479C256.338 305.82 254.993 304.475 253.334 304.475Z" fill="#E8F2FC"/>
<path d="M232.052 237.118H223.082V243.65H232.052V237.118Z" fill="#E8F2FC"/>
<path d="M278.524 134.832C277.259 134.272 275.859 133.963 274.372 133.963H223.873C218.939 133.963 214.7 137.468 213.773 142.315L197.947 225.045C197.696 226.377 197.706 227.7 197.947 228.936C197.952 228.964 197.961 228.991 197.967 229.019H183.929C181.619 229.019 179.746 230.892 179.746 233.202C179.746 235.513 181.619 237.385 183.929 237.385H229.308V237.259H258.556C263.49 237.259 267.729 233.754 268.656 228.907L284.472 146.177C285.399 141.301 282.744 136.695 278.524 134.832Z" fill="#FF9933"/>
<path d="M284.469 146.178L268.658 228.91C267.733 233.755 263.494 237.256 258.562 237.256H229.307V237.388H183.933C181.621 237.388 179.749 235.516 179.749 233.204C179.749 230.892 181.621 229.02 183.933 229.02H197.971C197.96 228.987 197.949 228.965 197.949 228.932C198.07 228.943 198.213 228.943 198.334 228.943H248.828C255.61 228.943 261.457 224.12 262.723 217.459L278.523 134.837C282.74 136.698 285.394 141.3 284.469 146.178Z" fill="#E8F2FC"/>
<path d="M262.824 216.964L262.725 217.459C261.459 224.12 255.612 228.943 248.83 228.943H198.336C198.215 228.943 198.072 228.943 197.951 228.932C197.951 228.965 197.962 228.987 197.973 229.02H183.935C181.843 229.02 180.103 230.561 179.806 232.565V221.257C179.806 221.235 179.795 221.202 179.795 221.169C179.465 218.934 181.347 216.963 183.616 216.963H262.824V216.964Z" fill="white"/>
<path d="M278.524 134.832L262.727 217.455C261.452 224.117 255.611 228.945 248.833 228.945H198.334C198.208 228.945 198.073 228.945 197.948 228.935C197.707 227.699 197.697 226.376 197.948 225.044L213.774 142.314C214.701 137.467 218.94 133.962 223.874 133.962H274.373C275.859 133.963 277.259 134.272 278.524 134.832Z" fill="white"/>
<path d="M158.85 114.998H72.8843C70.8853 114.998 69.3513 116.772 69.6393 118.75L77.0003 169.295C77.2353 170.907 78.6173 172.102 80.2453 172.102H166.211C168.21 172.102 169.744 170.328 169.456 168.35L162.095 117.805C161.861 116.193 160.479 114.998 158.85 114.998Z" fill="#1D54B5"/>
<path d="M146.825 114.998H72.8843C70.8853 114.998 69.3513 116.772 69.6393 118.75L72.8933 141.09C80.8203 144.558 89.8063 146.528 99.3403 146.528C123.991 146.527 138.518 133.431 146.825 114.998Z" fill="#3070CE"/>
<path d="M119.851 153.577H108.877H103.574C102.168 153.577 101.088 154.82 101.291 156.213L106.223 190.064C106.223 190.169 106.23 190.28 106.243 190.385L106.465 191.719C106.629 192.851 107.603 193.688 108.742 193.688H114.028H124.807L119.851 153.577Z" fill="#4286E8"/>
<path d="M143.619 191.321C143.599 190.047 142.56 189.024 141.286 189.024H128.971C127.156 189.024 125.62 187.684 125.374 185.886L121.765 159.517H123.904C125.309 159.517 126.386 158.271 126.184 156.881L125.965 155.546C125.8 154.414 124.829 153.574 123.685 153.574L119.414 153.575C117.466 153.575 115.964 155.292 116.223 157.224L120.725 190.769C120.949 192.44 122.375 193.688 124.061 193.688L141.285 193.691C142.588 193.691 143.639 192.624 143.619 191.321Z" fill="#1D54B5"/>
<path d="M134.77 164.803C134.77 165.654 134.08 166.344 133.229 166.344C132.378 166.344 131.688 165.654 131.688 164.803C131.688 163.952 132.378 163.262 133.229 163.262C134.08 163.262 134.77 163.952 134.77 164.803Z" fill="#4286E8"/>
<path d="M142.686 164.803C142.686 165.654 141.996 166.344 141.145 166.344C140.294 166.344 139.604 165.654 139.604 164.803C139.604 163.952 140.294 163.262 141.145 163.262C141.996 163.262 142.686 163.952 142.686 164.803Z" fill="#4286E8"/>
<path d="M148.079 166.344C148.93 166.344 149.62 165.654 149.62 164.803C149.62 163.952 148.93 163.262 148.079 163.262C147.228 163.262 146.538 163.952 146.538 164.803C146.538 165.654 147.228 166.344 148.079 166.344Z" fill="#4286E8"/>
<path d="M157.182 138.44L161.675 169.294C161.91 170.906 163.292 172.101 164.92 172.101H166.21C168.209 172.101 169.743 170.327 169.455 168.349L162.094 117.804C161.859 116.192 160.477 114.997 158.849 114.997H157.559C155.56 114.997 154.026 116.771 154.314 118.749L157.182 138.44Z" fill="#4286E8"/>
<path d="M124.657 120.516H94.6359C93.9019 120.516 93.3429 121.173 93.4599 121.898L93.6609 123.141C93.7539 123.718 94.2519 124.142 94.8369 124.142H124.858C125.592 124.142 126.151 123.485 126.034 122.76L125.833 121.517C125.74 120.94 125.242 120.516 124.657 120.516Z" fill="#4286E8"/>
<path d="M246.533 135.92C245.581 128.603 234.864 132.025 238.887 125.206C242.607 118.9 238.277 116.11 233.159 115.127C226.633 113.872 230.338 111.303 227.162 105.213C223.127 97.476 216.903 99.774 216.903 99.774C216.903 99.774 209.101 95.532 201.151 102.239C192.775 109.306 194.601 115.557 199.085 124.143C201.351 128.482 198.57 132.348 196.586 140.325C194.207 149.895 206.022 169.159 231.306 156.147C241.083 151.115 247.038 139.802 246.533 135.92Z" fill="#13448C"/>
<path d="M211.609 137.92C211.609 137.92 207.75 138.334 203.822 142.262C201.181 144.902 188.255 170.631 188.255 170.631L176.325 134.096L167.59 134.768C167.59 134.768 177.425 193.528 185.077 193.638C192.313 193.741 215.296 155.701 215.296 155.701L211.609 137.92Z" fill="#F95858"/>
<path d="M236.28 153.322L243.93 181.956L198.705 185.652L198.912 193.818C198.912 193.818 251.047 194.051 260.867 193.947C267.408 193.878 255.094 142.089 247.237 136.163C241.024 131.476 223.849 132.726 223.849 132.726L211.608 137.92C211.608 137.92 197.412 151.978 205.888 165.21C212.565 175.633 204.054 195.882 204.054 195.882L232.96 197.602L258.776 197.846L236.28 153.322Z" fill="#F95858"/>
<path d="M207.421 184.939L209.042 184.643C210.593 177.872 210.868 168.622 207.335 164.176C200.334 155.366 207.543 142.571 211.591 137.945H211.585C210.937 138.599 197.621 152.295 205.89 165.212C209.84 171.38 208.873 179.412 207.421 184.939Z" fill="#E54848"/>
<path d="M198.834 187.537C194.051 187.712 188.936 189.423 186.541 192.236C186.01 192.861 186.462 193.822 187.282 193.822H198.908L198.834 187.537Z" fill="#FFB19E"/>
<path d="M223.857 123.111V132.767L215.203 142.676L215.148 142.566L212.792 137.523V132.106C208.476 131.5 204.666 128.23 203.642 123.551L202.42 116.868C202.42 116.868 208.872 116.185 214.003 110.966C214.003 110.966 215.544 113.796 217.758 115.987C219.365 117.583 221.59 117.98 222.437 118.85C223.571 120.006 223.978 121.525 223.857 123.111Z" fill="#FFB19E"/>
<path d="M221.491 114.746C221.491 114.746 221.163 110.672 219.629 107.202C217.86 103.2 215.367 98.514 210.196 98.5C210.196 98.5 222.753 96.549 224.856 114.029L221.491 114.746Z" fill="#FF4751"/>
<path d="M229.005 117.618C228.642 114.256 225.825 111.802 222.714 112.138C219.603 112.474 217.374 115.472 217.737 118.834C218.1 122.196 220.917 124.65 224.028 124.314C227.14 123.978 229.368 120.98 229.005 117.618Z" fill="#FF4751"/>
<path d="M225.088 123.721C222.092 124.044 219.38 121.682 219.031 118.445C218.707 115.445 220.528 112.75 223.18 112.114C223.025 112.117 222.87 112.122 222.714 112.139C219.603 112.475 217.374 115.473 217.737 118.835C218.1 122.197 220.917 124.651 224.028 124.315C224.986 124.212 225.86 123.854 226.601 123.312C226.13 123.52 225.623 123.663 225.088 123.721Z" fill="#CC3241"/>
<path d="M226.83 117.775C226.654 116.145 225.289 114.956 223.781 115.119C222.273 115.282 221.193 116.735 221.369 118.364C221.545 119.994 222.91 121.182 224.418 121.02C225.926 120.857 227.005 119.404 226.83 117.775Z" fill="#CC3241"/>
<path d="M220.972 128.01C220.609 128.483 218.561 131.06 216.92 132.436C216.259 132.987 215.907 133.801 215.907 134.66L215.147 142.565L212.791 137.522V132.127L212.846 132.072C212.846 132.072 218.296 131.248 220.972 128.01Z" fill="#F48F7A"/>
<path d="M217.29 127.596L217.196 127.046C220.353 126.506 222.661 122.26 222.684 122.217L223.176 122.481C223.077 122.666 220.713 127.011 217.29 127.596Z" fill="#FF4751"/>
<path d="M217.878 127.284C217.803 126.766 217.019 126.482 216.127 126.649C215.235 126.816 214.572 127.371 214.647 127.889C214.722 128.407 215.506 128.691 216.398 128.524C217.29 128.357 217.953 127.802 217.878 127.284Z" fill="#FF4751"/>
<path d="M175.613 134.319C175.613 134.319 176.846 124.208 175.736 123.838C174.626 123.468 173.517 127.784 173.517 127.784C173.517 127.784 168.832 118.66 165.626 119.646C162.42 120.632 168.315 134.664 168.315 134.664L175.613 134.319Z" fill="#FFB19E"/>
<path d="M207.404 184.884L243.017 181.905C244.239 181.803 245.101 180.664 244.863 179.462C243.548 172.805 239.746 153.717 239.518 154.286C239.242 154.975 243.102 176.752 238.553 178.957C235.443 180.466 207.404 184.884 207.404 184.884Z" fill="#E54848"/>
<path d="M231.624 290.229C231.366 290.292 231.12 290.443 230.946 290.69C228.68 293.844 226.669 294.588 222.694 295.123C222.457 295.156 222.209 295.238 221.947 295.373C222.252 294.915 223.577 292.744 222.664 290.79C221.637 288.588 220.397 286.985 220.397 286.985L226.206 283.527C226.206 283.527 229.767 287.637 231.624 290.229Z" fill="#FFB19E"/>
<path d="M235.924 297.615C234.897 298.599 218.322 307.659 214.384 309.933C213.903 310.21 212.929 310.718 212.75 310.192C212.471 309.371 219.638 295.54 222.693 295.126C226.666 294.588 228.679 293.845 230.942 290.689C231.416 290.028 232.401 290.032 232.849 290.711C234.44 293.117 236.75 296.825 235.924 297.615Z" fill="#13448C"/>
<path d="M204.283 195.836C204.283 195.836 164.06 214.481 162.993 227.412C162.044 238.912 221.325 291.524 221.325 291.524L230.697 287.665L198.255 235.37C198.255 235.37 232.624 218.429 241.023 198.032L204.283 195.836Z" fill="#13448C"/>
<path d="M178.648 224.021C175.918 229.271 173.915 236.603 172.517 243.248C177.071 248.654 182.814 254.741 188.752 260.727C184.367 243.401 180.475 226.024 181.819 223.537C184.384 218.792 201.429 206.174 213.474 199.898C213.474 199.898 184.979 211.844 178.648 224.021Z" fill="#09326D"/>
<path d="M207.927 301.027C207.671 300.956 207.382 300.967 207.11 301.098C203.592 302.743 201.474 302.41 197.744 300.935C197.521 300.848 197.265 300.799 196.971 300.788C197.461 300.538 199.677 299.29 199.835 297.14C200.015 294.717 199.715 292.713 199.715 292.713L206.473 292.533C206.473 292.533 207.573 297.858 207.927 301.027Z" fill="#FFB19E"/>
<path d="M208.07 310.064C206.693 310.421 187.13 310.204 182.583 310.263C182.028 310.27 181.604 309.771 181.705 309.225C181.862 308.372 194.873 299.805 197.741 300.936C201.471 302.407 203.59 302.743 207.106 301.095C207.842 300.75 208.7 301.235 208.76 302.046C208.972 304.923 209.177 309.778 208.07 310.064Z" fill="#13448C"/>
<path d="M258.637 197.758C258.637 197.758 262.006 220.536 241.59 226.302C225.495 230.847 208.237 233.166 208.237 233.166L209.472 297.817H198.736C198.736 297.817 179.028 228.686 181.816 223.539C184.982 217.694 210.06 199.941 220.774 196.737L258.637 197.758Z" fill="#1D54B5"/>
<path opacity="0.13" d="M208.237 233.166C208.237 233.166 225.495 230.847 241.59 226.302C262.006 220.536 258.637 197.758 258.637 197.758L245.997 197.417C242.199 205.584 229.849 225.802 199.899 227.983L206.68 297.816H209.472L208.237 233.166Z" fill="#0E367C"/>
<path d="M75.3651 310.473L70.8691 310.439L89.5591 198.114L94.0811 198.079L75.3651 310.473Z" fill="white"/>
<path d="M260.5 310.437L265.275 310.473L242.103 196.831L237.358 196.867L260.5 310.437Z" fill="white"/>
<path d="M92.849 204.306L94.081 198.079L89.559 198.114L88.334 204.306H92.849Z" fill="#E4EDF7"/>
<path d="M243.623 204.306L242.103 196.831L237.358 196.867L238.87 204.306H243.623Z" fill="#E4EDF7"/>
<path d="M269.366 193.761H66.6912C65.4302 193.761 64.4082 194.783 64.4082 196.044C64.4082 197.305 65.4302 198.327 66.6912 198.327H269.366C270.627 198.327 271.649 197.305 271.649 196.044C271.649 194.783 270.627 193.761 269.366 193.761Z" fill="white"/>
<path d="M189.286 94.1891L183.945 63.2641C183.737 61.8331 182.509 60.7711 181.063 60.7711L131.376 61.3141C129.601 61.3141 128.238 62.8891 128.494 64.6461L133.18 91.7811L135.55 107.144C135.675 107.956 136.734 108.189 137.189 107.505L143.513 97.9901L186.404 97.5211C188.179 97.5221 189.542 95.9471 189.286 94.1891Z" fill="#1D54B5"/>
<path d="M171.617 70.3671H142.822C142.326 70.3671 141.948 70.8111 142.028 71.3001L142.164 72.1401C142.227 72.5301 142.564 72.8161 142.959 72.8161H171.754C172.25 72.8161 172.628 72.3721 172.549 71.8831L172.413 71.0431C172.349 70.6531 172.012 70.3671 171.617 70.3671Z" fill="white"/>
<path d="M172.585 78.0101H143.79C143.294 78.0101 142.916 78.4541 142.996 78.9431L143.132 79.7831C143.195 80.1731 143.532 80.4591 143.926 80.4591H172.721C173.217 80.4591 173.595 80.0151 173.515 79.5261L173.379 78.6861C173.316 78.2971 172.98 78.0101 172.585 78.0101Z" fill="white"/>
<path d="M165.726 86.308L152.401 86.331C151.905 86.331 151.527 86.775 151.607 87.265L151.743 88.105C151.806 88.495 152.143 88.7811 152.537 88.7811L165.862 88.758C166.358 88.758 166.736 88.314 166.656 87.825L166.52 86.985C166.457 86.594 166.121 86.308 165.726 86.308Z" fill="white"/>
<path d="M391.125 45.1831L397.736 16.0941C398.078 14.7481 397.323 13.7491 395.963 13.7491L349.021 14.2601C347.351 14.2601 345.477 15.7421 345.056 17.3941L339.255 42.9181L335.704 57.3691C335.516 58.1331 336.425 58.3521 337.11 57.7091L346.639 48.758L387.16 48.3171C388.831 48.3171 390.705 46.8351 391.125 45.1831Z" fill="#1D54B5"/>
<path d="M382.744 23.1951H356.974C356.53 23.1951 356.033 23.5921 355.929 24.0301L355.75 24.7821C355.667 25.1311 355.866 25.3871 356.219 25.3871H381.989C382.433 25.3871 382.93 24.9901 383.034 24.5521L383.213 23.8001C383.296 23.4511 383.097 23.1951 382.744 23.1951Z" fill="white"/>
<path d="M380.874 30.0351H355.104C354.66 30.0351 354.163 30.4321 354.059 30.8701L353.88 31.6221C353.797 31.9711 353.996 32.2271 354.349 32.2271H380.119C380.563 32.2271 381.06 31.8301 381.164 31.3921L381.343 30.6401C381.426 30.2921 381.227 30.0351 380.874 30.0351Z" fill="white"/>
<path d="M371.765 37.4611L359.831 37.4821C359.387 37.4821 358.89 37.8791 358.786 38.3171L358.607 39.0691C358.524 39.4181 358.723 39.6741 359.076 39.6741L371.01 39.6531C371.454 39.6531 371.951 39.2561 372.055 38.8181L372.234 38.0661C372.317 37.7171 372.119 37.4611 371.765 37.4611Z" fill="white"/>
<path d="M123.724 93.965C124.368 94.5 125.329 93.944 125.186 93.119L118.816 56.392C118.639 55.177 117.598 54.277 116.37 54.277L74.2037 54.738C72.6967 54.738 71.5407 56.075 71.7577 57.566L76.2897 83.81C76.4667 85.025 77.5077 85.926 78.7357 85.926L111.204 85.571C112.75 85.554 114.251 86.087 115.44 87.076L123.724 93.965Z" fill="#F95858"/>
<path d="M110.594 65.301H81.7986C81.3026 65.301 80.9246 65.745 81.0036 66.234L81.1396 67.074C81.2026 67.464 81.5396 67.75 81.9336 67.75H110.729C111.225 67.75 111.603 67.306 111.523 66.817L111.387 65.977C111.325 65.587 110.989 65.301 110.594 65.301Z" fill="white"/>
<path d="M111.561 72.944H82.7654C82.2694 72.944 81.8914 73.388 81.9704 73.877L82.1064 74.717C82.1694 75.107 82.5064 75.393 82.9004 75.393H111.695C112.191 75.393 112.569 74.949 112.489 74.46L112.353 73.62C112.292 73.23 111.955 72.944 111.561 72.944Z" fill="white"/>
<path d="M346.017 155.31L345.862 161.091L342.392 295.335H328.522L316.235 180.31C316.235 180.31 316.224 180.321 316.224 180.343L300.606 219.124L311.265 295.332L306.139 295.376L297.661 295.454C297.661 295.454 272.3 219.401 272.811 214.475C273.332 209.559 292.369 155.809 292.369 155.809L346.017 155.31Z" fill="#1D54B5"/>
<path d="M347.363 72.2201L321.306 68.6381L320.696 68.5491L308.235 68.6051L308.124 68.6271L293.242 72.3511V156.045H347.363V72.2201Z" fill="#F95858"/>
<path d="M391.952 88.4811C391.952 88.4811 393.847 76.6501 395.221 76.5921C396.596 76.5351 396.447 81.7751 396.447 81.7751C396.447 81.7751 404.712 72.9841 408.015 75.1421C411.318 77.3001 400.091 91.2451 400.091 91.2451L391.952 88.4811Z" fill="#FFB19E"/>
<path d="M308.257 68.6711L309.668 161.091H290.182L288.805 135.796L262.95 135.375C260.263 135.462 258.272 132.904 259.015 130.32L271.895 85.5371C273.393 80.3001 277.565 76.2721 282.847 74.9511L308.124 68.6261L308.257 68.6711Z" fill="#4286E8"/>
<path d="M400.935 91.6201L375.867 143.116C374.28 146.001 370.164 146.068 368.466 143.26L348.848 110.748L347.871 161.091H327.055L321.229 68.6601L321.307 68.6381L347.782 72.2771C352.775 73.0321 357.081 76.2051 359.289 80.7541L372.682 108.372C373.015 109.049 373.936 109.16 374.424 108.583L391.46 88.2321L400.935 91.6201Z" fill="#4286E8"/>
<path d="M288.683 136.042H314.087L314.332 123.033L288.929 122.665L288.683 136.042Z" fill="#4286E8"/>
<path d="M314.246 132.449C321.411 132.187 329.075 129.624 332.661 125.41C333.457 124.474 332.78 123.033 331.551 123.033H314.134L314.246 132.449Z" fill="#FFB19E"/>
<path opacity="0.41" d="M304.337 136.574L304.361 136.157L288.818 136.043L290.181 161.091L294.818 140.337L304.337 136.574Z" fill="#13448C"/>
<path opacity="0.32" d="M345.863 161.091L342.393 295.335H341.417L332.104 161.091H345.863Z" fill="#0E367C"/>
<path opacity="0.41" d="M314.301 122.941C314.301 122.941 279.84 125.437 280.061 124.782L286.043 104.168L286.132 104.479L286.72 118.86C286.798 120.812 312.504 122.431 314.301 122.941Z" fill="#13448C"/>
<path opacity="0.41" d="M375.867 143.115L400.935 91.6191L400.818 91.5811C398.158 91.5681 374.834 140.336 372.379 141.564C369.585 142.961 348.847 110.748 348.847 110.748L368.466 143.26C370.164 146.067 374.28 146.001 375.867 143.115Z" fill="#13448C"/>
<path d="M299.236 295.31C296.245 301.436 282.029 304.531 282.029 304.531C282.029 304.531 281.003 306.339 282.626 308.626C284.249 310.912 299.209 309.512 301.084 309.096C302.959 308.679 304.25 307.158 304.25 307.158C304.25 307.158 305.509 308.526 306.212 308.864C306.915 309.202 310.735 308.437 310.735 308.437C311.634 306 310.738 296.696 310.48 295.212L299.236 295.31Z" fill="#13448C"/>
<path d="M341.092 295.31C344.083 301.436 358.299 304.531 358.299 304.531C358.299 304.531 359.325 306.339 357.702 308.626C356.079 310.912 341.12 309.512 339.244 309.096C337.369 308.679 336.078 307.158 336.078 307.158C336.078 307.158 334.819 308.526 334.116 308.864C333.413 309.202 329.593 308.437 329.593 308.437C328.694 306 329.59 296.696 329.848 295.212L341.092 295.31Z" fill="#13448C"/>
<path opacity="0.32" d="M300.606 219.124L311.265 295.332L306.139 295.376C302.976 278.965 291.919 224.095 292.329 220.655C292.806 216.549 315.526 181.507 316.225 180.342L300.606 219.124Z" fill="#0E367C"/>
<path fill-rule="evenodd" clip-rule="evenodd" d="M321.252 68.719C319.364 70.227 314.798 73.442 314.798 73.442C314.798 73.442 310.154 70.259 308.234 68.732L308.219 57.701H321.253V68.719H321.252Z" fill="#FFB19E"/>
<path fill-rule="evenodd" clip-rule="evenodd" d="M321.257 57.701V62.315C317.482 65.445 312.008 65.455 308.223 62.369V57.702L321.257 57.701Z" fill="#FFB19E"/>
<path fill-rule="evenodd" clip-rule="evenodd" d="M300.268 50.5711H329.554L330.006 42.4181C336.48 39.6791 331.625 24.2411 331.625 24.2411C331.998 27.9761 321.914 28.1011 317.93 27.4781C313.946 26.8551 311.207 28.4741 311.207 28.4741C311.207 28.4741 298.508 25.7351 299.255 43.5391C299.367 46.2291 299.726 48.4991 300.268 50.5711Z" fill="#13448C"/>
<path fill-rule="evenodd" clip-rule="evenodd" d="M326.457 42.4051V49.7531C326.457 52.8981 325.164 55.8991 322.881 58.0531C322.508 58.3831 322.134 58.7421 321.747 59.1011C317.798 62.8201 311.623 62.8201 307.673 59.1011L306.553 58.0531C304.263 55.9091 302.963 52.9131 302.963 49.7761V44.1691C302.963 44.1691 306.357 41.8951 311.024 36.3301C311.024 36.3301 316.186 41.2851 326.457 42.4051Z" fill="#FFB19E"/>
<path fill-rule="evenodd" clip-rule="evenodd" d="M321.256 59.5291V62.314C317.481 65.444 312.007 65.454 308.222 62.368V59.5721C312.007 62.6701 317.481 62.6591 321.256 59.5291Z" fill="#F48F7A"/>
<path fill-rule="evenodd" clip-rule="evenodd" d="M305.88 51.4331C308.155 47.7901 304.318 43.9521 300.673 46.2251C300.389 46.4021 300.141 46.6491 299.964 46.9331C297.682 50.5791 301.526 54.4231 305.172 52.1411C305.456 51.9641 305.703 51.7171 305.88 51.4331Z" fill="#FFB19E"/>
<path fill-rule="evenodd" clip-rule="evenodd" d="M329.275 51.4341C331.499 47.8761 327.891 44.1311 324.327 46.0751C323.856 46.3321 323.463 46.7251 323.206 47.1961C321.262 50.7601 325.007 54.3681 328.566 52.1431C328.85 51.9661 329.098 51.7191 329.275 51.4341Z" fill="#FFB19E"/>
<path d="M329.165 43.6771H328.052V39.8221C328.052 33.4191 322.212 28.2101 315.034 28.2101H314.485C307.306 28.2101 301.466 33.4191 301.466 39.8221V43.6771H300.353V39.8221C300.353 32.8351 306.693 27.1501 314.486 27.1501H315.035C322.827 27.1501 329.167 32.8351 329.167 39.8221V43.6771H329.165Z" fill="#A31919"/>
<path d="M328.238 41.621C326.511 41.621 325.098 43.034 325.098 44.761V50.359C325.098 52.086 326.511 53.499 328.238 53.499C329.965 53.499 331.378 52.086 331.378 50.359V44.761C331.378 43.034 329.965 41.621 328.238 41.621Z" fill="#F95858"/>
<path d="M328.238 41.621C327.908 41.621 327.596 41.687 327.296 41.782C328.564 42.186 329.494 43.364 329.494 44.761V50.359C329.494 51.756 328.563 52.934 327.296 53.338C327.595 53.433 327.908 53.499 328.238 53.499C329.965 53.499 331.378 52.086 331.378 50.359V44.761C331.378 43.034 329.965 41.621 328.238 41.621Z" fill="#CC3241"/>
<path d="M301.277 41.621C299.55 41.621 298.137 43.034 298.137 44.761V50.359C298.137 52.086 299.55 53.499 301.277 53.499C303.004 53.499 304.417 52.086 304.417 50.359V44.761C304.417 43.034 303.004 41.621 301.277 41.621Z" fill="#F95858"/>
<path d="M301.277 41.621C300.947 41.621 300.635 41.687 300.335 41.782C301.603 42.186 302.533 43.364 302.533 44.761V50.359C302.533 51.756 301.602 52.934 300.335 53.338C300.634 53.433 300.947 53.499 301.277 53.499C303.004 53.499 304.417 52.086 304.417 50.359V44.761C304.417 43.034 303.004 41.621 301.277 41.621Z" fill="#CC3241"/>
<path d="M319.757 57.006L319.717 56.382C323.297 56.155 326.373 51.7 326.403 51.655L326.92 52.008C326.789 52.202 323.639 56.76 319.757 57.006Z" fill="#FF4751"/>
<path d="M320.45 56.727C320.428 56.141 319.589 55.732 318.575 55.812C317.561 55.892 316.757 56.432 316.779 57.017C316.801 57.603 317.64 58.012 318.654 57.932C319.667 57.853 320.471 57.313 320.45 56.727Z" fill="#FF4751"/>
<path d="M335.32 84.8441H289.831C287.356 84.8441 285.418 86.9851 285.524 89.5841L286.717 118.863C286.813 121.219 288.8 123.134 291.133 123.134H334.017C336.35 123.134 338.337 121.219 338.433 118.863L339.626 89.5841C339.733 86.9861 337.795 84.8441 335.32 84.8441Z" fill="#13448C"/>
<path d="M335.319 84.8441H289.83C288.584 84.8441 287.475 85.3891 286.694 86.2591C287.068 86.1491 287.456 86.0711 287.867 86.0711H333.356C335.831 86.0711 337.769 88.2121 337.663 90.8101L336.47 120.089C336.425 121.183 335.962 122.171 335.257 122.927C337.012 122.391 338.356 120.783 338.434 118.862L339.627 89.5831C339.732 86.9861 337.794 84.8441 335.319 84.8441Z" fill="#1D54B5"/>
<path d="M317.4 104.747C317.4 101.9 315.092 99.5931 312.246 99.5931C309.399 99.5931 307.092 101.901 307.092 104.747C307.092 107.594 309.4 109.901 312.246 109.901C315.092 109.902 317.4 107.594 317.4 104.747Z" fill="#4286E8"/>
</svg>
