<svg width="985" height="261" viewBox="0 0 985 261" fill="none" xmlns="http://www.w3.org/2000/svg">
<ellipse cx="143.598" cy="131.449" rx="116.266" ry="118.435" fill="white"/>
<path d="M236.653 203.263C188.948 261.22 121.14 250.025 95.0433 237.183C73.0719 224.453 58.8449 209.265 54.4779 203.263C37.7258 184.207 31.2371 153.815 30.1554 139.577C24.9631 57.4989 86.3895 22.496 119.788 15.6561C174.633 4.26573 218.092 37.4319 232.966 55.4388C213.819 28.9729 191.724 15.0978 183.07 11.4685C85.7134 -27.3929 21.5488 41.8267 8.23335 80.5648C-9.61542 132.492 5.6642 177.579 15.5351 193.631C37.2782 232.493 70.2984 249.467 84.0906 253.096C165.546 279.562 220.968 230.902 236.653 203.263Z" fill="url(#paint0_linear_222_756)"/>
<path d="M119.305 57.0469H161.603V148.801L152.276 137.739L119.305 161.382V57.0469Z" fill="#7B7B7B" stroke="white" stroke-width="2.16914"/>
<path d="M175.268 5.20508H216.264L217.132 137.306L177.654 166.155L175.268 163.118V5.20508Z" fill="#7B7B7B" stroke="white" stroke-width="2.16914"/>
<path d="M63.7744 98.9111V197.39L105.639 167.239V98.9111H63.7744Z" fill="#7B7B7B" stroke="white" stroke-width="2.16914"/>
<path d="M106.291 233.832V200.427L119.522 190.015V237.519C141.561 245.62 156.759 240.894 161.604 237.519V186.761L175.269 194.57V236.001C196.787 230.968 212.434 216.406 217.567 209.754V165.07L264.421 127.761L274.616 138.823L287.414 98.9111L241.645 103.9C243.38 109.323 247.024 120.646 247.719 122.555C248.413 124.464 201.299 158.201 177.655 174.831L150.975 145.981L67.2461 206.284C76.7903 221.034 97.2525 230.795 106.291 233.832Z" fill="#41C498" stroke="white" stroke-width="2.16914"/>
<path d="M362.027 127.001H339.762L368.682 41.2889H396.262L425.181 127.001H402.916L382.786 62.8843H382.116L362.027 127.001ZM359.056 93.2686H405.595V109.005H359.056V93.2686ZM439.759 58.1133V41.2889H512.204V58.1133H486.214V127.001H465.79V58.1133H439.759ZM541.178 127.001V41.2889H561.895V77.5324H563.025L591.358 41.2889H615.758L585.373 79.5413L616.302 127.001H591.525L570.181 93.3104L561.895 103.773V127.001H541.178ZM688.195 66.9858C687.916 63.9167 686.674 61.5311 684.47 59.8292C682.294 58.0993 679.183 57.2344 675.137 57.2344C672.459 57.2344 670.226 57.5831 668.441 58.2807C666.655 58.9782 665.316 59.9408 664.423 61.1684C663.53 62.3682 663.07 63.7493 663.042 65.3117C662.986 66.5952 663.237 67.7252 663.795 68.7017C664.381 69.6782 665.218 70.5432 666.306 71.2965C667.422 72.0219 668.762 72.6637 670.324 73.2217C671.887 73.7797 673.644 74.268 675.597 74.6865L682.963 76.3605C687.204 77.2813 690.943 78.5089 694.179 80.0435C697.444 81.578 700.178 83.4056 702.382 85.526C704.614 87.6465 706.302 90.0879 707.446 92.8501C708.59 95.6123 709.176 98.7093 709.204 102.141C709.176 107.554 707.809 112.199 705.103 116.078C702.396 119.956 698.504 122.927 693.426 124.992C688.376 127.057 682.28 128.089 675.137 128.089C667.966 128.089 661.717 127.015 656.387 124.867C651.058 122.718 646.915 119.454 643.958 115.073C641 110.693 639.479 105.154 639.396 98.4582H659.233C659.401 101.22 660.14 103.522 661.452 105.364C662.763 107.205 664.563 108.6 666.85 109.549C669.166 110.497 671.845 110.972 674.886 110.972C677.676 110.972 680.048 110.595 682.001 109.842C683.982 109.088 685.502 108.042 686.562 106.703C687.623 105.364 688.167 103.829 688.195 102.099C688.167 100.481 687.665 99.0999 686.688 97.956C685.712 96.7841 684.205 95.7797 682.168 94.9427C680.159 94.0777 677.592 93.2825 674.467 92.5571L665.511 90.4645C658.089 88.7626 652.244 86.0143 647.975 82.2198C643.706 78.3973 641.586 73.2356 641.614 66.7347C641.586 61.4335 643.009 56.788 645.883 52.7981C648.757 48.8082 652.732 45.6973 657.81 43.4652C662.888 41.2331 668.678 40.1171 675.179 40.1171C681.819 40.1171 687.581 41.2471 692.464 43.507C697.374 45.7391 701.183 48.878 703.889 52.9237C706.595 56.9693 707.977 61.6567 708.032 66.9858H688.195ZM738.524 41.2889H764.179L785.942 94.3567H786.946L808.709 41.2889H834.364V127.001H814.191V74.3517H813.48L792.889 126.457H779.999L759.408 74.0587H758.696V127.001H738.524V41.2889ZM885.603 41.2889L904.771 104.066H905.483L924.651 41.2889H947.837L918.917 127.001H891.337L862.417 41.2889H885.603Z" fill="#56D8A9"/>
<path d="M395.405 160.531V182H390.866V160.531H395.405ZM408.54 172.691V182H404.074V165.898H408.33V168.739H408.519C408.875 167.803 409.473 167.062 410.312 166.517C411.15 165.965 412.167 165.689 413.362 165.689C414.48 165.689 415.455 165.933 416.287 166.422C417.118 166.912 417.765 167.61 418.226 168.519C418.687 169.42 418.918 170.497 418.918 171.748V182H414.452V172.544C414.459 171.559 414.208 170.79 413.698 170.238C413.187 169.679 412.485 169.399 411.59 169.399C410.989 169.399 410.458 169.529 409.997 169.787C409.543 170.046 409.186 170.423 408.928 170.92C408.676 171.409 408.547 171.999 408.54 172.691ZM441.891 165.898L436.262 182H431.23L425.601 165.898H430.318L433.662 177.419H433.83L437.163 165.898H441.891ZM456.014 182.314C454.358 182.314 452.932 181.979 451.737 181.308C450.549 180.63 449.633 179.673 448.99 178.436C448.347 177.192 448.026 175.721 448.026 174.022C448.026 172.366 448.347 170.913 448.99 169.662C449.633 168.411 450.538 167.436 451.705 166.737C452.88 166.038 454.256 165.689 455.836 165.689C456.898 165.689 457.887 165.86 458.802 166.202C459.725 166.538 460.529 167.044 461.214 167.722C461.905 168.4 462.444 169.253 462.828 170.28C463.212 171.3 463.404 172.495 463.404 173.865V175.092H449.808V172.324H459.201C459.201 171.681 459.061 171.112 458.781 170.616C458.502 170.119 458.114 169.731 457.618 169.452C457.129 169.165 456.559 169.022 455.909 169.022C455.231 169.022 454.63 169.179 454.106 169.494C453.589 169.801 453.184 170.217 452.89 170.741C452.597 171.258 452.446 171.835 452.439 172.471V175.102C452.439 175.899 452.586 176.587 452.88 177.167C453.18 177.747 453.603 178.195 454.148 178.509C454.693 178.824 455.34 178.981 456.087 178.981C456.584 178.981 457.038 178.911 457.45 178.771C457.862 178.631 458.215 178.422 458.509 178.142C458.802 177.863 459.026 177.52 459.18 177.115L463.31 177.387C463.1 178.38 462.671 179.246 462.021 179.987C461.378 180.721 460.546 181.294 459.526 181.706C458.512 182.112 457.342 182.314 456.014 182.314ZM484.734 170.49L480.646 170.741C480.576 170.392 480.426 170.077 480.195 169.798C479.965 169.511 479.661 169.284 479.283 169.116C478.913 168.942 478.469 168.854 477.952 168.854C477.26 168.854 476.676 169.001 476.201 169.295C475.726 169.581 475.488 169.966 475.488 170.448C475.488 170.832 475.642 171.157 475.95 171.423C476.257 171.688 476.785 171.901 477.533 172.062L480.447 172.649C482.012 172.971 483.179 173.488 483.948 174.201C484.717 174.914 485.101 175.85 485.101 177.01C485.101 178.065 484.79 178.991 484.168 179.788C483.553 180.585 482.708 181.207 481.631 181.654C480.562 182.094 479.329 182.314 477.931 182.314C475.799 182.314 474.101 181.871 472.836 180.983C471.578 180.089 470.841 178.873 470.624 177.335L475.017 177.104C475.149 177.754 475.471 178.251 475.981 178.593C476.491 178.928 477.145 179.096 477.941 179.096C478.724 179.096 479.353 178.946 479.828 178.645C480.311 178.338 480.555 177.943 480.562 177.461C480.555 177.056 480.384 176.724 480.048 176.465C479.713 176.199 479.196 175.997 478.497 175.857L475.709 175.301C474.136 174.987 472.965 174.442 472.197 173.666C471.435 172.89 471.054 171.901 471.054 170.699C471.054 169.665 471.334 168.774 471.893 168.026C472.459 167.278 473.252 166.702 474.272 166.297C475.3 165.891 476.502 165.689 477.878 165.689C479.912 165.689 481.513 166.118 482.68 166.978C483.854 167.838 484.539 169.008 484.734 170.49ZM501.496 165.898V169.253H491.8V165.898H501.496ZM494.001 162.04H498.467V177.052C498.467 177.464 498.53 177.786 498.655 178.016C498.781 178.24 498.956 178.397 499.18 178.488C499.41 178.579 499.676 178.624 499.976 178.624C500.186 178.624 500.396 178.607 500.605 178.572C500.815 178.53 500.976 178.499 501.087 178.478L501.79 181.801C501.566 181.871 501.252 181.951 500.846 182.042C500.441 182.14 499.948 182.199 499.368 182.22C498.292 182.262 497.349 182.119 496.538 181.79C495.734 181.462 495.109 180.952 494.661 180.26C494.214 179.568 493.994 178.694 494.001 177.639V162.04ZM509.424 182V165.898H513.68V168.739H513.868C514.204 167.796 514.763 167.051 515.546 166.506C516.328 165.961 517.265 165.689 518.355 165.689C519.459 165.689 520.399 165.965 521.175 166.517C521.951 167.062 522.468 167.803 522.727 168.739H522.894C523.223 167.817 523.817 167.079 524.676 166.527C525.543 165.968 526.567 165.689 527.748 165.689C529.25 165.689 530.47 166.167 531.406 167.125C532.35 168.075 532.822 169.424 532.822 171.171V182H528.366V172.052C528.366 171.157 528.129 170.486 527.654 170.039C527.178 169.592 526.584 169.368 525.871 169.368C525.061 169.368 524.428 169.627 523.974 170.144C523.52 170.654 523.293 171.328 523.293 172.167V182H518.963V171.957C518.963 171.168 518.736 170.539 518.282 170.07C517.835 169.602 517.244 169.368 516.51 169.368C516.014 169.368 515.567 169.494 515.168 169.745C514.777 169.99 514.466 170.336 514.235 170.783C514.005 171.224 513.889 171.741 513.889 172.335V182H509.424ZM548.706 182.314C547.049 182.314 545.624 181.979 544.429 181.308C543.241 180.63 542.325 179.673 541.682 178.436C541.039 177.192 540.718 175.721 540.718 174.022C540.718 172.366 541.039 170.913 541.682 169.662C542.325 168.411 543.23 167.436 544.397 166.737C545.571 166.038 546.948 165.689 548.527 165.689C549.59 165.689 550.579 165.86 551.494 166.202C552.417 166.538 553.22 167.044 553.905 167.722C554.597 168.4 555.135 169.253 555.52 170.28C555.904 171.3 556.096 172.495 556.096 173.865V175.092H542.5V172.324H551.892C551.892 171.681 551.753 171.112 551.473 170.616C551.194 170.119 550.806 169.731 550.31 169.452C549.82 169.165 549.251 169.022 548.601 169.022C547.923 169.022 547.322 169.179 546.798 169.494C546.281 169.801 545.875 170.217 545.582 170.741C545.288 171.258 545.138 171.835 545.131 172.471V175.102C545.131 175.899 545.278 176.587 545.571 177.167C545.872 177.747 546.295 178.195 546.84 178.509C547.385 178.824 548.031 178.981 548.779 178.981C549.275 178.981 549.729 178.911 550.142 178.771C550.554 178.631 550.907 178.422 551.201 178.142C551.494 177.863 551.718 177.52 551.871 177.115L556.002 177.387C555.792 178.38 555.362 179.246 554.712 179.987C554.069 180.721 553.238 181.294 552.217 181.706C551.204 182.112 550.033 182.314 548.706 182.314ZM568.495 172.691V182H564.029V165.898H568.285V168.739H568.474C568.83 167.803 569.427 167.062 570.266 166.517C571.105 165.965 572.122 165.689 573.317 165.689C574.435 165.689 575.41 165.933 576.241 166.422C577.073 166.912 577.72 167.61 578.181 168.519C578.642 169.42 578.873 170.497 578.873 171.748V182H574.407V172.544C574.414 171.559 574.162 170.79 573.652 170.238C573.142 169.679 572.44 169.399 571.545 169.399C570.944 169.399 570.413 169.529 569.952 169.787C569.497 170.046 569.141 170.423 568.882 170.92C568.631 171.409 568.502 171.999 568.495 172.691ZM595.975 165.898V169.253H586.279V165.898H595.975ZM588.48 162.04H592.946V177.052C592.946 177.464 593.009 177.786 593.134 178.016C593.26 178.24 593.435 178.397 593.659 178.488C593.889 178.579 594.155 178.624 594.455 178.624C594.665 178.624 594.875 178.607 595.084 178.572C595.294 178.53 595.455 178.499 595.566 178.478L596.269 181.801C596.045 181.871 595.731 181.951 595.325 182.042C594.92 182.14 594.427 182.199 593.847 182.22C592.771 182.262 591.828 182.119 591.017 181.79C590.213 181.462 589.588 180.952 589.14 180.26C588.693 179.568 588.473 178.694 588.48 177.639V162.04ZM620.345 182.304C619.318 182.304 618.402 182.126 617.598 181.769C616.795 181.406 616.159 180.871 615.69 180.165C615.229 179.453 614.999 178.565 614.999 177.503C614.999 176.608 615.163 175.857 615.491 175.249C615.82 174.641 616.267 174.152 616.833 173.781C617.399 173.411 618.042 173.131 618.762 172.943C619.489 172.754 620.251 172.621 621.047 172.544C621.984 172.447 622.738 172.356 623.312 172.272C623.885 172.181 624.3 172.048 624.559 171.873C624.818 171.699 624.947 171.44 624.947 171.098V171.035C624.947 170.371 624.737 169.857 624.318 169.494C623.906 169.13 623.319 168.949 622.557 168.949C621.753 168.949 621.114 169.127 620.638 169.483C620.163 169.833 619.849 170.273 619.695 170.804L615.565 170.469C615.774 169.49 616.187 168.645 616.802 167.932C617.417 167.212 618.21 166.66 619.181 166.276C620.16 165.884 621.292 165.689 622.578 165.689C623.472 165.689 624.328 165.793 625.146 166.003C625.971 166.213 626.701 166.538 627.337 166.978C627.98 167.418 628.487 167.984 628.857 168.676C629.227 169.361 629.413 170.182 629.413 171.14V182H625.178V179.767H625.052C624.793 180.27 624.447 180.714 624.014 181.098C623.581 181.476 623.06 181.773 622.452 181.99C621.844 182.199 621.142 182.304 620.345 182.304ZM621.624 179.222C622.281 179.222 622.861 179.093 623.364 178.834C623.867 178.569 624.262 178.212 624.549 177.765C624.835 177.318 624.978 176.811 624.978 176.245V174.536C624.839 174.627 624.646 174.711 624.402 174.788C624.164 174.858 623.895 174.924 623.595 174.987C623.294 175.043 622.994 175.095 622.693 175.144C622.393 175.186 622.12 175.225 621.875 175.259C621.351 175.336 620.893 175.459 620.502 175.626C620.111 175.794 619.807 176.021 619.59 176.308C619.373 176.587 619.265 176.937 619.265 177.356C619.265 177.964 619.485 178.429 619.926 178.75C620.373 179.065 620.939 179.222 621.624 179.222ZM645.15 188.374C643.703 188.374 642.463 188.174 641.428 187.776C640.401 187.385 639.583 186.85 638.975 186.172C638.367 185.494 637.973 184.733 637.791 183.887L641.921 183.331C642.047 183.653 642.246 183.953 642.519 184.233C642.791 184.512 643.151 184.736 643.598 184.904C644.053 185.078 644.605 185.166 645.255 185.166C646.226 185.166 647.026 184.928 647.655 184.453C648.291 183.985 648.609 183.199 648.609 182.094V179.149H648.421C648.225 179.596 647.931 180.019 647.54 180.417C647.149 180.815 646.645 181.14 646.03 181.392C645.415 181.644 644.682 181.769 643.829 181.769C642.62 181.769 641.519 181.49 640.527 180.931C639.541 180.365 638.755 179.502 638.168 178.341C637.588 177.174 637.298 175.7 637.298 173.918C637.298 172.094 637.595 170.57 638.189 169.347C638.783 168.124 639.573 167.209 640.558 166.601C641.551 165.993 642.637 165.689 643.819 165.689C644.72 165.689 645.475 165.842 646.083 166.15C646.691 166.45 647.18 166.828 647.55 167.282C647.928 167.729 648.218 168.169 648.421 168.603H648.588V165.898H653.023V182.157C653.023 183.527 652.687 184.673 652.016 185.596C651.345 186.518 650.416 187.21 649.228 187.671C648.047 188.14 646.687 188.374 645.15 188.374ZM645.244 178.415C645.964 178.415 646.572 178.237 647.068 177.88C647.571 177.517 647.956 177 648.221 176.329C648.494 175.651 648.63 174.84 648.63 173.897C648.63 172.953 648.497 172.136 648.232 171.444C647.966 170.745 647.582 170.203 647.079 169.819C646.576 169.434 645.964 169.242 645.244 169.242C644.51 169.242 643.892 169.441 643.389 169.84C642.886 170.231 642.505 170.776 642.246 171.475C641.988 172.174 641.858 172.981 641.858 173.897C641.858 174.826 641.988 175.63 642.246 176.308C642.512 176.979 642.893 177.499 643.389 177.87C643.892 178.233 644.51 178.415 645.244 178.415ZM668.933 182.314C667.276 182.314 665.851 181.979 664.656 181.308C663.468 180.63 662.552 179.673 661.909 178.436C661.266 177.192 660.945 175.721 660.945 174.022C660.945 172.366 661.266 170.913 661.909 169.662C662.552 168.411 663.457 167.436 664.624 166.737C665.798 166.038 667.175 165.689 668.755 165.689C669.817 165.689 670.806 165.86 671.721 166.202C672.644 166.538 673.447 167.044 674.132 167.722C674.824 168.4 675.362 169.253 675.747 170.28C676.131 171.3 676.323 172.495 676.323 173.865V175.092H662.727V172.324H672.12C672.12 171.681 671.98 171.112 671.7 170.616C671.421 170.119 671.033 169.731 670.537 169.452C670.047 169.165 669.478 169.022 668.828 169.022C668.15 169.022 667.549 169.179 667.025 169.494C666.508 169.801 666.102 170.217 665.809 170.741C665.515 171.258 665.365 171.835 665.358 172.471V175.102C665.358 175.899 665.505 176.587 665.798 177.167C666.099 177.747 666.522 178.195 667.067 178.509C667.612 178.824 668.258 178.981 669.006 178.981C669.502 178.981 669.957 178.911 670.369 178.771C670.781 178.631 671.134 178.422 671.428 178.142C671.721 177.863 671.945 177.52 672.099 177.115L676.229 177.387C676.019 178.38 675.589 179.246 674.939 179.987C674.297 180.721 673.465 181.294 672.445 181.706C671.431 182.112 670.261 182.314 668.933 182.314ZM688.722 172.691V182H684.256V165.898H688.512V168.739H688.701C689.057 167.803 689.655 167.062 690.493 166.517C691.332 165.965 692.349 165.689 693.544 165.689C694.662 165.689 695.637 165.933 696.469 166.422C697.3 166.912 697.947 167.61 698.408 168.519C698.869 169.42 699.1 170.497 699.1 171.748V182H694.634V172.544C694.641 171.559 694.389 170.79 693.879 170.238C693.369 169.679 692.667 169.399 691.772 169.399C691.171 169.399 690.64 169.529 690.179 169.787C689.724 170.046 689.368 170.423 689.109 170.92C688.858 171.409 688.729 171.999 688.722 172.691ZM716.202 165.898V169.253H706.506V165.898H716.202ZM708.707 162.04H713.173V177.052C713.173 177.464 713.236 177.786 713.362 178.016C713.487 178.24 713.662 178.397 713.886 178.488C714.116 178.579 714.382 178.624 714.682 178.624C714.892 178.624 715.102 178.607 715.311 178.572C715.521 178.53 715.682 178.499 715.794 178.478L716.496 181.801C716.272 181.871 715.958 181.951 715.552 182.042C715.147 182.14 714.654 182.199 714.074 182.22C712.998 182.262 712.055 182.119 711.244 181.79C710.44 181.462 709.815 180.952 709.368 180.26C708.92 179.568 708.7 178.694 708.707 177.639V162.04ZM738.737 188.038C738.171 188.038 737.64 187.993 737.144 187.902C736.655 187.818 736.25 187.71 735.928 187.577L736.934 184.243C737.459 184.404 737.93 184.491 738.35 184.505C738.776 184.519 739.143 184.422 739.45 184.212C739.765 184.002 740.02 183.646 740.216 183.143L740.478 182.461L734.702 165.898H739.398L742.731 177.723H742.899L746.264 165.898H750.992L744.734 183.74C744.433 184.607 744.024 185.362 743.507 186.004C742.997 186.654 742.351 187.154 741.568 187.504C740.785 187.86 739.842 188.038 738.737 188.038ZM765.052 182.314C763.424 182.314 762.015 181.969 760.827 181.277C759.646 180.578 758.734 179.606 758.091 178.362C757.448 177.111 757.127 175.661 757.127 174.012C757.127 172.349 757.448 170.895 758.091 169.651C758.734 168.4 759.646 167.429 760.827 166.737C762.015 166.038 763.424 165.689 765.052 165.689C766.68 165.689 768.085 166.038 769.266 166.737C770.454 167.429 771.37 168.4 772.013 169.651C772.656 170.895 772.977 172.349 772.977 174.012C772.977 175.661 772.656 177.111 772.013 178.362C771.37 179.606 770.454 180.578 769.266 181.277C768.085 181.969 766.68 182.314 765.052 182.314ZM765.073 178.855C765.814 178.855 766.432 178.645 766.928 178.226C767.425 177.8 767.799 177.22 768.05 176.486C768.309 175.752 768.438 174.917 768.438 173.981C768.438 173.044 768.309 172.209 768.05 171.475C767.799 170.741 767.425 170.161 766.928 169.735C766.432 169.309 765.814 169.095 765.073 169.095C764.325 169.095 763.696 169.309 763.186 169.735C762.683 170.161 762.302 170.741 762.043 171.475C761.792 172.209 761.666 173.044 761.666 173.981C761.666 174.917 761.792 175.752 762.043 176.486C762.302 177.22 762.683 177.8 763.186 178.226C763.696 178.645 764.325 178.855 765.073 178.855ZM791.225 175.144V165.898H795.691V182H791.403V179.075H791.236C790.872 180.019 790.268 180.777 789.422 181.35C788.583 181.923 787.559 182.21 786.35 182.21C785.274 182.21 784.327 181.965 783.51 181.476C782.692 180.987 782.052 180.291 781.591 179.39C781.137 178.488 780.906 177.408 780.899 176.151V165.898H785.365V175.354C785.372 176.304 785.627 177.056 786.13 177.608C786.633 178.16 787.308 178.436 788.154 178.436C788.692 178.436 789.195 178.313 789.663 178.069C790.131 177.817 790.509 177.447 790.795 176.958C791.089 176.468 791.232 175.864 791.225 175.144ZM823.407 182.314C821.758 182.314 820.339 181.965 819.151 181.266C817.97 180.56 817.061 179.582 816.425 178.331C815.796 177.08 815.482 175.64 815.482 174.012C815.482 172.363 815.8 170.916 816.436 169.672C817.079 168.421 817.991 167.446 819.172 166.747C820.353 166.041 821.758 165.689 823.386 165.689C824.791 165.689 826.021 165.944 827.076 166.454C828.131 166.964 828.967 167.68 829.582 168.603C830.197 169.525 830.535 170.609 830.598 171.852H826.384C826.265 171.049 825.951 170.402 825.441 169.913C824.938 169.417 824.277 169.169 823.459 169.169C822.768 169.169 822.163 169.358 821.646 169.735C821.136 170.105 820.737 170.647 820.451 171.36C820.164 172.073 820.021 172.936 820.021 173.949C820.021 174.976 820.161 175.85 820.44 176.57C820.727 177.29 821.129 177.838 821.646 178.216C822.163 178.593 822.768 178.782 823.459 178.782C823.97 178.782 824.427 178.677 824.833 178.467C825.245 178.258 825.584 177.954 825.85 177.555C826.122 177.15 826.3 176.664 826.384 176.098H830.598C830.528 177.328 830.193 178.411 829.592 179.348C828.998 180.277 828.177 181.004 827.129 181.528C826.08 182.052 824.84 182.314 823.407 182.314ZM843.068 182.304C842.04 182.304 841.125 182.126 840.321 181.769C839.517 181.406 838.881 180.871 838.413 180.165C837.952 179.453 837.721 178.565 837.721 177.503C837.721 176.608 837.885 175.857 838.214 175.249C838.542 174.641 838.99 174.152 839.556 173.781C840.122 173.411 840.765 173.131 841.485 172.943C842.211 172.754 842.973 172.621 843.77 172.544C844.706 172.447 845.461 172.356 846.034 172.272C846.607 172.181 847.023 172.048 847.282 171.873C847.54 171.699 847.67 171.44 847.67 171.098V171.035C847.67 170.371 847.46 169.857 847.041 169.494C846.628 169.13 846.041 168.949 845.279 168.949C844.476 168.949 843.836 169.127 843.361 169.483C842.886 169.833 842.571 170.273 842.418 170.804L838.287 170.469C838.497 169.49 838.909 168.645 839.524 167.932C840.139 167.212 840.933 166.66 841.904 166.276C842.882 165.884 844.015 165.689 845.3 165.689C846.195 165.689 847.051 165.793 847.869 166.003C848.693 166.213 849.424 166.538 850.06 166.978C850.703 167.418 851.209 167.984 851.58 168.676C851.95 169.361 852.135 170.182 852.135 171.14V182H847.9V179.767H847.774C847.516 180.27 847.17 180.714 846.737 181.098C846.303 181.476 845.783 181.773 845.175 181.99C844.567 182.199 843.864 182.304 843.068 182.304ZM844.346 179.222C845.003 179.222 845.583 179.093 846.087 178.834C846.59 178.569 846.985 178.212 847.271 177.765C847.558 177.318 847.701 176.811 847.701 176.245V174.536C847.561 174.627 847.369 174.711 847.124 174.788C846.887 174.858 846.618 174.924 846.317 174.987C846.017 175.043 845.716 175.095 845.416 175.144C845.115 175.186 844.843 175.225 844.598 175.259C844.074 175.336 843.616 175.459 843.225 175.626C842.833 175.794 842.529 176.021 842.313 176.308C842.096 176.587 841.988 176.937 841.988 177.356C841.988 177.964 842.208 178.429 842.648 178.75C843.096 179.065 843.662 179.222 844.346 179.222ZM865.084 172.691V182H860.618V165.898H864.874V168.739H865.063C865.42 167.803 866.017 167.062 866.856 166.517C867.694 165.965 868.711 165.689 869.906 165.689C871.024 165.689 871.999 165.933 872.831 166.422C873.663 166.912 874.309 167.61 874.77 168.519C875.232 169.42 875.462 170.497 875.462 171.748V182H870.996V172.544C871.003 171.559 870.752 170.79 870.242 170.238C869.731 169.679 869.029 169.399 868.135 169.399C867.534 169.399 867.002 169.529 866.541 169.787C866.087 170.046 865.731 170.423 865.472 170.92C865.22 171.409 865.091 171.999 865.084 172.691ZM904.415 165.898V169.253H894.719V165.898H904.415ZM896.92 162.04H901.386V177.052C901.386 177.464 901.449 177.786 901.575 178.016C901.7 178.24 901.875 178.397 902.099 178.488C902.329 178.579 902.595 178.624 902.895 178.624C903.105 178.624 903.315 178.607 903.524 178.572C903.734 178.53 903.895 178.499 904.007 178.478L904.709 181.801C904.485 181.871 904.171 181.951 903.766 182.042C903.36 182.14 902.867 182.199 902.287 182.22C901.211 182.262 900.268 182.119 899.457 181.79C898.653 181.462 898.028 180.952 897.581 180.26C897.133 179.568 896.913 178.694 896.92 177.639V162.04ZM912.343 182V165.898H916.672V168.708H916.84C917.134 167.708 917.626 166.953 918.318 166.443C919.01 165.926 919.807 165.668 920.708 165.668C920.932 165.668 921.173 165.682 921.432 165.709C921.69 165.737 921.917 165.776 922.113 165.825V169.787C921.903 169.724 921.613 169.669 921.243 169.62C920.873 169.571 920.534 169.546 920.226 169.546C919.569 169.546 918.982 169.69 918.465 169.976C917.955 170.256 917.549 170.647 917.249 171.15C916.955 171.653 916.809 172.233 916.809 172.89V182H912.343ZM939.766 175.144V165.898H944.232V182H939.944V179.075H939.776C939.413 180.019 938.809 180.777 937.963 181.35C937.124 181.923 936.1 182.21 934.891 182.21C933.815 182.21 932.868 181.965 932.051 181.476C931.233 180.987 930.593 180.291 930.132 179.39C929.678 178.488 929.447 177.408 929.44 176.151V165.898H933.906V175.354C933.913 176.304 934.168 177.056 934.671 177.608C935.174 178.16 935.849 178.436 936.694 178.436C937.233 178.436 937.736 178.313 938.204 178.069C938.672 177.817 939.05 177.447 939.336 176.958C939.63 176.468 939.773 175.864 939.766 175.144ZM966.219 170.49L962.131 170.741C962.061 170.392 961.911 170.077 961.68 169.798C961.45 169.511 961.146 169.284 960.768 169.116C960.398 168.942 959.954 168.854 959.437 168.854C958.745 168.854 958.162 169.001 957.686 169.295C957.211 169.581 956.973 169.966 956.973 170.448C956.973 170.832 957.127 171.157 957.435 171.423C957.742 171.688 958.27 171.901 959.018 172.062L961.932 172.649C963.497 172.971 964.664 173.488 965.433 174.201C966.202 174.914 966.586 175.85 966.586 177.01C966.586 178.065 966.275 178.991 965.653 179.788C965.038 180.585 964.193 181.207 963.116 181.654C962.047 182.094 960.814 182.314 959.416 182.314C957.284 182.314 955.586 181.871 954.321 180.983C953.063 180.089 952.326 178.873 952.109 177.335L956.502 177.104C956.635 177.754 956.956 178.251 957.466 178.593C957.976 178.928 958.63 179.096 959.426 179.096C960.209 179.096 960.838 178.946 961.313 178.645C961.796 178.338 962.04 177.943 962.047 177.461C962.04 177.056 961.869 176.724 961.534 176.465C961.198 176.199 960.681 175.997 959.982 175.857L957.194 175.301C955.621 174.987 954.451 174.442 953.682 173.666C952.92 172.89 952.539 171.901 952.539 170.699C952.539 169.665 952.819 168.774 953.378 168.026C953.944 167.278 954.737 166.702 955.757 166.297C956.785 165.891 957.987 165.689 959.364 165.689C961.397 165.689 962.998 166.118 964.165 166.978C965.339 167.838 966.024 169.008 966.219 170.49ZM982.981 165.898V169.253H973.285V165.898H982.981ZM975.486 162.04H979.952V177.052C979.952 177.464 980.015 177.786 980.14 178.016C980.266 178.24 980.441 178.397 980.665 178.488C980.895 178.579 981.161 178.624 981.461 178.624C981.671 178.624 981.881 178.607 982.09 178.572C982.3 178.53 982.461 178.499 982.572 178.478L983.275 181.801C983.051 181.871 982.737 181.951 982.331 182.042C981.926 182.14 981.433 182.199 980.853 182.22C979.777 182.262 978.834 182.119 978.023 181.79C977.219 181.462 976.594 180.952 976.146 180.26C975.699 179.568 975.479 178.694 975.486 177.639V162.04Z" fill="white"/>
<defs>
<linearGradient id="paint0_linear_222_756" x1="118.327" y1="0" x2="118.327" y2="260.731" gradientUnits="userSpaceOnUse">
<stop offset="0.0717274" stop-color="#32B284"/>
<stop offset="1" stop-color="#FFB133"/>
</linearGradient>
</defs>
</svg>
