<svg width="289" height="261" viewBox="0 0 289 261" fill="none" xmlns="http://www.w3.org/2000/svg">
<ellipse cx="143.598" cy="131.449" rx="116.266" ry="118.435" fill="white" fill-opacity="0.8"/>
<path d="M236.653 203.263C188.948 261.22 121.14 250.025 95.0433 237.183C73.0719 224.453 58.8449 209.265 54.4779 203.263C37.7258 184.207 31.2371 153.815 30.1554 139.577C24.9631 57.4989 86.3895 22.496 119.788 15.6561C174.633 4.26573 218.092 37.4319 232.966 55.4388C213.819 28.9729 191.724 15.0978 183.07 11.4685C85.7134 -27.3929 21.5488 41.8267 8.23335 80.5648C-9.61542 132.492 5.6642 177.579 15.5351 193.631C37.2782 232.493 70.2984 249.467 84.0906 253.096C165.546 279.562 220.968 230.902 236.653 203.263Z" fill="url(#paint0_linear_211_757)"/>
<path d="M119.305 57.0469H161.603V148.801L152.276 137.739L119.305 161.382V57.0469Z" fill="#011033" stroke="white" stroke-width="2.16914"/>
<path d="M175.268 5.20508H216.264L217.132 137.306L177.654 166.155L175.268 163.118V5.20508Z" fill="#011033" stroke="white" stroke-width="2.16914"/>
<path d="M63.7744 98.9111V197.39L105.639 167.239V98.9111H63.7744Z" fill="#011033" stroke="white" stroke-width="2.16914"/>
<path d="M106.291 233.832V200.427L119.522 190.015V237.519C141.561 245.62 156.759 240.894 161.604 237.519V186.761L175.269 194.57V236.001C196.787 230.968 212.434 216.406 217.567 209.754V165.07L264.421 127.761L274.616 138.823L287.414 98.9111L241.645 103.9C243.38 109.323 247.024 120.646 247.719 122.555C248.413 124.464 201.299 158.201 177.655 174.831L150.975 145.981L67.2461 206.284C76.7903 221.034 97.2525 230.795 106.291 233.832Z" fill="url(#paint1_linear_211_757)" stroke="white" stroke-width="2.16914"/>
<defs>
<linearGradient id="paint0_linear_211_757" x1="118.327" y1="0" x2="118.327" y2="260.731" gradientUnits="userSpaceOnUse">
<stop offset="0.0717274" stop-color="#004FFF"/>
<stop offset="1"/>
</linearGradient>
<linearGradient id="paint1_linear_211_757" x1="162.5" y1="162" x2="177.33" y2="241.992" gradientUnits="userSpaceOnUse">
<stop offset="0.185001" stop-color="#004FFF"/>
<stop offset="1"/>
</linearGradient>
</defs>
</svg>
