<svg width="970" height="261" viewBox="0 0 970 261" fill="none" xmlns="http://www.w3.org/2000/svg">
<ellipse cx="143.598" cy="131.449" rx="116.266" ry="118.435" fill="white" fill-opacity="0.8"/>
<path d="M236.653 203.263C188.948 261.22 121.14 250.025 95.0433 237.183C73.0719 224.453 58.8449 209.265 54.4779 203.263C37.7258 184.207 31.2371 153.815 30.1554 139.577C24.9631 57.4989 86.3895 22.496 119.788 15.6561C174.633 4.26573 218.092 37.4319 232.966 55.4388C213.819 28.9729 191.724 15.0978 183.07 11.4685C85.7134 -27.3929 21.5488 41.8267 8.23335 80.5648C-9.61542 132.492 5.6642 177.579 15.5351 193.631C37.2782 232.493 70.2984 249.467 84.0906 253.096C165.546 279.562 220.968 230.902 236.653 203.263Z" fill="url(#paint0_linear_222_756)"/>
<path d="M119.305 57.0469H161.603V148.801L152.276 137.739L119.305 161.382V57.0469Z" fill="#515151" stroke="white" stroke-width="2.16914"/>
<path d="M175.268 5.20508H216.264L217.132 137.306L177.654 166.155L175.268 163.118V5.20508Z" fill="#515151" stroke="white" stroke-width="2.16914"/>
<path d="M63.7744 98.9111V197.39L105.639 167.239V98.9111H63.7744Z" fill="#515151" stroke="white" stroke-width="2.16914"/>
<path d="M106.291 233.832V200.427L119.522 190.015V237.519C141.561 245.62 156.759 240.894 161.604 237.519V186.761L175.269 194.57V236.001C196.787 230.968 212.434 216.406 217.567 209.754V165.07L264.421 127.761L274.616 138.823L287.414 98.9111L241.645 103.9C243.38 109.323 247.024 120.646 247.719 122.555C248.413 124.464 201.299 158.201 177.655 174.831L150.975 145.981L67.2461 206.284C76.7903 221.034 97.2525 230.795 106.291 233.832Z" fill="url(#paint1_linear_222_756)" stroke="white" stroke-width="2.16914"/>
<path d="M362.027 127.001H339.762L368.682 41.2889H396.262L425.181 127.001H402.916L382.786 62.8843H382.116L362.027 127.001ZM359.056 93.2686H405.595V109.005H359.056V93.2686ZM439.759 58.1133V41.2889H512.204V58.1133H486.214V127.001H465.79V58.1133H439.759ZM541.178 127.001V41.2889H561.895V77.5324H563.025L591.358 41.2889H615.758L585.373 79.5413L616.302 127.001H591.525L570.181 93.3104L561.895 103.773V127.001H541.178ZM688.195 66.9858C687.916 63.9167 686.674 61.5311 684.47 59.8292C682.294 58.0993 679.183 57.2344 675.137 57.2344C672.459 57.2344 670.226 57.5831 668.441 58.2807C666.655 58.9782 665.316 59.9408 664.423 61.1684C663.53 62.3682 663.07 63.7493 663.042 65.3117C662.986 66.5952 663.237 67.7252 663.795 68.7017C664.381 69.6782 665.218 70.5432 666.306 71.2965C667.422 72.0219 668.762 72.6637 670.324 73.2217C671.887 73.7797 673.644 74.268 675.597 74.6865L682.963 76.3605C687.204 77.2813 690.943 78.5089 694.179 80.0435C697.444 81.578 700.178 83.4056 702.382 85.526C704.614 87.6465 706.302 90.0879 707.446 92.8501C708.59 95.6123 709.176 98.7093 709.204 102.141C709.176 107.554 707.809 112.199 705.103 116.078C702.396 119.956 698.504 122.927 693.426 124.992C688.376 127.057 682.28 128.089 675.137 128.089C667.966 128.089 661.717 127.015 656.387 124.867C651.058 122.718 646.915 119.454 643.958 115.073C641 110.693 639.479 105.154 639.396 98.4582H659.233C659.401 101.22 660.14 103.522 661.452 105.364C662.763 107.205 664.563 108.6 666.85 109.549C669.166 110.497 671.845 110.972 674.886 110.972C677.676 110.972 680.048 110.595 682.001 109.842C683.982 109.088 685.502 108.042 686.562 106.703C687.623 105.364 688.167 103.829 688.195 102.099C688.167 100.481 687.665 99.0999 686.688 97.956C685.712 96.7841 684.205 95.7797 682.168 94.9427C680.159 94.0777 677.592 93.2825 674.467 92.5571L665.511 90.4645C658.089 88.7626 652.244 86.0143 647.975 82.2198C643.706 78.3973 641.586 73.2356 641.614 66.7347C641.586 61.4335 643.009 56.788 645.883 52.7981C648.757 48.8082 652.732 45.6973 657.81 43.4652C662.888 41.2331 668.678 40.1171 675.179 40.1171C681.819 40.1171 687.581 41.2471 692.464 43.507C697.374 45.7391 701.183 48.878 703.889 52.9237C706.595 56.9693 707.977 61.6567 708.032 66.9858H688.195ZM738.524 41.2889H764.179L785.942 94.3567H786.946L808.709 41.2889H834.364V127.001H814.191V74.3517H813.48L792.889 126.457H779.999L759.408 74.0587H758.696V127.001H738.524V41.2889ZM885.603 41.2889L904.771 104.066H905.483L924.651 41.2889H947.837L918.917 127.001H891.337L862.417 41.2889H885.603Z" fill="url(#paint2_linear_222_756)"/>
<path d="M375.405 163.532V185.001H370.866V163.532H375.405ZM388.54 175.692V185.001H384.074V168.899H388.33V171.74H388.519C388.875 170.804 389.473 170.063 390.312 169.518C391.15 168.966 392.167 168.689 393.362 168.689C394.48 168.689 395.455 168.934 396.287 169.423C397.118 169.913 397.765 170.611 398.226 171.52C398.687 172.421 398.918 173.498 398.918 174.749V185.001H394.452V175.545C394.459 174.56 394.208 173.791 393.698 173.239C393.187 172.68 392.485 172.4 391.59 172.4C390.989 172.4 390.458 172.53 389.997 172.788C389.543 173.047 389.186 173.424 388.928 173.92C388.676 174.41 388.547 175 388.54 175.692ZM421.891 168.899L416.262 185.001H411.23L405.601 168.899H410.318L413.662 180.42H413.83L417.163 168.899H421.891ZM436.014 185.315C434.358 185.315 432.932 184.98 431.737 184.309C430.549 183.631 429.633 182.674 428.99 181.437C428.347 180.193 428.026 178.722 428.026 177.023C428.026 175.367 428.347 173.914 428.99 172.663C429.633 171.412 430.538 170.437 431.705 169.738C432.88 169.039 434.256 168.689 435.836 168.689C436.898 168.689 437.887 168.861 438.802 169.203C439.725 169.539 440.529 170.045 441.214 170.723C441.905 171.401 442.444 172.254 442.828 173.281C443.212 174.301 443.404 175.496 443.404 176.866V178.093H429.808V175.325H439.201C439.201 174.682 439.061 174.113 438.781 173.616C438.502 173.12 438.114 172.732 437.618 172.453C437.129 172.166 436.559 172.023 435.909 172.023C435.231 172.023 434.63 172.18 434.106 172.495C433.589 172.802 433.184 173.218 432.89 173.742C432.597 174.259 432.446 174.836 432.439 175.472V178.103C432.439 178.9 432.586 179.588 432.88 180.168C433.18 180.748 433.603 181.196 434.148 181.51C434.693 181.825 435.34 181.982 436.087 181.982C436.584 181.982 437.038 181.912 437.45 181.772C437.862 181.632 438.215 181.423 438.509 181.143C438.802 180.864 439.026 180.521 439.18 180.116L443.31 180.388C443.1 181.381 442.671 182.247 442.021 182.988C441.378 183.722 440.546 184.295 439.526 184.707C438.512 185.113 437.342 185.315 436.014 185.315ZM464.734 173.491L460.646 173.742C460.576 173.393 460.426 173.078 460.195 172.799C459.965 172.512 459.661 172.285 459.283 172.117C458.913 171.943 458.469 171.855 457.952 171.855C457.26 171.855 456.676 172.002 456.201 172.296C455.726 172.582 455.488 172.967 455.488 173.449C455.488 173.833 455.642 174.158 455.95 174.424C456.257 174.689 456.785 174.902 457.533 175.063L460.447 175.65C462.012 175.972 463.179 176.489 463.948 177.202C464.717 177.914 465.101 178.851 465.101 180.011C465.101 181.066 464.79 181.992 464.168 182.789C463.553 183.586 462.708 184.208 461.631 184.655C460.562 185.095 459.329 185.315 457.931 185.315C455.799 185.315 454.101 184.872 452.836 183.984C451.578 183.09 450.841 181.874 450.624 180.336L455.017 180.105C455.149 180.755 455.471 181.252 455.981 181.594C456.491 181.929 457.145 182.097 457.941 182.097C458.724 182.097 459.353 181.947 459.828 181.646C460.311 181.339 460.555 180.944 460.562 180.462C460.555 180.057 460.384 179.725 460.048 179.466C459.713 179.2 459.196 178.998 458.497 178.858L455.709 178.302C454.136 177.988 452.965 177.443 452.197 176.667C451.435 175.891 451.054 174.902 451.054 173.7C451.054 172.666 451.334 171.775 451.893 171.027C452.459 170.279 453.252 169.703 454.272 169.298C455.3 168.892 456.502 168.689 457.878 168.689C459.912 168.689 461.513 169.119 462.68 169.979C463.854 170.839 464.539 172.009 464.734 173.491ZM481.496 168.899V172.254H471.8V168.899H481.496ZM474.001 165.041H478.467V180.053C478.467 180.465 478.53 180.787 478.655 181.017C478.781 181.241 478.956 181.398 479.18 181.489C479.41 181.58 479.676 181.625 479.976 181.625C480.186 181.625 480.396 181.608 480.605 181.573C480.815 181.531 480.976 181.5 481.087 181.479L481.79 184.802C481.566 184.872 481.252 184.952 480.846 185.043C480.441 185.141 479.948 185.2 479.368 185.221C478.292 185.263 477.349 185.12 476.538 184.791C475.734 184.463 475.109 183.953 474.661 183.261C474.214 182.569 473.994 181.695 474.001 180.64V165.041ZM489.424 185.001V168.899H493.68V171.74H493.868C494.204 170.797 494.763 170.052 495.546 169.507C496.328 168.962 497.265 168.689 498.355 168.689C499.459 168.689 500.399 168.966 501.175 169.518C501.951 170.063 502.468 170.804 502.727 171.74H502.894C503.223 170.818 503.817 170.08 504.676 169.528C505.543 168.969 506.567 168.689 507.748 168.689C509.25 168.689 510.47 169.168 511.406 170.126C512.35 171.076 512.822 172.425 512.822 174.172V185.001H508.366V175.053C508.366 174.158 508.129 173.487 507.654 173.04C507.178 172.593 506.584 172.369 505.871 172.369C505.061 172.369 504.428 172.628 503.974 173.145C503.52 173.655 503.293 174.329 503.293 175.168V185.001H498.963V174.958C498.963 174.169 498.736 173.54 498.282 173.071C497.835 172.603 497.244 172.369 496.51 172.369C496.014 172.369 495.567 172.495 495.168 172.746C494.777 172.991 494.466 173.337 494.235 173.784C494.005 174.224 493.889 174.742 493.889 175.336V185.001H489.424ZM528.706 185.315C527.049 185.315 525.624 184.98 524.429 184.309C523.241 183.631 522.325 182.674 521.682 181.437C521.039 180.193 520.718 178.722 520.718 177.023C520.718 175.367 521.039 173.914 521.682 172.663C522.325 171.412 523.23 170.437 524.397 169.738C525.571 169.039 526.948 168.689 528.527 168.689C529.59 168.689 530.579 168.861 531.494 169.203C532.417 169.539 533.22 170.045 533.905 170.723C534.597 171.401 535.135 172.254 535.52 173.281C535.904 174.301 536.096 175.496 536.096 176.866V178.093H522.5V175.325H531.892C531.892 174.682 531.753 174.113 531.473 173.616C531.194 173.12 530.806 172.732 530.31 172.453C529.82 172.166 529.251 172.023 528.601 172.023C527.923 172.023 527.322 172.18 526.798 172.495C526.281 172.802 525.875 173.218 525.582 173.742C525.288 174.259 525.138 174.836 525.131 175.472V178.103C525.131 178.9 525.278 179.588 525.571 180.168C525.872 180.748 526.295 181.196 526.84 181.51C527.385 181.825 528.031 181.982 528.779 181.982C529.275 181.982 529.729 181.912 530.142 181.772C530.554 181.632 530.907 181.423 531.201 181.143C531.494 180.864 531.718 180.521 531.871 180.116L536.002 180.388C535.792 181.381 535.362 182.247 534.712 182.988C534.069 183.722 533.238 184.295 532.217 184.707C531.204 185.113 530.033 185.315 528.706 185.315ZM548.495 175.692V185.001H544.029V168.899H548.285V171.74H548.474C548.83 170.804 549.427 170.063 550.266 169.518C551.105 168.966 552.122 168.689 553.317 168.689C554.435 168.689 555.41 168.934 556.241 169.423C557.073 169.913 557.72 170.611 558.181 171.52C558.642 172.421 558.873 173.498 558.873 174.749V185.001H554.407V175.545C554.414 174.56 554.162 173.791 553.652 173.239C553.142 172.68 552.44 172.4 551.545 172.4C550.944 172.4 550.413 172.53 549.952 172.788C549.497 173.047 549.141 173.424 548.882 173.92C548.631 174.41 548.502 175 548.495 175.692ZM575.975 168.899V172.254H566.279V168.899H575.975ZM568.48 165.041H572.946V180.053C572.946 180.465 573.009 180.787 573.134 181.017C573.26 181.241 573.435 181.398 573.659 181.489C573.889 181.58 574.155 181.625 574.455 181.625C574.665 181.625 574.875 181.608 575.084 181.573C575.294 181.531 575.455 181.5 575.566 181.479L576.269 184.802C576.045 184.872 575.731 184.952 575.325 185.043C574.92 185.141 574.427 185.2 573.847 185.221C572.771 185.263 571.828 185.12 571.017 184.791C570.213 184.463 569.588 183.953 569.14 183.261C568.693 182.569 568.473 181.695 568.48 180.64V165.041ZM600.345 185.305C599.318 185.305 598.402 185.127 597.598 184.77C596.795 184.407 596.159 183.872 595.69 183.166C595.229 182.454 594.999 181.566 594.999 180.504C594.999 179.609 595.163 178.858 595.491 178.25C595.82 177.642 596.267 177.153 596.833 176.782C597.399 176.412 598.042 176.132 598.762 175.944C599.489 175.755 600.251 175.622 601.047 175.545C601.984 175.448 602.738 175.357 603.312 175.273C603.885 175.182 604.3 175.049 604.559 174.874C604.818 174.7 604.947 174.441 604.947 174.099V174.036C604.947 173.372 604.737 172.858 604.318 172.495C603.906 172.131 603.319 171.95 602.557 171.95C601.753 171.95 601.114 172.128 600.638 172.484C600.163 172.834 599.849 173.274 599.695 173.805L595.565 173.47C595.774 172.491 596.187 171.646 596.802 170.933C597.417 170.213 598.21 169.661 599.181 169.277C600.16 168.885 601.292 168.689 602.578 168.689C603.472 168.689 604.328 168.794 605.146 169.004C605.971 169.214 606.701 169.539 607.337 169.979C607.98 170.419 608.487 170.985 608.857 171.677C609.227 172.362 609.413 173.183 609.413 174.141V185.001H605.178V182.768H605.052C604.793 183.271 604.447 183.715 604.014 184.099C603.581 184.477 603.06 184.774 602.452 184.99C601.844 185.2 601.142 185.305 600.345 185.305ZM601.624 182.223C602.281 182.223 602.861 182.094 603.364 181.835C603.867 181.57 604.262 181.213 604.549 180.766C604.835 180.319 604.978 179.812 604.978 179.246V177.537C604.839 177.628 604.646 177.712 604.402 177.789C604.164 177.859 603.895 177.925 603.595 177.988C603.294 178.044 602.994 178.096 602.693 178.145C602.393 178.187 602.12 178.225 601.875 178.26C601.351 178.337 600.893 178.46 600.502 178.627C600.111 178.795 599.807 179.022 599.59 179.309C599.373 179.588 599.265 179.938 599.265 180.357C599.265 180.965 599.485 181.43 599.926 181.751C600.373 182.066 600.939 182.223 601.624 182.223ZM625.15 191.375C623.703 191.375 622.463 191.175 621.428 190.777C620.401 190.386 619.583 189.851 618.975 189.173C618.367 188.495 617.973 187.734 617.791 186.888L621.921 186.332C622.047 186.654 622.246 186.954 622.519 187.234C622.791 187.513 623.151 187.737 623.598 187.905C624.053 188.079 624.605 188.167 625.255 188.167C626.226 188.167 627.026 187.929 627.655 187.454C628.291 186.986 628.609 186.2 628.609 185.095V182.15H628.421C628.225 182.597 627.931 183.02 627.54 183.418C627.149 183.816 626.645 184.141 626.03 184.393C625.415 184.645 624.682 184.77 623.829 184.77C622.62 184.77 621.519 184.491 620.527 183.932C619.541 183.366 618.755 182.503 618.168 181.342C617.588 180.175 617.298 178.701 617.298 176.919C617.298 175.095 617.595 173.571 618.189 172.348C618.783 171.125 619.573 170.21 620.558 169.602C621.551 168.994 622.637 168.689 623.819 168.689C624.72 168.689 625.475 168.843 626.083 169.151C626.691 169.451 627.18 169.829 627.55 170.283C627.928 170.73 628.218 171.17 628.421 171.604H628.588V168.899H633.023V185.158C633.023 186.528 632.687 187.674 632.016 188.597C631.345 189.519 630.416 190.211 629.228 190.672C628.047 191.14 626.687 191.375 625.15 191.375ZM625.244 181.416C625.964 181.416 626.572 181.238 627.068 180.881C627.571 180.518 627.956 180.001 628.221 179.33C628.494 178.652 628.63 177.841 628.63 176.898C628.63 175.954 628.497 175.137 628.232 174.445C627.966 173.746 627.582 173.204 627.079 172.82C626.576 172.435 625.964 172.243 625.244 172.243C624.51 172.243 623.892 172.442 623.389 172.841C622.886 173.232 622.505 173.777 622.246 174.476C621.988 175.175 621.858 175.982 621.858 176.898C621.858 177.827 621.988 178.631 622.246 179.309C622.512 179.98 622.893 180.5 623.389 180.871C623.892 181.234 624.51 181.416 625.244 181.416ZM648.933 185.315C647.276 185.315 645.851 184.98 644.656 184.309C643.468 183.631 642.552 182.674 641.909 181.437C641.266 180.193 640.945 178.722 640.945 177.023C640.945 175.367 641.266 173.914 641.909 172.663C642.552 171.412 643.457 170.437 644.624 169.738C645.798 169.039 647.175 168.689 648.755 168.689C649.817 168.689 650.806 168.861 651.721 169.203C652.644 169.539 653.447 170.045 654.132 170.723C654.824 171.401 655.362 172.254 655.747 173.281C656.131 174.301 656.323 175.496 656.323 176.866V178.093H642.727V175.325H652.12C652.12 174.682 651.98 174.113 651.7 173.616C651.421 173.12 651.033 172.732 650.537 172.453C650.047 172.166 649.478 172.023 648.828 172.023C648.15 172.023 647.549 172.18 647.025 172.495C646.508 172.802 646.102 173.218 645.809 173.742C645.515 174.259 645.365 174.836 645.358 175.472V178.103C645.358 178.9 645.505 179.588 645.798 180.168C646.099 180.748 646.522 181.196 647.067 181.51C647.612 181.825 648.258 181.982 649.006 181.982C649.502 181.982 649.957 181.912 650.369 181.772C650.781 181.632 651.134 181.423 651.428 181.143C651.721 180.864 651.945 180.521 652.099 180.116L656.229 180.388C656.019 181.381 655.589 182.247 654.939 182.988C654.297 183.722 653.465 184.295 652.445 184.707C651.431 185.113 650.261 185.315 648.933 185.315ZM668.722 175.692V185.001H664.256V168.899H668.512V171.74H668.701C669.057 170.804 669.655 170.063 670.493 169.518C671.332 168.966 672.349 168.689 673.544 168.689C674.662 168.689 675.637 168.934 676.469 169.423C677.3 169.913 677.947 170.611 678.408 171.52C678.869 172.421 679.1 173.498 679.1 174.749V185.001H674.634V175.545C674.641 174.56 674.389 173.791 673.879 173.239C673.369 172.68 672.667 172.4 671.772 172.4C671.171 172.4 670.64 172.53 670.179 172.788C669.724 173.047 669.368 173.424 669.109 173.92C668.858 174.41 668.729 175 668.722 175.692ZM696.202 168.899V172.254H686.506V168.899H696.202ZM688.707 165.041H693.173V180.053C693.173 180.465 693.236 180.787 693.362 181.017C693.487 181.241 693.662 181.398 693.886 181.489C694.116 181.58 694.382 181.625 694.682 181.625C694.892 181.625 695.102 181.608 695.311 181.573C695.521 181.531 695.682 181.5 695.794 181.479L696.496 184.802C696.272 184.872 695.958 184.952 695.552 185.043C695.147 185.141 694.654 185.2 694.074 185.221C692.998 185.263 692.055 185.12 691.244 184.791C690.44 184.463 689.815 183.953 689.368 183.261C688.92 182.569 688.7 181.695 688.707 180.64V165.041ZM718.737 191.039C718.171 191.039 717.64 190.994 717.144 190.903C716.655 190.819 716.25 190.711 715.928 190.578L716.934 187.244C717.459 187.405 717.93 187.492 718.35 187.506C718.776 187.52 719.143 187.423 719.45 187.213C719.765 187.003 720.02 186.647 720.216 186.144L720.478 185.462L714.702 168.899H719.398L722.731 180.724H722.899L726.264 168.899H730.992L724.734 186.741C724.433 187.608 724.024 188.363 723.507 189.005C722.997 189.655 722.351 190.155 721.568 190.505C720.785 190.861 719.842 191.039 718.737 191.039ZM745.052 185.315C743.424 185.315 742.015 184.97 740.827 184.278C739.646 183.579 738.734 182.607 738.091 181.363C737.448 180.112 737.127 178.662 737.127 177.013C737.127 175.35 737.448 173.896 738.091 172.652C738.734 171.401 739.646 170.43 740.827 169.738C742.015 169.039 743.424 168.689 745.052 168.689C746.68 168.689 748.085 169.039 749.266 169.738C750.454 170.43 751.37 171.401 752.013 172.652C752.656 173.896 752.977 175.35 752.977 177.013C752.977 178.662 752.656 180.112 752.013 181.363C751.37 182.607 750.454 183.579 749.266 184.278C748.085 184.97 746.68 185.315 745.052 185.315ZM745.073 181.856C745.814 181.856 746.432 181.646 746.928 181.227C747.425 180.801 747.799 180.221 748.05 179.487C748.309 178.753 748.438 177.918 748.438 176.982C748.438 176.045 748.309 175.21 748.05 174.476C747.799 173.742 747.425 173.162 746.928 172.736C746.432 172.31 745.814 172.096 745.073 172.096C744.325 172.096 743.696 172.31 743.186 172.736C742.683 173.162 742.302 173.742 742.043 174.476C741.792 175.21 741.666 176.045 741.666 176.982C741.666 177.918 741.792 178.753 742.043 179.487C742.302 180.221 742.683 180.801 743.186 181.227C743.696 181.646 744.325 181.856 745.073 181.856ZM771.225 178.145V168.899H775.691V185.001H771.403V182.076H771.236C770.872 183.02 770.268 183.778 769.422 184.351C768.583 184.924 767.559 185.211 766.35 185.211C765.274 185.211 764.327 184.966 763.51 184.477C762.692 183.988 762.052 183.292 761.591 182.391C761.137 181.489 760.906 180.409 760.899 179.151V168.899H765.365V178.355C765.372 179.305 765.627 180.057 766.13 180.609C766.633 181.161 767.308 181.437 768.154 181.437C768.692 181.437 769.195 181.314 769.663 181.07C770.131 180.818 770.509 180.448 770.795 179.959C771.089 179.469 771.232 178.865 771.225 178.145ZM803.407 185.315C801.758 185.315 800.339 184.966 799.151 184.267C797.97 183.561 797.061 182.583 796.425 181.332C795.796 180.081 795.482 178.641 795.482 177.013C795.482 175.364 795.8 173.917 796.436 172.673C797.079 171.422 797.991 170.447 799.172 169.748C800.353 169.042 801.758 168.689 803.386 168.689C804.791 168.689 806.021 168.945 807.076 169.455C808.131 169.965 808.967 170.681 809.582 171.604C810.197 172.526 810.535 173.609 810.598 174.853H806.384C806.265 174.05 805.951 173.403 805.441 172.914C804.938 172.418 804.277 172.17 803.459 172.17C802.768 172.17 802.163 172.359 801.646 172.736C801.136 173.106 800.737 173.648 800.451 174.361C800.164 175.074 800.021 175.937 800.021 176.95C800.021 177.977 800.161 178.851 800.44 179.571C800.727 180.291 801.129 180.839 801.646 181.217C802.163 181.594 802.768 181.783 803.459 181.783C803.97 181.783 804.427 181.678 804.833 181.468C805.245 181.259 805.584 180.955 805.85 180.556C806.122 180.151 806.3 179.665 806.384 179.099H810.598C810.528 180.329 810.193 181.412 809.592 182.349C808.998 183.278 808.177 184.005 807.129 184.529C806.08 185.053 804.84 185.315 803.407 185.315ZM823.068 185.305C822.04 185.305 821.125 185.127 820.321 184.77C819.517 184.407 818.881 183.872 818.413 183.166C817.952 182.454 817.721 181.566 817.721 180.504C817.721 179.609 817.885 178.858 818.214 178.25C818.542 177.642 818.99 177.153 819.556 176.782C820.122 176.412 820.765 176.132 821.485 175.944C822.211 175.755 822.973 175.622 823.77 175.545C824.706 175.448 825.461 175.357 826.034 175.273C826.607 175.182 827.023 175.049 827.282 174.874C827.54 174.7 827.67 174.441 827.67 174.099V174.036C827.67 173.372 827.46 172.858 827.041 172.495C826.628 172.131 826.041 171.95 825.279 171.95C824.476 171.95 823.836 172.128 823.361 172.484C822.886 172.834 822.571 173.274 822.418 173.805L818.287 173.47C818.497 172.491 818.909 171.646 819.524 170.933C820.139 170.213 820.933 169.661 821.904 169.277C822.882 168.885 824.015 168.689 825.3 168.689C826.195 168.689 827.051 168.794 827.869 169.004C828.693 169.214 829.424 169.539 830.06 169.979C830.703 170.419 831.209 170.985 831.58 171.677C831.95 172.362 832.135 173.183 832.135 174.141V185.001H827.9V182.768H827.774C827.516 183.271 827.17 183.715 826.737 184.099C826.303 184.477 825.783 184.774 825.175 184.99C824.567 185.2 823.864 185.305 823.068 185.305ZM824.346 182.223C825.003 182.223 825.583 182.094 826.087 181.835C826.59 181.57 826.985 181.213 827.271 180.766C827.558 180.319 827.701 179.812 827.701 179.246V177.537C827.561 177.628 827.369 177.712 827.124 177.789C826.887 177.859 826.618 177.925 826.317 177.988C826.017 178.044 825.716 178.096 825.416 178.145C825.115 178.187 824.843 178.225 824.598 178.26C824.074 178.337 823.616 178.46 823.225 178.627C822.833 178.795 822.529 179.022 822.313 179.309C822.096 179.588 821.988 179.938 821.988 180.357C821.988 180.965 822.208 181.43 822.648 181.751C823.096 182.066 823.662 182.223 824.346 182.223ZM845.084 175.692V185.001H840.618V168.899H844.874V171.74H845.063C845.42 170.804 846.017 170.063 846.856 169.518C847.694 168.966 848.711 168.689 849.906 168.689C851.024 168.689 851.999 168.934 852.831 169.423C853.663 169.913 854.309 170.611 854.77 171.52C855.232 172.421 855.462 173.498 855.462 174.749V185.001H850.996V175.545C851.003 174.56 850.752 173.791 850.242 173.239C849.731 172.68 849.029 172.4 848.135 172.4C847.534 172.4 847.002 172.53 846.541 172.788C846.087 173.047 845.731 173.424 845.472 173.92C845.22 174.41 845.091 175 845.084 175.692ZM884.415 168.899V172.254H874.719V168.899H884.415ZM876.92 165.041H881.386V180.053C881.386 180.465 881.449 180.787 881.575 181.017C881.7 181.241 881.875 181.398 882.099 181.489C882.329 181.58 882.595 181.625 882.895 181.625C883.105 181.625 883.315 181.608 883.524 181.573C883.734 181.531 883.895 181.5 884.007 181.479L884.709 184.802C884.485 184.872 884.171 184.952 883.766 185.043C883.36 185.141 882.867 185.2 882.287 185.221C881.211 185.263 880.268 185.12 879.457 184.791C878.653 184.463 878.028 183.953 877.581 183.261C877.133 182.569 876.913 181.695 876.92 180.64V165.041ZM892.343 185.001V168.899H896.672V171.709H896.84C897.134 170.709 897.626 169.954 898.318 169.444C899.01 168.927 899.807 168.669 900.708 168.669C900.932 168.669 901.173 168.683 901.432 168.71C901.69 168.738 901.917 168.777 902.113 168.826V172.788C901.903 172.725 901.613 172.67 901.243 172.621C900.873 172.572 900.534 172.547 900.226 172.547C899.569 172.547 898.982 172.69 898.465 172.977C897.955 173.257 897.549 173.648 897.249 174.151C896.955 174.654 896.809 175.234 896.809 175.891V185.001H892.343ZM919.766 178.145V168.899H924.232V185.001H919.944V182.076H919.776C919.413 183.02 918.809 183.778 917.963 184.351C917.124 184.924 916.1 185.211 914.891 185.211C913.815 185.211 912.868 184.966 912.051 184.477C911.233 183.988 910.593 183.292 910.132 182.391C909.678 181.489 909.447 180.409 909.44 179.151V168.899H913.906V178.355C913.913 179.305 914.168 180.057 914.671 180.609C915.174 181.161 915.849 181.437 916.694 181.437C917.233 181.437 917.736 181.314 918.204 181.07C918.672 180.818 919.05 180.448 919.336 179.959C919.63 179.469 919.773 178.865 919.766 178.145ZM946.219 173.491L942.131 173.742C942.061 173.393 941.911 173.078 941.68 172.799C941.45 172.512 941.146 172.285 940.768 172.117C940.398 171.943 939.954 171.855 939.437 171.855C938.745 171.855 938.162 172.002 937.686 172.296C937.211 172.582 936.973 172.967 936.973 173.449C936.973 173.833 937.127 174.158 937.435 174.424C937.742 174.689 938.27 174.902 939.018 175.063L941.932 175.65C943.497 175.972 944.664 176.489 945.433 177.202C946.202 177.914 946.586 178.851 946.586 180.011C946.586 181.066 946.275 181.992 945.653 182.789C945.038 183.586 944.193 184.208 943.116 184.655C942.047 185.095 940.814 185.315 939.416 185.315C937.284 185.315 935.586 184.872 934.321 183.984C933.063 183.09 932.326 181.874 932.109 180.336L936.502 180.105C936.635 180.755 936.956 181.252 937.466 181.594C937.976 181.929 938.63 182.097 939.426 182.097C940.209 182.097 940.838 181.947 941.313 181.646C941.796 181.339 942.04 180.944 942.047 180.462C942.04 180.057 941.869 179.725 941.534 179.466C941.198 179.2 940.681 178.998 939.982 178.858L937.194 178.302C935.621 177.988 934.451 177.443 933.682 176.667C932.92 175.891 932.539 174.902 932.539 173.7C932.539 172.666 932.819 171.775 933.378 171.027C933.944 170.279 934.737 169.703 935.757 169.298C936.785 168.892 937.987 168.689 939.364 168.689C941.397 168.689 942.998 169.119 944.165 169.979C945.339 170.839 946.024 172.009 946.219 173.491ZM962.981 168.899V172.254H953.285V168.899H962.981ZM955.486 165.041H959.952V180.053C959.952 180.465 960.015 180.787 960.14 181.017C960.266 181.241 960.441 181.398 960.665 181.489C960.895 181.58 961.161 181.625 961.461 181.625C961.671 181.625 961.881 181.608 962.09 181.573C962.3 181.531 962.461 181.5 962.572 181.479L963.275 184.802C963.051 184.872 962.737 184.952 962.331 185.043C961.926 185.141 961.433 185.2 960.853 185.221C959.777 185.263 958.834 185.12 958.023 184.791C957.219 184.463 956.594 183.953 956.146 183.261C955.699 182.569 955.479 181.695 955.486 180.64V165.041Z" fill="black"/>
<defs>
<linearGradient id="paint0_linear_222_756" x1="118.327" y1="0" x2="118.327" y2="260.731" gradientUnits="userSpaceOnUse">
<stop offset="0.0717274" stop-color="#004FFF"/>
<stop offset="1"/>
</linearGradient>
<linearGradient id="paint1_linear_222_756" x1="162.5" y1="162" x2="177.33" y2="241.992" gradientUnits="userSpaceOnUse">
<stop offset="0.185001" stop-color="#004FFF"/>
<stop offset="1"/>
</linearGradient>
<linearGradient id="paint2_linear_222_756" x1="654" y1="42.5" x2="653.5" y2="156.001" gradientUnits="userSpaceOnUse">
<stop offset="0.400199" stop-color="#0029FF"/>
<stop offset="0.910416" stop-color="#01030A"/>
</linearGradient>
</defs>
</svg>
