<svg width="1017" height="261" viewBox="0 0 1017 261" fill="none" xmlns="http://www.w3.org/2000/svg">
<ellipse cx="143.598" cy="131.449" rx="116.266" ry="118.435" fill="white" fill-opacity="0.8"/>
<path d="M236.653 203.263C188.948 261.22 121.14 250.025 95.0433 237.183C73.0719 224.453 58.8449 209.265 54.4779 203.263C37.7258 184.207 31.2371 153.815 30.1554 139.577C24.9631 57.4989 86.3895 22.496 119.788 15.6561C174.633 4.26573 218.092 37.4319 232.966 55.4388C213.819 28.9729 191.724 15.0978 183.07 11.4685C85.7134 -27.3929 21.5488 41.8267 8.23335 80.5648C-9.61542 132.492 5.6642 177.579 15.5351 193.631C37.2782 232.493 70.2984 249.467 84.0906 253.096C165.546 279.562 220.968 230.902 236.653 203.263Z" fill="url(#paint0_linear_210_881)"/>
<path d="M119.305 57.0469H161.603V148.801L152.276 137.739L119.305 161.382V57.0469Z" fill="#011033" stroke="white" stroke-width="2.16914"/>
<path d="M175.268 5.20508H216.264L217.132 137.306L177.654 166.155L175.268 163.118V5.20508Z" fill="#011033" stroke="white" stroke-width="2.16914"/>
<path d="M63.7744 98.9111V197.39L105.639 167.239V98.9111H63.7744Z" fill="#011033" stroke="white" stroke-width="2.16914"/>
<path d="M106.291 233.832V200.427L119.522 190.015V237.519C141.561 245.62 156.759 240.894 161.604 237.519V186.761L175.269 194.57V236.001C196.787 230.968 212.434 216.406 217.567 209.754V165.07L264.421 127.761L274.616 138.823L287.414 98.9111L241.645 103.9C243.38 109.323 247.024 120.646 247.719 122.555C248.413 124.464 201.299 158.201 177.655 174.831L150.975 145.981L67.2461 206.284C76.7903 221.034 97.2525 230.795 106.291 233.832Z" fill="url(#paint1_linear_210_881)" stroke="white" stroke-width="2.16914"/>
<path d="M409.027 127.001H386.762L415.682 41.2889H443.262L472.181 127.001H449.916L429.786 62.8843H429.116L409.027 127.001ZM406.056 93.2686H452.595V109.005H406.056V93.2686ZM486.759 58.1133V41.2889H559.204V58.1133H533.214V127.001H512.79V58.1133H486.759ZM588.178 127.001V41.2889H608.895V77.5324H610.025L638.358 41.2889H662.758L632.373 79.5413L663.302 127.001H638.525L617.181 93.3104L608.895 103.773V127.001H588.178ZM735.195 66.9858C734.916 63.9167 733.674 61.5311 731.47 59.8292C729.294 58.0993 726.183 57.2344 722.137 57.2344C719.459 57.2344 717.226 57.5831 715.441 58.2807C713.655 58.9782 712.316 59.9408 711.423 61.1684C710.53 62.3682 710.07 63.7493 710.042 65.3117C709.986 66.5952 710.237 67.7252 710.795 68.7017C711.381 69.6782 712.218 70.5432 713.306 71.2965C714.422 72.0219 715.762 72.6637 717.324 73.2217C718.887 73.7797 720.644 74.268 722.597 74.6865L729.963 76.3605C734.204 77.2813 737.943 78.5089 741.179 80.0435C744.444 81.578 747.178 83.4056 749.382 85.526C751.614 87.6465 753.302 90.0879 754.446 92.8501C755.59 95.6123 756.176 98.7093 756.204 102.141C756.176 107.554 754.809 112.199 752.103 116.078C749.396 119.956 745.504 122.927 740.426 124.992C735.376 127.057 729.28 128.089 722.137 128.089C714.966 128.089 708.717 127.015 703.387 124.867C698.058 122.718 693.915 119.454 690.958 115.073C688 110.693 686.479 105.154 686.396 98.4582H706.233C706.401 101.22 707.14 103.522 708.452 105.364C709.763 107.205 711.563 108.6 713.85 109.549C716.166 110.497 718.845 110.972 721.886 110.972C724.676 110.972 727.048 110.595 729.001 109.842C730.982 109.088 732.502 108.042 733.562 106.703C734.623 105.364 735.167 103.829 735.195 102.099C735.167 100.481 734.665 99.0999 733.688 97.956C732.712 96.7841 731.205 95.7797 729.168 94.9427C727.159 94.0777 724.592 93.2825 721.467 92.5571L712.511 90.4645C705.089 88.7626 699.244 86.0143 694.975 82.2198C690.706 78.3973 688.586 73.2356 688.614 66.7347C688.586 61.4335 690.009 56.788 692.883 52.7981C695.757 48.8082 699.732 45.6973 704.81 43.4652C709.888 41.2331 715.678 40.1171 722.179 40.1171C728.819 40.1171 734.581 41.2471 739.464 43.507C744.374 45.7391 748.183 48.878 750.889 52.9237C753.595 56.9693 754.977 61.6567 755.032 66.9858H735.195ZM785.524 41.2889H811.179L832.942 94.3567H833.946L855.709 41.2889H881.364V127.001H861.191V74.3517H860.48L839.889 126.457H826.999L806.408 74.0587H805.696V127.001H785.524V41.2889ZM932.603 41.2889L951.771 104.066H952.483L971.651 41.2889H994.837L965.917 127.001H938.337L909.417 41.2889H932.603Z" fill="url(#paint2_linear_210_881)"/>
<path d="M410.641 162.092V181.001H406.643V162.092H410.641ZM422.21 172.802V181.001H418.277V166.819H422.025V169.321H422.191C422.505 168.496 423.032 167.844 423.77 167.364C424.509 166.878 425.405 166.634 426.457 166.634C427.442 166.634 428.301 166.85 429.033 167.281C429.766 167.712 430.335 168.327 430.741 169.127C431.147 169.921 431.351 170.869 431.351 171.971V181.001H427.417V172.673C427.423 171.805 427.202 171.128 426.753 170.642C426.303 170.149 425.685 169.903 424.897 169.903C424.367 169.903 423.9 170.017 423.493 170.245C423.093 170.472 422.779 170.805 422.552 171.242C422.33 171.673 422.216 172.193 422.21 172.802ZM451.584 166.819L446.626 181.001H442.194L437.236 166.819H441.391L444.336 176.966H444.484L447.42 166.819H451.584ZM464.023 181.278C462.564 181.278 461.309 180.983 460.256 180.392C459.21 179.795 458.403 178.951 457.837 177.862C457.271 176.766 456.988 175.47 456.988 173.975C456.988 172.516 457.271 171.236 457.837 170.134C458.403 169.032 459.2 168.173 460.228 167.558C461.262 166.942 462.475 166.634 463.866 166.634C464.802 166.634 465.673 166.785 466.479 167.087C467.292 167.382 467.999 167.829 468.603 168.426C469.212 169.023 469.686 169.774 470.025 170.679C470.363 171.577 470.532 172.63 470.532 173.836V174.916H458.557V172.479H466.83C466.83 171.913 466.707 171.411 466.461 170.974C466.214 170.537 465.873 170.195 465.436 169.949C465.005 169.697 464.503 169.571 463.931 169.571C463.334 169.571 462.804 169.709 462.343 169.986C461.887 170.257 461.53 170.623 461.272 171.085C461.013 171.54 460.881 172.048 460.875 172.608V174.926C460.875 175.627 461.004 176.234 461.262 176.745C461.527 177.255 461.9 177.649 462.38 177.926C462.86 178.203 463.429 178.342 464.088 178.342C464.525 178.342 464.925 178.28 465.288 178.157C465.651 178.034 465.962 177.849 466.221 177.603C466.479 177.357 466.676 177.055 466.811 176.698L470.449 176.938C470.265 177.813 469.886 178.576 469.314 179.228C468.747 179.875 468.015 180.379 467.116 180.742C466.224 181.099 465.193 181.278 464.023 181.278ZM489.319 170.863L485.718 171.085C485.656 170.777 485.524 170.5 485.321 170.254C485.118 170.001 484.85 169.801 484.518 169.654C484.191 169.5 483.801 169.423 483.345 169.423C482.736 169.423 482.222 169.552 481.803 169.811C481.385 170.063 481.175 170.402 481.175 170.826C481.175 171.165 481.311 171.451 481.582 171.685C481.852 171.919 482.317 172.107 482.976 172.248L485.543 172.765C486.921 173.048 487.949 173.504 488.626 174.132C489.303 174.759 489.642 175.584 489.642 176.606C489.642 177.536 489.368 178.351 488.82 179.053C488.279 179.755 487.534 180.302 486.586 180.696C485.644 181.084 484.558 181.278 483.327 181.278C481.449 181.278 479.954 180.887 478.839 180.105C477.731 179.318 477.082 178.246 476.891 176.892L480.76 176.689C480.877 177.262 481.16 177.699 481.609 178C482.059 178.296 482.634 178.443 483.336 178.443C484.025 178.443 484.579 178.311 484.998 178.046C485.423 177.776 485.638 177.428 485.644 177.003C485.638 176.646 485.487 176.354 485.192 176.126C484.896 175.892 484.441 175.714 483.825 175.59L481.369 175.101C479.984 174.824 478.953 174.344 478.276 173.661C477.605 172.978 477.27 172.107 477.27 171.048C477.27 170.137 477.516 169.352 478.008 168.693C478.507 168.035 479.206 167.527 480.104 167.17C481.009 166.813 482.068 166.634 483.28 166.634C485.072 166.634 486.481 167.013 487.509 167.77C488.543 168.527 489.147 169.558 489.319 170.863ZM504.082 166.819V169.774H495.542V166.819H504.082ZM497.481 163.421H501.414V176.643C501.414 177.006 501.469 177.289 501.58 177.492C501.691 177.689 501.845 177.828 502.042 177.908C502.245 177.988 502.479 178.028 502.743 178.028C502.928 178.028 503.113 178.013 503.297 177.982C503.482 177.945 503.623 177.917 503.722 177.899L504.341 180.826C504.144 180.887 503.867 180.958 503.51 181.038C503.153 181.124 502.719 181.176 502.208 181.195C501.26 181.232 500.429 181.106 499.715 180.816C499.007 180.527 498.456 180.078 498.062 179.468C497.668 178.859 497.474 178.09 497.481 177.16V163.421ZM511.064 181.001V166.819H514.813V169.321H514.979C515.274 168.49 515.767 167.835 516.456 167.355C517.146 166.875 517.97 166.634 518.931 166.634C519.903 166.634 520.731 166.878 521.414 167.364C522.098 167.844 522.553 168.496 522.781 169.321H522.929C523.218 168.509 523.741 167.859 524.498 167.373C525.261 166.881 526.163 166.634 527.203 166.634C528.527 166.634 529.601 167.056 530.426 167.899C531.257 168.737 531.672 169.925 531.672 171.463V181.001H527.748V172.239C527.748 171.451 527.539 170.86 527.12 170.466C526.702 170.072 526.179 169.875 525.551 169.875C524.837 169.875 524.28 170.103 523.88 170.559C523.479 171.008 523.279 171.602 523.279 172.34V181.001H519.466V172.156C519.466 171.46 519.266 170.906 518.866 170.494C518.472 170.081 517.952 169.875 517.306 169.875C516.869 169.875 516.475 169.986 516.124 170.208C515.779 170.423 515.505 170.728 515.302 171.122C515.099 171.509 514.997 171.965 514.997 172.488V181.001H511.064ZM545.662 181.278C544.203 181.278 542.948 180.983 541.895 180.392C540.849 179.795 540.042 178.951 539.476 177.862C538.91 176.766 538.627 175.47 538.627 173.975C538.627 172.516 538.91 171.236 539.476 170.134C540.042 169.032 540.839 168.173 541.867 167.558C542.901 166.942 544.114 166.634 545.505 166.634C546.441 166.634 547.312 166.785 548.118 167.087C548.931 167.382 549.638 167.829 550.242 168.426C550.851 169.023 551.325 169.774 551.664 170.679C552.002 171.577 552.171 172.63 552.171 173.836V174.916H540.196V172.479H548.469C548.469 171.913 548.346 171.411 548.1 170.974C547.853 170.537 547.512 170.195 547.075 169.949C546.644 169.697 546.142 169.571 545.57 169.571C544.973 169.571 544.443 169.709 543.982 169.986C543.526 170.257 543.169 170.623 542.911 171.085C542.652 171.54 542.52 172.048 542.514 172.608V174.926C542.514 175.627 542.643 176.234 542.901 176.745C543.166 177.255 543.539 177.649 544.019 177.926C544.499 178.203 545.068 178.342 545.727 178.342C546.164 178.342 546.564 178.28 546.927 178.157C547.29 178.034 547.601 177.849 547.86 177.603C548.118 177.357 548.315 177.055 548.45 176.698L552.088 176.938C551.904 177.813 551.525 178.576 550.953 179.228C550.386 179.875 549.654 180.379 548.755 180.742C547.863 181.099 546.832 181.278 545.662 181.278ZM563.091 172.802V181.001H559.158V166.819H562.907V169.321H563.073C563.387 168.496 563.913 167.844 564.652 167.364C565.39 166.878 566.286 166.634 567.339 166.634C568.323 166.634 569.182 166.85 569.915 167.281C570.647 167.712 571.216 168.327 571.623 169.127C572.029 169.921 572.232 170.869 572.232 171.971V181.001H568.299V172.673C568.305 171.805 568.083 171.128 567.634 170.642C567.185 170.149 566.566 169.903 565.778 169.903C565.249 169.903 564.781 170.017 564.375 170.245C563.975 170.472 563.661 170.805 563.433 171.242C563.211 171.673 563.098 172.193 563.091 172.802ZM587.295 166.819V169.774H578.755V166.819H587.295ZM580.694 163.421H584.627V176.643C584.627 177.006 584.682 177.289 584.793 177.492C584.904 177.689 585.058 177.828 585.255 177.908C585.458 177.988 585.692 178.028 585.956 178.028C586.141 178.028 586.326 178.013 586.51 177.982C586.695 177.945 586.837 177.917 586.935 177.899L587.554 180.826C587.357 180.887 587.08 180.958 586.723 181.038C586.366 181.124 585.932 181.176 585.421 181.195C584.473 181.232 583.642 181.106 582.928 180.816C582.22 180.527 581.669 180.078 581.275 179.468C580.881 178.859 580.688 178.09 580.694 177.16V163.421ZM612.258 166.819V169.774H603.718V166.819H612.258ZM605.657 163.421H609.59V176.643C609.59 177.006 609.645 177.289 609.756 177.492C609.867 177.689 610.021 177.828 610.218 177.908C610.421 177.988 610.655 178.028 610.92 178.028C611.104 178.028 611.289 178.013 611.474 177.982C611.658 177.945 611.8 177.917 611.898 177.899L612.517 180.826C612.32 180.887 612.043 180.958 611.686 181.038C611.329 181.124 610.895 181.176 610.384 181.195C609.436 181.232 608.605 181.106 607.891 180.816C607.183 180.527 606.632 180.078 606.238 179.468C605.844 178.859 605.651 178.09 605.657 177.16V163.421ZM623.478 172.802V181.001H619.545V162.092H623.368V169.321H623.534C623.854 168.484 624.371 167.829 625.085 167.355C625.799 166.875 626.695 166.634 627.772 166.634C628.757 166.634 629.615 166.85 630.348 167.281C631.086 167.706 631.659 168.318 632.065 169.118C632.477 169.912 632.681 170.863 632.674 171.971V181.001H628.741V172.673C628.747 171.799 628.526 171.119 628.076 170.632C627.633 170.146 627.012 169.903 626.211 169.903C625.676 169.903 625.202 170.017 624.789 170.245C624.383 170.472 624.063 170.805 623.829 171.242C623.602 171.673 623.485 172.193 623.478 172.802ZM644.234 181.269C643.329 181.269 642.523 181.112 641.815 180.798C641.107 180.478 640.547 180.007 640.134 179.385C639.728 178.757 639.525 177.976 639.525 177.04C639.525 176.252 639.67 175.59 639.959 175.055C640.248 174.519 640.642 174.089 641.141 173.762C641.639 173.436 642.206 173.19 642.84 173.024C643.48 172.858 644.151 172.741 644.852 172.673C645.677 172.587 646.342 172.507 646.847 172.433C647.351 172.353 647.718 172.236 647.945 172.082C648.173 171.928 648.287 171.7 648.287 171.399V171.343C648.287 170.759 648.102 170.306 647.733 169.986C647.37 169.666 646.853 169.506 646.182 169.506C645.474 169.506 644.911 169.663 644.492 169.977C644.074 170.285 643.797 170.672 643.661 171.14L640.024 170.845C640.208 169.983 640.571 169.238 641.113 168.61C641.655 167.976 642.353 167.49 643.209 167.152C644.071 166.807 645.068 166.634 646.2 166.634C646.988 166.634 647.742 166.727 648.462 166.911C649.189 167.096 649.832 167.382 650.392 167.77C650.958 168.158 651.405 168.657 651.731 169.266C652.057 169.869 652.22 170.592 652.22 171.436V181.001H648.49V179.034H648.379C648.152 179.478 647.847 179.868 647.465 180.207C647.084 180.539 646.625 180.801 646.09 180.992C645.554 181.176 644.936 181.269 644.234 181.269ZM645.36 178.554C645.939 178.554 646.45 178.44 646.893 178.213C647.336 177.979 647.684 177.665 647.936 177.271C648.189 176.877 648.315 176.431 648.315 175.932V174.427C648.192 174.507 648.022 174.581 647.807 174.649C647.598 174.71 647.361 174.769 647.096 174.824C646.831 174.873 646.567 174.92 646.302 174.963C646.037 175 645.797 175.033 645.582 175.064C645.12 175.132 644.717 175.24 644.372 175.387C644.028 175.535 643.76 175.735 643.569 175.987C643.378 176.234 643.283 176.541 643.283 176.911C643.283 177.446 643.477 177.856 643.864 178.139C644.258 178.416 644.757 178.554 645.36 178.554ZM667.235 166.819V169.774H658.695V166.819H667.235ZM660.634 163.421H664.567V176.643C664.567 177.006 664.622 177.289 664.733 177.492C664.844 177.689 664.998 177.828 665.195 177.908C665.398 177.988 665.632 178.028 665.896 178.028C666.081 178.028 666.266 178.013 666.45 177.982C666.635 177.945 666.777 177.917 666.875 177.899L667.494 180.826C667.297 180.887 667.02 180.958 666.663 181.038C666.306 181.124 665.872 181.176 665.361 181.195C664.413 181.232 663.582 181.106 662.868 180.816C662.16 180.527 661.609 180.078 661.215 179.468C660.821 178.859 660.627 178.09 660.634 177.16V163.421ZM687.452 181.001L683.593 166.819H687.572L689.77 176.348H689.899L692.189 166.819H696.094L698.421 176.292H698.541L700.702 166.819H704.672L700.822 181.001H696.658L694.22 172.082H694.045L691.607 181.001H687.452ZM711.19 181.001V166.819H715.123V181.001H711.19ZM713.166 164.991C712.581 164.991 712.08 164.797 711.661 164.409C711.249 164.015 711.042 163.545 711.042 162.997C711.042 162.455 711.249 161.99 711.661 161.603C712.08 161.209 712.581 161.012 713.166 161.012C713.751 161.012 714.249 161.209 714.662 161.603C715.08 161.99 715.29 162.455 715.29 162.997C715.29 163.545 715.08 164.015 714.662 164.409C714.249 164.797 713.751 164.991 713.166 164.991ZM726.627 162.092V181.001H722.694V162.092H726.627ZM738.131 162.092V181.001H734.198V162.092H738.131ZM756.14 181.001V166.819H759.888V169.321H760.054C760.35 168.49 760.842 167.835 761.532 167.355C762.221 166.875 763.046 166.634 764.006 166.634C764.979 166.634 765.807 166.878 766.49 167.364C767.173 167.844 767.628 168.496 767.856 169.321H768.004C768.293 168.509 768.816 167.859 769.574 167.373C770.337 166.881 771.239 166.634 772.279 166.634C773.602 166.634 774.676 167.056 775.501 167.899C776.332 168.737 776.748 169.925 776.748 171.463V181.001H772.824V172.239C772.824 171.451 772.614 170.86 772.196 170.466C771.777 170.072 771.254 169.875 770.626 169.875C769.912 169.875 769.355 170.103 768.955 170.559C768.555 171.008 768.355 171.602 768.355 172.34V181.001H764.542V172.156C764.542 171.46 764.342 170.906 763.941 170.494C763.548 170.081 763.027 169.875 762.381 169.875C761.944 169.875 761.55 169.986 761.199 170.208C760.855 170.423 760.581 170.728 760.378 171.122C760.174 171.509 760.073 171.965 760.073 172.488V181.001H756.14ZM788.318 181.269C787.414 181.269 786.607 181.112 785.899 180.798C785.192 180.478 784.631 180.007 784.219 179.385C783.813 178.757 783.61 177.976 783.61 177.04C783.61 176.252 783.754 175.59 784.044 175.055C784.333 174.519 784.727 174.089 785.225 173.762C785.724 173.436 786.29 173.19 786.924 173.024C787.564 172.858 788.235 172.741 788.937 172.673C789.762 172.587 790.427 172.507 790.931 172.433C791.436 172.353 791.802 172.236 792.03 172.082C792.258 171.928 792.372 171.7 792.372 171.399V171.343C792.372 170.759 792.187 170.306 791.818 169.986C791.455 169.666 790.938 169.506 790.267 169.506C789.559 169.506 788.996 169.663 788.577 169.977C788.158 170.285 787.881 170.672 787.746 171.14L784.108 170.845C784.293 169.983 784.656 169.238 785.198 168.61C785.739 167.976 786.438 167.49 787.294 167.152C788.155 166.807 789.153 166.634 790.285 166.634C791.073 166.634 791.827 166.727 792.547 166.911C793.273 167.096 793.917 167.382 794.477 167.77C795.043 168.158 795.489 168.657 795.816 169.266C796.142 169.869 796.305 170.592 796.305 171.436V181.001H792.575V179.034H792.464C792.236 179.478 791.932 179.868 791.55 180.207C791.168 180.539 790.71 180.801 790.174 180.992C789.639 181.176 789.02 181.269 788.318 181.269ZM789.445 178.554C790.023 178.554 790.534 178.44 790.978 178.213C791.421 177.979 791.769 177.665 792.021 177.271C792.273 176.877 792.399 176.431 792.399 175.932V174.427C792.276 174.507 792.107 174.581 791.892 174.649C791.682 174.71 791.445 174.769 791.181 174.824C790.916 174.873 790.651 174.92 790.387 174.963C790.122 175 789.882 175.033 789.666 175.064C789.205 175.132 788.802 175.24 788.457 175.387C788.112 175.535 787.845 175.735 787.654 175.987C787.463 176.234 787.367 176.541 787.367 176.911C787.367 177.446 787.561 177.856 787.949 178.139C788.343 178.416 788.842 178.554 789.445 178.554ZM807.34 176.92L807.35 172.202H807.922L812.465 166.819H816.98L810.877 173.947H809.944L807.34 176.92ZM803.776 181.001V162.092H807.71V181.001H803.776ZM812.64 181.001L808.467 174.824L811.089 172.045L817.247 181.001H812.64ZM829.208 181.278C827.75 181.278 826.494 180.983 825.441 180.392C824.395 179.795 823.589 178.951 823.022 177.862C822.456 176.766 822.173 175.47 822.173 173.975C822.173 172.516 822.456 171.236 823.022 170.134C823.589 169.032 824.386 168.173 825.414 167.558C826.448 166.942 827.66 166.634 829.051 166.634C829.987 166.634 830.858 166.785 831.664 167.087C832.477 167.382 833.185 167.829 833.788 168.426C834.397 169.023 834.871 169.774 835.21 170.679C835.548 171.577 835.718 172.63 835.718 173.836V174.916H823.742V172.479H832.015C832.015 171.913 831.892 171.411 831.646 170.974C831.4 170.537 831.058 170.195 830.621 169.949C830.19 169.697 829.689 169.571 829.116 169.571C828.519 169.571 827.99 169.709 827.528 169.986C827.073 170.257 826.715 170.623 826.457 171.085C826.198 171.54 826.066 172.048 826.06 172.608V174.926C826.06 175.627 826.189 176.234 826.448 176.745C826.712 177.255 827.085 177.649 827.565 177.926C828.045 178.203 828.614 178.342 829.273 178.342C829.71 178.342 830.11 178.28 830.473 178.157C830.836 178.034 831.147 177.849 831.406 177.603C831.664 177.357 831.861 177.055 831.997 176.698L835.635 176.938C835.45 177.813 835.071 178.576 834.499 179.228C833.933 179.875 833.2 180.379 832.301 180.742C831.409 181.099 830.378 181.278 829.208 181.278ZM855.57 186.319C855.072 186.319 854.604 186.279 854.167 186.199C853.736 186.125 853.379 186.03 853.096 185.913L853.982 182.977C854.444 183.118 854.859 183.195 855.229 183.208C855.604 183.22 855.927 183.134 856.198 182.949C856.475 182.764 856.7 182.451 856.872 182.007L857.103 181.407L852.016 166.819H856.152L859.088 177.234H859.236L862.199 166.819H866.364L860.851 182.534C860.587 183.297 860.227 183.962 859.771 184.528C859.322 185.1 858.753 185.541 858.063 185.848C857.374 186.162 856.543 186.319 855.57 186.319ZM878.747 181.278C877.313 181.278 876.072 180.973 875.026 180.364C873.986 179.748 873.183 178.893 872.616 177.797C872.05 176.695 871.767 175.418 871.767 173.965C871.767 172.501 872.05 171.22 872.616 170.125C873.183 169.023 873.986 168.167 875.026 167.558C876.072 166.942 877.313 166.634 878.747 166.634C880.181 166.634 881.418 166.942 882.459 167.558C883.505 168.167 884.311 169.023 884.878 170.125C885.444 171.22 885.727 172.501 885.727 173.965C885.727 175.418 885.444 176.695 884.878 177.797C884.311 178.893 883.505 179.748 882.459 180.364C881.418 180.973 880.181 181.278 878.747 181.278ZM878.765 178.231C879.418 178.231 879.963 178.046 880.4 177.677C880.837 177.302 881.166 176.791 881.388 176.144C881.615 175.498 881.729 174.763 881.729 173.938C881.729 173.113 881.615 172.377 881.388 171.731C881.166 171.085 880.837 170.574 880.4 170.198C879.963 169.823 879.418 169.635 878.765 169.635C878.107 169.635 877.553 169.823 877.103 170.198C876.66 170.574 876.325 171.085 876.097 171.731C875.876 172.377 875.765 173.113 875.765 173.938C875.765 174.763 875.876 175.498 876.097 176.144C876.325 176.791 876.66 177.302 877.103 177.677C877.553 178.046 878.107 178.231 878.765 178.231ZM901.799 174.963V166.819H905.732V181.001H901.956V178.425H901.808C901.488 179.256 900.956 179.924 900.211 180.429C899.472 180.933 898.571 181.186 897.506 181.186C896.558 181.186 895.724 180.97 895.004 180.539C894.283 180.108 893.72 179.496 893.314 178.702C892.914 177.908 892.711 176.957 892.705 175.849V166.819H896.638V175.147C896.644 175.984 896.869 176.646 897.312 177.132C897.755 177.619 898.349 177.862 899.094 177.862C899.568 177.862 900.011 177.754 900.423 177.539C900.836 177.317 901.168 176.991 901.421 176.56C901.679 176.129 901.805 175.597 901.799 174.963ZM930.125 186.615C928.851 186.615 927.758 186.439 926.847 186.088C925.943 185.744 925.222 185.273 924.687 184.676C924.151 184.079 923.804 183.408 923.644 182.663L927.281 182.174C927.392 182.457 927.568 182.721 927.808 182.968C928.048 183.214 928.365 183.411 928.759 183.559C929.159 183.712 929.645 183.789 930.218 183.789C931.073 183.789 931.778 183.58 932.332 183.161C932.892 182.749 933.172 182.057 933.172 181.084V178.49H933.006C932.834 178.884 932.575 179.256 932.23 179.607C931.886 179.958 931.442 180.244 930.901 180.465C930.359 180.687 929.713 180.798 928.962 180.798C927.897 180.798 926.928 180.552 926.053 180.059C925.186 179.561 924.493 178.8 923.976 177.779C923.465 176.751 923.21 175.452 923.21 173.882C923.21 172.276 923.471 170.934 923.995 169.857C924.518 168.78 925.213 167.973 926.081 167.438C926.955 166.902 927.912 166.634 928.953 166.634C929.747 166.634 930.411 166.77 930.947 167.041C931.482 167.305 931.913 167.638 932.24 168.038C932.572 168.432 932.827 168.82 933.006 169.201H933.154V166.819H937.059V181.139C937.059 182.346 936.764 183.355 936.173 184.168C935.582 184.98 934.763 185.59 933.717 185.996C932.677 186.408 931.479 186.615 930.125 186.615ZM930.208 177.843C930.842 177.843 931.378 177.686 931.815 177.372C932.258 177.052 932.597 176.597 932.83 176.006C933.071 175.409 933.191 174.695 933.191 173.864C933.191 173.033 933.074 172.313 932.84 171.703C932.606 171.088 932.267 170.611 931.824 170.272C931.381 169.934 930.842 169.764 930.208 169.764C929.562 169.764 929.017 169.94 928.574 170.291C928.131 170.635 927.795 171.116 927.568 171.731C927.34 172.347 927.226 173.058 927.226 173.864C927.226 174.683 927.34 175.39 927.568 175.987C927.802 176.578 928.137 177.037 928.574 177.363C929.017 177.683 929.562 177.843 930.208 177.843ZM944.609 181.001V166.819H948.422V169.294H948.57C948.829 168.413 949.263 167.749 949.872 167.299C950.481 166.844 951.183 166.616 951.977 166.616C952.174 166.616 952.386 166.628 952.614 166.653C952.842 166.678 953.042 166.711 953.214 166.755V170.245C953.03 170.189 952.774 170.14 952.448 170.097C952.122 170.054 951.823 170.032 951.552 170.032C950.974 170.032 950.457 170.158 950.001 170.411C949.552 170.657 949.195 171.002 948.93 171.445C948.672 171.888 948.542 172.399 948.542 172.978V181.001H944.609ZM965.415 181.278C963.981 181.278 962.741 180.973 961.694 180.364C960.654 179.748 959.851 178.893 959.285 177.797C958.718 176.695 958.435 175.418 958.435 173.965C958.435 172.501 958.718 171.22 959.285 170.125C959.851 169.023 960.654 168.167 961.694 167.558C962.741 166.942 963.981 166.634 965.415 166.634C966.85 166.634 968.087 166.942 969.127 167.558C970.173 168.167 970.98 169.023 971.546 170.125C972.112 171.22 972.395 172.501 972.395 173.965C972.395 175.418 972.112 176.695 971.546 177.797C970.98 178.893 970.173 179.748 969.127 180.364C968.087 180.973 966.85 181.278 965.415 181.278ZM965.434 178.231C966.086 178.231 966.631 178.046 967.068 177.677C967.505 177.302 967.834 176.791 968.056 176.144C968.284 175.498 968.398 174.763 968.398 173.938C968.398 173.113 968.284 172.377 968.056 171.731C967.834 171.085 967.505 170.574 967.068 170.198C966.631 169.823 966.086 169.635 965.434 169.635C964.775 169.635 964.221 169.823 963.772 170.198C963.329 170.574 962.993 171.085 962.765 171.731C962.544 172.377 962.433 173.113 962.433 173.938C962.433 174.763 962.544 175.498 962.765 176.144C962.993 176.791 963.329 177.302 963.772 177.677C964.221 178.046 964.775 178.231 965.434 178.231ZM981.815 181.001L977.956 166.819H981.935L984.133 176.348H984.262L986.552 166.819H990.457L992.784 176.292H992.904L995.064 166.819H999.035L995.184 181.001H991.02L988.583 172.082H988.407L985.97 181.001H981.815Z" fill="white"/>
<defs>
<linearGradient id="paint0_linear_210_881" x1="118.327" y1="0" x2="118.327" y2="260.731" gradientUnits="userSpaceOnUse">
<stop offset="0.0717274" stop-color="#004FFF"/>
<stop offset="1"/>
</linearGradient>
<linearGradient id="paint1_linear_210_881" x1="162.5" y1="162" x2="177.33" y2="241.992" gradientUnits="userSpaceOnUse">
<stop offset="0.185001" stop-color="#004FFF"/>
<stop offset="1"/>
</linearGradient>
<linearGradient id="paint2_linear_210_881" x1="701" y1="42.5" x2="700.5" y2="156.001" gradientUnits="userSpaceOnUse">
<stop offset="0.400199" stop-color="#0029FF"/>
<stop offset="0.910416" stop-color="#01030A"/>
</linearGradient>
</defs>
</svg>
